<?xml version="1.0" standalone="no"?><!DOCTYPE svg PUBLIC "-//W3C//DTD SVG 1.1//EN" "http://www.w3.org/Graphics/SVG/1.1/DTD/svg11.dtd"><svg t="1630074730133" class="icon" viewBox="0 0 1024 1024" version="1.1" xmlns="http://www.w3.org/2000/svg" p-id="901" xmlns:xlink="http://www.w3.org/1999/xlink" width="200" height="200"><defs><style type="text/css"></style></defs><path d="M896.17 438.37m0 50.06l0 325.33q0 50.06-50.06 50.06l-30.38 0q-50.06 0-50.06-50.06l0-325.33q0-50.06 50.06-50.06l30.38 0q50.06 0 50.06 50.06Z" fill="#E9F1FF" p-id="902"></path><path d="M609 438.36m0 50.06l0 325.33q0 50.06-50.06 50.06l-30.38 0q-50.06 0-50.06-50.06l0-325.33q0-50.06 50.06-50.06l30.38 0q50.06 0 50.06 50.06Z" fill="#E9F1FF" p-id="903"></path><path d="M320.06 438.36m0 50.06l0 325.33q0 50.06-50.06 50.06l-30.38 0q-50.06 0-50.06-50.06l0-325.33q0-50.06 50.06-50.06l30.38 0q50.06 0 50.06 50.06Z" fill="#E9F1FF" p-id="904"></path><path d="M270 895.92h-91.88a82.15 82.15 0 0 1-82.06-82.06V402a82.14 82.14 0 0 1 82.06-82.05H270A82.14 82.14 0 0 1 352.06 402v411.86A82.15 82.15 0 0 1 270 895.92z m-91.89-512A18.07 18.07 0 0 0 160.06 402v411.86a18.08 18.08 0 0 0 18.06 18.06H270a18.08 18.08 0 0 0 18.05-18.06V402A18.07 18.07 0 0 0 270 383.92zM558.94 895.92h-91.89A82.15 82.15 0 0 1 385 813.86V402a82.14 82.14 0 0 1 82.05-82.05h91.89A82.14 82.14 0 0 1 641 402v411.86a82.15 82.15 0 0 1-82.06 82.06z m-91.89-512A18.07 18.07 0 0 0 449 402v411.86a18.08 18.08 0 0 0 18.05 18.06h91.89A18.08 18.08 0 0 0 577 813.86V402a18.07 18.07 0 0 0-18.06-18.05zM846.12 895.92h-91.89a82.14 82.14 0 0 1-82.05-82.06V402a82.13 82.13 0 0 1 82.05-82.05h91.89A82.14 82.14 0 0 1 928.18 402v411.86a82.15 82.15 0 0 1-82.06 82.06z m-91.89-512A18.07 18.07 0 0 0 736.18 402v411.86a18.08 18.08 0 0 0 18.05 18.06h91.89a18.08 18.08 0 0 0 18.06-18.06V402a18.07 18.07 0 0 0-18.06-18.05z" fill="#2C5CCB" p-id="905"></path><path d="M511.33 360.36a32 32 0 0 1-32-32V191.89H274.11a18.08 18.08 0 0 0-18.06 18.05v118.42a32 32 0 0 1-64 0V209.94a82.15 82.15 0 0 1 82.06-82h237.22a32 32 0 0 1 32 32v168.42a32 32 0 0 1-32 32z" fill="#2C5CCB" p-id="906"></path><path d="M800.15 360.37a32 32 0 0 1-32-32v-118.4a18 18 0 0 0-18.05-18.06H509.51a32 32 0 0 1 0-64h240.63A82 82 0 0 1 832.19 210v118.4a32 32 0 0 1-32.04 31.97z" fill="#2C5CCB" p-id="907"></path></svg>