<?xml version="1.0" standalone="no"?><!DOCTYPE svg PUBLIC "-//W3C//DTD SVG 1.1//EN" "http://www.w3.org/Graphics/SVG/1.1/DTD/svg11.dtd"><svg t="1628648097198" class="icon" viewBox="0 0 1024 1024" version="1.1" xmlns="http://www.w3.org/2000/svg" p-id="1411" xmlns:xlink="http://www.w3.org/1999/xlink" width="128" height="128"><defs><style type="text/css"></style></defs><path d="M97 211.14h829.99v128.21H97z" fill="#B4E7B4" p-id="1412"></path><path d="M889.79 871.07H134.21c-31.54 0-57.2-25.66-57.2-57.2V505.36c0-11.05 8.95-20 20-20s20 8.95 20 20v308.51c0 9.48 7.72 17.2 17.2 17.2H889.8c9.48 0 17.2-7.72 17.2-17.2V437.52c0-11.05 8.95-20 20-20s20 8.95 20 20v376.36c0 31.53-25.66 57.19-57.21 57.19zM97 460.33c-11.05 0-20-8.95-20-20v-9.29c0-11.05 8.95-20 20-20s20 8.95 20 20v9.29c0 11.05-8.95 20-20 20zM97 386.01c-11.05 0-20-8.95-20-20V248.34c0-31.54 25.66-57.2 57.2-57.2h755.59c31.54 0 57.2 25.66 57.2 57.2v96.27c0 11.05-8.95 20-20 20H191.04c-11.05 0-20-8.95-20-20s8.95-20 20-20H907v-76.27c0-9.48-7.72-17.2-17.2-17.2H134.21c-9.48 0-17.2 7.72-17.2 17.2v117.67c-0.01 11.04-8.96 20-20.01 20z" fill="#004039" p-id="1413"></path><path d="M371.07 743.24H203.04c-17.64 0-32-14.36-32-32V479.56c0-17.64 14.36-32 32-32h168.04c17.64 0 32 14.36 32 32v231.67c-0.01 17.65-14.36 32.01-32.01 32.01z m-160.03-40h152.04V487.56H211.04v215.68zM831.16 487.56H510.33c-11.05 0-20-8.95-20-20s8.95-20 20-20h320.83c11.05 0 20 8.95 20 20s-8.95 20-20 20zM831.16 743.58H510.33c-11.05 0-20-8.95-20-20s8.95-20 20-20h300.83V615.4H510.33c-11.05 0-20-8.95-20-20s8.95-20 20-20h320.83c11.05 0 20 8.95 20 20v128.18c0 11.04-8.95 20-20 20zM191.04 295.56c-11.05 0-20.01-8.96-20.01-20s8.96-20 20.01-20 20 8.96 20 20-8.96 20-20 20z m19.99-20.01h0.01-0.01z m-19.99 0h0.01-0.01zM254.96 295.31c-11.05 0-20-8.96-20-20s8.96-20 20-20c11.05 0 20.01 8.96 20.01 20s-8.97 20-20.01 20z m19.99-20h0.01-0.01z m-19.99 0h0.01-0.01zM319.06 295.57c-11.05 0-20.01-8.96-20.01-20s8.96-20 20.01-20 20 8.96 20 20-8.95 20-20 20z m20-20.01h0.01-0.01z m-20 0h0.01-0.01z" fill="#004039" p-id="1414"></path></svg>