<?xml version="1.0" standalone="no"?><!DOCTYPE svg PUBLIC "-//W3C//DTD SVG 1.1//EN" "http://www.w3.org/Graphics/SVG/1.1/DTD/svg11.dtd"><svg t="1634614087153" class="icon" viewBox="0 0 1024 1024" version="1.1" xmlns="http://www.w3.org/2000/svg" p-id="2950" xmlns:xlink="http://www.w3.org/1999/xlink" width="128" height="128"><defs><style type="text/css"></style></defs><path d="M902.4 291.2L692.2 128.7c-44-34-107.9-2.6-107.9 53v45c-188.9 1.3-341.9 159.8-341.9 356 0 42.7 7.1 80.7 19 118.7C308.8 563.7 434.7 464 584.2 464v42.7c0 55.6 63.9 87 107.9 53l210.3-162.5c34.7-26.8 34.7-79.2 0-106z" fill="#2867CE" p-id="2951"></path><path d="M768.3 901.9H257.7c-93.1 0-168.5-75.5-168.5-168.5V353.6c0-93.1 75.5-168.5 168.5-168.5h49.6c26.6 0 48.1 21.5 48.1 48.1s-21.5 48.1-48.1 48.1h-49.6c-40 0-72.4 32.4-72.4 72.4v379.8c0 40 32.4 72.4 72.4 72.4h510.5c40 0 72.4-32.4 72.4-72.4v-132c0-26.6 21.5-48.1 48.1-48.1s48.1 21.5 48.1 48.1v132c0 93-75.5 168.4-168.5 168.4z" fill="#BDD2EF" p-id="2952"></path></svg>