<?xml version="1.0" standalone="no"?><!DOCTYPE svg PUBLIC "-//W3C//DTD SVG 1.1//EN" "http://www.w3.org/Graphics/SVG/1.1/DTD/svg11.dtd"><svg t="1634614073442" class="icon" viewBox="0 0 1024 1024" version="1.1" xmlns="http://www.w3.org/2000/svg" p-id="2802" xmlns:xlink="http://www.w3.org/1999/xlink" width="128" height="128"><defs><style type="text/css"></style></defs><path d="M939 485l-0.3-4.2c-0.2-2.9-0.4-5.7-0.7-8.6l-0.6-4.8c-0.3-2.6-0.6-5.2-1-7.8-0.2-1.6-0.5-3.3-0.8-4.9-0.4-2.6-0.9-5.1-1.4-7.7-0.3-1.6-0.6-3.1-1-4.7-0.6-2.6-1.2-5.2-1.8-7.7-0.4-1.5-0.7-2.9-1.1-4.3-0.7-2.7-1.5-5.4-2.3-8.1-0.4-1.3-0.8-2.5-1.1-3.7-0.9-2.9-1.9-5.9-3-8.8-0.3-0.9-0.7-1.9-1-2.8-1.3-3.4-2.6-6.8-4-10.2-0.2-0.4-0.3-0.7-0.4-1.1-28.1-66.4-82.9-119-151.1-144.1-0.4-0.1-0.7-0.3-1.1-0.4-3.4-1.2-6.9-2.4-10.4-3.5-0.8-0.2-1.5-0.5-2.3-0.7-3.1-0.9-6.2-1.8-9.4-2.7l-3.3-0.9c-2.8-0.7-5.7-1.4-8.5-2l-4.2-0.9c-2.6-0.5-5.2-1-7.8-1.4-1.6-0.3-3.3-0.6-5-0.8-0.4-0.1-0.8-0.1-1.2-0.2-57.2-68.2-142.5-108.3-232.1-108.3-145.4 0-269 102.8-297.2 242.9-59.2 38.5-96.2 105.4-96.2 177 0 116.3 94.6 210.9 210.9 210.9h377.3c144.8 0 262.6-117.8 262.6-262.6-0.2-4.3-0.3-8.6-0.5-12.9zM676.8 664.3H299.5c-63.3 0-114.7-51.5-114.7-114.7 0-44.4 24.8-84 64.8-103.3l23.7-11.5 3.1-26.2C288.6 304.5 377 225.9 482.1 225.9c35.9 0 70.7 9.5 101.3 26.7-11.9 4.5-23.4 9.8-34.5 16-23.2 12.9-31.5 42.2-18.5 65.4 12.9 23.2 42.2 31.5 65.4 18.5 24.6-13.7 52.6-21 81-21 2.8 0 5.6 0.1 8.4 0.2h0.5l3.9 0.3c1.6 0.1 3.2 0.2 4.7 0.4 1.8 0.2 3.6 0.4 5.4 0.7 0.9 0.1 1.8 0.2 2.6 0.3 52.1 8 96.4 40.4 120.7 85 0.1 0.1 0.1 0.2 0.2 0.3 1.2 2.2 2.3 4.4 3.4 6.6 0.1 0.3 0.2 0.5 0.4 0.8 1 2.1 1.9 4.2 2.8 6.3 0.2 0.4 0.4 0.8 0.5 1.2l2.4 6c0.2 0.6 0.4 1.1 0.6 1.7 0.7 1.9 1.3 3.8 1.9 5.7 0.2 0.7 0.5 1.4 0.7 2 0.6 1.8 1.1 3.6 1.6 5.5 0.2 0.8 0.5 1.6 0.7 2.4 0.4 1.8 0.8 3.5 1.2 5.3l0.6 2.7c0.4 1.7 0.6 3.5 0.9 5.2 0.2 1 0.3 1.9 0.5 2.9 0.3 1.8 0.5 3.5 0.7 5.3 0.1 1 0.3 1.9 0.4 2.9 0.2 1.9 0.3 3.8 0.4 5.7 0.1 0.9 0.1 1.7 0.2 2.6 0.1 2.8 0.2 5.6 0.2 8.4-0.1 91.7-74.8 166.4-166.5 166.4z" fill="#BDD2EF" p-id="2803"></path><path d="M478.2 425.8L314.1 589.9c-22.9 22.9-22.9 60.2 0 83.1 22.9 22.9 60.2 22.9 83.1 0l63.8-63.8v228.7c0 32.5 26.3 58.8 58.8 58.8s58.8-26.3 58.8-58.8V609.2l63.8 63.8c11.5 11.5 26.5 17.2 41.5 17.2s30.1-5.7 41.5-17.2c22.9-22.9 22.9-60.2 0-83.1L561.3 425.8c-22.9-22.9-60.1-22.9-83.1 0z" fill="#2867CE" p-id="2804"></path></svg>