<?xml version="1.0" standalone="no"?><!DOCTYPE svg PUBLIC "-//W3C//DTD SVG 1.1//EN" "http://www.w3.org/Graphics/SVG/1.1/DTD/svg11.dtd"><svg t="1634613998499" class="icon" viewBox="0 0 1024 1024" version="1.1" xmlns="http://www.w3.org/2000/svg" p-id="2208" xmlns:xlink="http://www.w3.org/1999/xlink" width="128" height="128"><defs><style type="text/css"></style></defs><path d="M716.5 853.4H316.1c-77.6 0-140.7-63.1-140.7-140.7V312.3c0-77.6 63.1-140.7 140.7-140.7h400.4c77.6 0 140.7 63.1 140.7 140.7v400.4c0.1 77.6-63.1 140.7-140.7 140.7zM316.1 267.7c-24.6 0-44.6 20-44.6 44.6v400.4c0 24.6 20 44.6 44.6 44.6h400.4c24.6 0 44.6-20 44.6-44.6V312.3c0-24.6-20-44.6-44.6-44.6H316.1z" fill="#BDD2EF" p-id="2209"></path><path d="M422.1 547.7h-232c-32.5 0-58.8 26.3-58.8 58.8 0 32.4 26.3 58.8 58.8 58.8h90.2L150.6 795c-22.9 22.9-22.9 60.2 0 83.1 22.9 22.9 60.2 22.9 83.1 0l129.7-129.7v90.2c0 16.2 6.6 30.9 17.2 41.5s25.3 17.2 41.5 17.2c32.5 0 58.8-26.3 58.8-58.8v-232c0-32.5-26.3-58.8-58.8-58.8zM605.9 478.7H838c32.5 0 58.8-26.3 58.8-58.8 0-32.4-26.3-58.8-58.8-58.8h-90.2l129.7-129.7c22.9-22.9 22.9-60.2 0-83.1-22.9-22.9-60.2-22.9-83.1 0L664.6 278v-90.2c0-16.2-6.6-30.9-17.2-41.5-10.6-10.6-25.3-17.2-41.5-17.2-32.5 0-58.8 26.3-58.8 58.8V420c0 32.4 26.3 58.7 58.8 58.7z" fill="#2867CE" p-id="2210"></path></svg>