<?xml version="1.0" standalone="no"?><!DOCTYPE svg PUBLIC "-//W3C//DTD SVG 1.1//EN" "http://www.w3.org/Graphics/SVG/1.1/DTD/svg11.dtd"><svg t="1634613967036" class="icon" viewBox="0 0 1024 1024" version="1.1" xmlns="http://www.w3.org/2000/svg" p-id="3107" xmlns:xlink="http://www.w3.org/1999/xlink" width="128" height="128"><defs><style type="text/css"></style></defs><path d="M514.1 291.6c60 0 122.2 21 184.9 62.5 67.6 44.6 110.5 97 121.9 111.9 11.3 14.8 17.6 30.9 18.1 46.8-0.5 16.4-6.8 32.9-18.1 47.6-11.5 15-54.3 67.3-121.9 111.9-62.7 41.4-125 62.5-185.1 62.5-60 0-122.3-21-185-62.5-67.6-44.6-110.4-96.9-121.9-111.9-11.3-14.9-17.5-31-18-46.8 0.5-16.4 6.7-32.8 18-47.7 11.6-15.1 54.5-67.3 122-111.9 62.7-41.4 125-62.4 185.1-62.4m0-96.2c-79.2 0-159.4 26.4-238.1 78.4-77.9 51.4-127.5 110.6-145.3 133.6l-0.1 0.2-0.1 0.2C106.8 439 93.8 475 92.9 511.9v3.8c0.9 36.2 13.9 71.9 37.6 103.1l0.1 0.2 0.1 0.2c17.7 23 67.3 82.1 145.2 133.6 78.7 52 158.8 78.4 238 78.4 79.3 0 159.3-26.4 238.1-78.4C829.9 701.1 879.4 642 897.1 619c24-31.2 37.1-67.3 38-104.3v-2l-0.1-2c-0.9-36.4-14.1-72.2-38-103.3-17.8-23.1-67.4-82.2-145.2-133.6-78.5-52-158.6-78.4-237.7-78.4z" fill="#BDD2EF" p-id="3108"></path><path d="M514 513.2m-161.1 0a161.1 161.1 0 1 0 322.2 0 161.1 161.1 0 1 0-322.2 0Z" fill="#2867CE" p-id="3109"></path></svg>