<?xml version="1.0" standalone="no"?><!DOCTYPE svg PUBLIC "-//W3C//DTD SVG 1.1//EN" "http://www.w3.org/Graphics/SVG/1.1/DTD/svg11.dtd"><svg t="1634614045159" class="icon" viewBox="0 0 1024 1024" version="1.1" xmlns="http://www.w3.org/2000/svg" p-id="2505" xmlns:xlink="http://www.w3.org/1999/xlink" width="128" height="128"><defs><style type="text/css"></style></defs><path d="M514 912c-219.9 0-398.9-178.9-398.9-398.8S294 114.3 514 114.3c219.9 0 398.8 178.9 398.8 398.9C912.8 733.1 733.9 912 514 912z m0-701.5c-166.9 0-302.7 135.8-302.7 302.7S347.1 815.9 514 815.9s302.7-135.8 302.7-302.7S680.9 210.5 514 210.5z" fill="#BDD2EF" p-id="2506"></path><path d="M555.6 642l164.1-164.1c22.9-22.9 22.9-60.2 0-83.1-22.9-22.9-60.2-22.9-83.1 0l-63.8 63.8V229.9c0-32.5-26.3-58.8-58.8-58.8s-58.8 26.3-58.8 58.8v228.7l-63.8-63.8c-11.5-11.5-26.5-17.2-41.5-17.2s-30.1 5.7-41.5 17.2c-22.9 22.9-22.9 60.2 0 83.1L472.5 642c22.9 23 60.1 23 83.1 0z" fill="#2867CE" p-id="2507"></path><path d="M679.5 714H351c-14.8 0-26.7-12-26.7-26.7s12-26.7 26.7-26.7h328.5c14.8 0 26.7 12 26.7 26.7S694.3 714 679.5 714z" fill="#2867CE" p-id="2508"></path></svg>