<?xml version="1.0" standalone="no"?><!DOCTYPE svg PUBLIC "-//W3C//DTD SVG 1.1//EN" "http://www.w3.org/Graphics/SVG/1.1/DTD/svg11.dtd"><svg t="1634614018953" class="icon" viewBox="0 0 1024 1024" version="1.1" xmlns="http://www.w3.org/2000/svg" p-id="2356" xmlns:xlink="http://www.w3.org/1999/xlink" width="128" height="128"><defs><style type="text/css"></style></defs><path d="M490.8 463.5c32.5 0 58.8-26.3 58.8-58.8s-26.3-58.8-58.8-58.8H285.6c-32.5 0-58.8 26.3-58.8 58.8s26.3 58.8 58.8 58.8h205.2z" fill="#2867CE" p-id="2357"></path><path d="M756.8 788.8c12.3 0 24.6-4.7 34-14.1 18.8-18.8 18.8-49.2 0-68L642.9 558.9c27.3-45 43.1-97.8 43.1-154.2 0-164.2-133.6-297.8-297.8-297.8S90.4 240.5 90.4 404.7 224 702.5 388.2 702.5c73.1 0 140.1-26.5 192-70.4l142.6 142.6c9.4 9.4 21.7 14.1 34 14.1zM388.2 606.4c-111.2 0-201.7-90.5-201.7-201.7C186.5 293.5 277 203 388.2 203c111.2 0 201.7 90.5 201.7 201.7 0 111.2-90.5 201.7-201.7 201.7zM791.5 133.6H689.8v96.2h101.6c27.6 0 50 22.4 50 50V356h96.2v-76.3c0-80.5-65.5-146.1-146.1-146.1z" fill="#BDD2EF" p-id="2358"></path><path d="M841.5 773.3c0 27.6-22.4 50-50 50H689.8v96.2h101.6c80.6 0 146.2-65.6 146.2-146.2V697h-96.2v76.3zM197.2 773.3V697H101v76.3c0 80.6 65.6 146.2 146.2 146.2h101.6v-96.2H247.2c-27.6 0-50-22.4-50-50z" fill="#BDD2EF" p-id="2359"></path></svg>