<?xml version="1.0" standalone="no"?><!DOCTYPE svg PUBLIC "-//W3C//DTD SVG 1.1//EN" "http://www.w3.org/Graphics/SVG/1.1/DTD/svg11.dtd"><svg t="1634614232543" class="icon" viewBox="0 0 1024 1024" version="1.1" xmlns="http://www.w3.org/2000/svg" p-id="15395" xmlns:xlink="http://www.w3.org/1999/xlink" width="128" height="128"><defs><style type="text/css"></style></defs><path d="M870.4 1024h-716.8A51.2 51.2 0 0 1 102.4 972.8v-921.6A51.2 51.2 0 0 1 153.6 0h569.685333a42.666667 42.666667 0 0 1 30.037334 12.288l155.989333 155.989333a42.666667 42.666667 0 0 1 12.288 30.037334V972.8a51.2 51.2 0 0 1-51.2 51.2zM153.6 34.133333a17.066667 17.066667 0 0 0-17.066667 17.066667v921.6a17.066667 17.066667 0 0 0 17.066667 17.066667h716.8a17.066667 17.066667 0 0 0 17.066667-17.066667V198.314667a7.168 7.168 0 0 0-2.389334-5.802667l-155.989333-155.989333a7.168 7.168 0 0 0-5.802667-2.389334z" fill="#4D4D4D" p-id="15396"></path><path d="M904.533333 204.8h-170.666666a17.066667 17.066667 0 0 1-17.066667-17.066667v-170.666666h34.133333V170.666667h153.6z" fill="#4D4D4D" p-id="15397"></path><path d="M204.8 170.666667h443.733333v34.133333H204.8zM204.8 307.2h614.4v34.133333H204.8zM204.8 443.733333h614.4v34.133334H204.8zM204.8 580.266667h614.4v34.133333H204.8zM204.8 853.333333h614.4v34.133334H204.8zM204.8 716.8h614.4v34.133333H204.8z" fill="#B3B3B3" p-id="15398"></path><path d="M51.2 460.8m17.066667 0l887.466666 0q17.066667 0 17.066667 17.066667l0 273.066666q0 17.066667-17.066667 17.066667l-887.466666 0q-17.066667 0-17.066667-17.066667l0-273.066666q0-17.066667 17.066667-17.066667Z" fill="#4295E5" p-id="15399"></path><path d="M955.733333 477.866667v273.066666H68.266667v-273.066666h887.466666m0-34.133334H68.266667a34.133333 34.133333 0 0 0-34.133334 34.133334v273.066666a34.133333 34.133333 0 0 0 34.133334 34.133334h887.466666a34.133333 34.133333 0 0 0 34.133334-34.133334v-273.066666a34.133333 34.133333 0 0 0-34.133334-34.133334z" fill="#267ACB" p-id="15400"></path><path d="M308.906667 614.4l-55.637334-84.309333h31.061334l40.96 63.488h2.048l41.642666-63.488h29.354667L341.333333 614.4l55.978667 83.968h-30.72l-41.301333-62.122667-43.690667 62.464H252.586667zM587.776 698.709333V576.853333l-49.493333 117.76h-19.797334L467.626667 576.853333v121.856h-24.576v-168.618666h30.72l53.589333 129.024h2.048L580.266667 530.090667h30.378666v168.618666zM771.413333 698.709333h-105.130666v-168.618666h26.282666v144.384h78.848z" fill="#FFFFFF" p-id="15401"></path></svg>