<?xml version="1.0" standalone="no"?><!DOCTYPE svg PUBLIC "-//W3C//DTD SVG 1.1//EN" "http://www.w3.org/Graphics/SVG/1.1/DTD/svg11.dtd"><svg t="1634613994504" class="icon" viewBox="0 0 1024 1024" version="1.1" xmlns="http://www.w3.org/2000/svg" p-id="2060" xmlns:xlink="http://www.w3.org/1999/xlink" width="128" height="128"><defs><style type="text/css"></style></defs><path d="M716.5 853.4H316.1c-77.6 0-140.7-63.1-140.7-140.7V312.3c0-77.6 63.1-140.7 140.7-140.7h400.4c77.6 0 140.7 63.1 140.7 140.7v400.4c0.1 77.6-63.1 140.7-140.7 140.7zM316.1 267.7c-24.6 0-44.6 20-44.6 44.6v400.4c0 24.6 20 44.6 44.6 44.6h400.4c24.6 0 44.6-20 44.6-44.6V312.3c0-24.6-20-44.6-44.6-44.6H316.1z" fill="#BDD2EF" p-id="2061"></path><path d="M192.1 895.3h232.1c32.5 0 58.8-26.3 58.8-58.8 0-32.4-26.3-58.8-58.8-58.8H334L463.7 648c22.9-22.9 22.9-60.2 0-83.1-22.9-22.9-60.2-22.9-83.1 0L250.9 694.7v-90.2c0-16.2-6.6-30.9-17.2-41.5-10.6-10.6-25.3-17.2-41.5-17.2-32.5 0-58.8 26.3-58.8 58.8v232.1c-0.1 32.3 26.3 58.6 58.7 58.6zM835.9 131.1H603.8c-32.5 0-58.8 26.3-58.8 58.8 0 32.4 26.3 58.8 58.8 58.8H694L564.3 378.3c-22.9 22.9-22.9 60.2 0 83.1 22.9 22.9 60.2 22.9 83.1 0l129.7-129.7v90.2c0 16.2 6.6 30.9 17.2 41.5 10.6 10.6 25.3 17.2 41.5 17.2 32.5 0 58.8-26.3 58.8-58.8V189.9c0.1-32.5-26.3-58.8-58.7-58.8z" fill="#2867CE" p-id="2062"></path></svg>