<?xml version="1.0" standalone="no"?><!DOCTYPE svg PUBLIC "-//W3C//DTD SVG 1.1//EN" "http://www.w3.org/Graphics/SVG/1.1/DTD/svg11.dtd"><svg t="1627795619307" class="icon" viewBox="0 0 1024 1024" version="1.1" xmlns="http://www.w3.org/2000/svg" p-id="1887" xmlns:xlink="http://www.w3.org/1999/xlink" width="128" height="128"><defs><style type="text/css"></style></defs><path d="M794.888397 615.787304c47.840519 0 92.817425 18.630476 126.645842 52.458893S973.993132 747.050521 973.993132 794.891039s-18.630476 92.817425-52.458893 126.645843S842.728915 973.995774 794.888397 973.995774s-92.817425-18.630476-126.644843-52.458892c-33.828417-33.828417-52.458893-78.805324-52.458893-126.645843s18.630476-92.816425 52.458893-126.644842c33.827417-33.828417 78.804324-52.458893 126.644843-52.458893m0-49.993227c-126.526858 0-229.096962 102.571104-229.096963 229.096962 0 126.526858 102.570104 229.097962 229.096963 229.097962C921.414255 1023.989001 1023.986359 921.417898 1023.986359 794.891039c0-126.525858-102.572104-229.096962-229.097962-229.096962z" p-id="1888"></path><path d="M794.888397 898.15105m-38.316809 0a38.316809 38.316809 0 1 0 76.633618 0 38.316809 38.316809 0 1 0-76.633618 0Z" p-id="1889"></path><path d="M794.888397 651.508465c-20.715194 0-37.511918 10.865528-37.511918 24.265712 0 13.401184 0.523929 160.741223 37.511918 160.741223s37.512918-147.339039 37.512917-160.741223c0-13.400185-16.797724-24.265713-37.512917-24.265712z" p-id="1890"></path><path d="M426.055366 0.323686C367.722268-2.000999 307.967364 8.155625 250.621133 32.358346 193.274902 56.560067 144.312536 92.288227 105.282823 135.703345c58.004142-1.113849 116.737185-13.037234 173.365513-36.936996S384.792956 41.104161 426.055366 0.323686zM353.653175 276.487272c112.575748-47.511563 205.224197-122.659382 273.407959-214.232976a412.269146 412.269146 0 0 0-106.248606-46.900646 553.685987 553.685987 0 0 1-30.383884 33.944401c-51.400036 52.870837-112.179802 94.33022-180.650525 123.228305-68.470724 28.898085-140.576955 43.521104-214.314965 43.463112a553.515011 553.515011 0 0 1-45.515834-1.910741A412.259148 412.259148 0 0 0 9.42881 322.920981c113.175667 15.032963 231.649616 1.078854 344.224365-46.433709z" p-id="1891"></path><path d="M428.660013 454.209194c135.363661-57.12926 248.406346-145.214327 334.393697-252.559783a407.07485 407.07485 0 0 0-72.272209-90.415751 743.480274 743.480274 0 0 1-62.064592 72.623161c-69.396598 71.385329-151.469479 127.366745-243.932952 166.390458-92.463473 39.022713-189.827282 58.770038-289.385794 58.692049a744.069195 744.069195 0 0 1-95.330085-6.195161 407.019858 407.019858 0 0 0 14.361054 114.855439c136.895454 13.279201 278.86622-6.262152 414.230881-63.390412z" p-id="1892"></path><path d="M799.73274 282.929399a929.176117 929.176117 0 0 1-32.727566 35.488192c-87.39616 89.899821-190.760156 160.402269-307.215379 209.55261-116.456223 49.149341-239.07761 74.018972-364.457624 73.920986a928.171253 928.171253 0 0 1-48.257462-1.308823c22.854904 43.643087 52.721857 81.662936 87.606132 113.236659 123.607254-4.463395 248.434342-31.011799 368.98301-81.887906a1062.156101 1062.156101 0 0 0 33.398476-14.776998c77.941441-36.098109 149.465751-80.743061 213.939015-132.331072a1040.636016 1040.636016 0 0 0 68.744687-60.130854c1.714768-47.02063-4.688365-94.941138-20.013289-141.762794zM244.522959 785.023376c73.37106 32.360616 156.062857 43.270138 237.789785 28.552132a317.828941 317.828941 0 0 1-0.569923-18.684469c0-24.548674 2.831616-48.433438 8.173893-71.355333-79.829185 29.828959-161.87107 50.368176-245.393755 61.48767z" p-id="1893"></path></svg>