<?xml version="1.0" standalone="no"?><!DOCTYPE svg PUBLIC "-//W3C//DTD SVG 1.1//EN" "http://www.w3.org/Graphics/SVG/1.1/DTD/svg11.dtd"><svg t="1628664966543" class="icon" viewBox="0 0 1024 1024" version="1.1" xmlns="http://www.w3.org/2000/svg" p-id="5995" xmlns:xlink="http://www.w3.org/1999/xlink" width="128" height="128"><defs><style type="text/css"></style></defs><path d="M143.824 746a24 24 0 0 1-24-24v-286.4a24 24 0 0 1 48 0v286.4a24 24 0 0 1-24 24z" fill="#666666" p-id="5996"></path><path d="M880.24 746a24 24 0 0 1-24-24v-286.4a24 24 0 0 1 48 0v286.4a24 24 0 0 1-24 24z" fill="#666666" p-id="5997"></path><path d="M327.904 837.664a24 24 0 0 1-24-24v-286.4a24 24 0 0 1 48 0v286.4a24 24 0 0 1-24 24z" fill="#666666" p-id="5998"></path><path d="M512 918.704a24 24 0 0 1-24-24v-483.2a24 24 0 0 1 48 0v483.2a24 24 0 0 1-24 24z" fill="#666666" p-id="5999"></path><path d="M696.08 837.664a24 24 0 0 1-24-24v-483.2a24 24 0 0 1 48 0v483.2a24 24 0 0 1-24 24z" fill="#666666" p-id="6000"></path><path d="M319.408 403.088L129.28 258.496a24 24 0 1 1 29.072-38.224l163.552 124.4 173.808-110.112 201.68-129.328 196.4 135.28a24 24 0 0 1-27.2 39.52L696.48 162.848l-174.96 112.176z" fill="#1771B9" p-id="6001"></path></svg>