<?xml version="1.0" standalone="no"?><!DOCTYPE svg PUBLIC "-//W3C//DTD SVG 1.1//EN" "http://www.w3.org/Graphics/SVG/1.1/DTD/svg11.dtd"><svg t="1634614149821" class="icon" viewBox="0 0 1024 1024" version="1.1" xmlns="http://www.w3.org/2000/svg" p-id="2088" xmlns:xlink="http://www.w3.org/1999/xlink" width="128" height="128"><defs><style type="text/css"></style></defs><path d="M923.136 969.557333H193.024v-909.653333h521.386667l208.725333 207.701333z" fill="#7CCDFF" p-id="2089"></path><path d="M912.896 253.952l2.56 671.914667c0 15.530667-12.458667 27.989333-27.989333 27.989333H237.909333c-15.530667 0-27.989333-12.458667-27.989333-27.989333V96.938667c0-15.530667 12.458667-27.989333 27.989333-27.989334l493.397334-1.024-38.912-39.936H239.274667c-36.352 0-65.706667 29.354667-65.706667 65.706667v835.584c0 36.352 29.354667 65.706667 65.706667 65.706667h646.826666c36.352 0 65.706667-29.354667 65.706667-65.706667V293.888l-38.912-39.936z" fill="#4191FB" p-id="2090"></path><path d="M692.394667 222.72c0 39.424 31.914667 71.338667 71.338666 71.338667h188.245334L692.394667 27.989333v194.730667z" fill="#C7E2FF" p-id="2091"></path><path d="M557.568 482.304H158.72c-50.346667 0-91.136-40.789333-91.136-91.136v-60.245333c0-50.346667 40.789333-91.136 91.136-91.136h398.848c50.346667 0 91.136 40.789333 91.136 91.136v60.245333c0 50.346667-40.789333 91.136-91.136 91.136z" fill="#4191FB" p-id="2092"></path><path d="M112.810667 391.850667l45.738666-2.901334c1.024 7.509333 3.072 13.141333 5.973334 17.066667 4.949333 6.314667 12.117333 9.386667 21.162666 9.386667 6.826667 0 12.117333-1.536 15.872-4.778667 3.754667-3.242667 5.632-6.997333 5.632-11.264 0-4.096-1.706667-7.68-5.290666-10.752-3.584-3.242667-11.776-6.144-24.576-9.045333-21.162667-4.778667-36.181333-11.093333-45.226667-18.944-9.045333-7.850667-13.653333-17.92-13.653333-30.037334 0-8.021333 2.389333-15.530667 6.997333-22.698666s11.605333-12.629333 20.992-16.725334c9.386667-4.096 22.016-6.144 38.229333-6.144 19.968 0 35.157333 3.754667 45.568 11.093334s16.725333 19.114667 18.602667 35.328l-45.397333 2.730666c-1.194667-6.997333-3.754667-12.117333-7.68-15.36s-9.216-4.778667-16.042667-4.778666c-5.632 0-9.728 1.194667-12.629333 3.584-2.901333 2.389333-4.266667 5.290667-4.266667 8.704 0 2.56 1.194667 4.778667 3.584 6.656 2.218667 2.048 7.68 3.925333 16.213333 5.802666 20.992 4.608 36.181333 9.045333 45.226667 13.824 9.045333 4.608 15.701333 10.410667 19.797333 17.237334 4.096 6.826667 6.144 14.506667 6.144 23.04 0 10.069333-2.730667 19.114667-8.362666 27.648-5.461333 8.362667-13.312 14.848-23.210667 19.114666-9.898667 4.437333-22.357333 6.485333-37.546667 6.485334-26.453333 0-44.885333-5.12-54.954666-15.36-9.728-10.24-15.530667-23.210667-16.896-38.912zM262.997333 287.573333h50.346667l34.986667 112.128 34.645333-112.128H431.786667l-57.856 155.818667h-52.224l-58.709334-155.818667zM518.485333 386.901333v-32.426666h74.410667v66.389333c-14.165333 9.728-26.794667 16.384-37.717333 19.797333-10.922667 3.584-23.893333 5.290667-38.912 5.290667-18.432 0-33.621333-3.072-45.226667-9.386667-11.605333-6.314667-20.650667-15.701333-27.136-28.16s-9.557333-26.794667-9.557333-42.837333c0-17.066667 3.584-31.744 10.581333-44.373333s17.237333-22.186667 30.890667-28.672c10.581333-4.949333 24.746667-7.509333 42.666666-7.509334 17.237333 0 30.037333 1.536 38.570667 4.608s15.701333 8.021333 21.162667 14.506667c5.632 6.485333 9.898667 14.848 12.629333 24.917333l-46.421333 8.362667c-1.877333-5.802667-5.12-10.410667-9.728-13.482667-4.608-3.072-10.410667-4.608-17.408-4.608-10.581333 0-18.944 3.584-25.258667 10.922667s-9.386667 18.944-9.386667 34.816c0 16.896 3.242667 28.842667 9.557334 36.181333 6.314667 7.168 15.189333 10.752 26.453333 10.752 5.461333 0 10.581333-0.853333 15.36-2.389333 4.949333-1.536 10.410667-4.266667 16.725333-8.021333v-14.677334h-32.256z" fill="#FFFFFF" p-id="2093"></path><path d="M701.269333 685.738667c-14.336 0-26.794667 9.045333-31.744 21.674666h-76.970666l54.442666-54.442666c12.458667 5.461333 27.477333 3.072 37.717334-7.168 13.312-13.312 13.312-34.816 0-48.128-13.312-13.312-34.816-13.312-48.128 0-10.24 10.24-12.629333 25.258667-7.168 37.717333l-54.442667 54.442667v-76.970667c12.629333-4.949333 21.674667-17.237333 21.674667-31.744 0-18.773333-15.189333-33.962667-33.962667-33.962667s-33.962667 15.189333-33.962667 33.962667c0 14.336 9.045333 26.794667 21.674667 31.744v76.970667l-54.442667-54.442667c5.461333-12.458667 3.072-27.477333-7.168-37.717333-13.312-13.312-34.816-13.312-48.128 0-13.312 13.312-13.312 34.816 0 48.128 10.24 10.24 25.258667 12.629333 37.717334 7.168l54.442666 54.442666h-76.970666c-4.949333-12.629333-17.237333-21.674667-31.744-21.674666-18.773333 0-33.962667 15.189333-33.962667 33.962666s15.189333 33.962667 33.962667 33.962667c14.336 0 26.794667-9.045333 31.744-21.674667h76.970666l-54.442666 54.442667c-12.458667-5.461333-27.477333-3.072-37.717334 7.168-13.312 13.312-13.312 34.816 0 48.128 13.312 13.312 34.816 13.312 48.128 0 10.24-10.24 12.629333-25.258667 7.168-37.717333l54.442667-54.442667v76.970667c-12.629333 4.949333-21.674667 17.237333-21.674667 31.744 0 18.773333 15.189333 33.962667 33.962667 33.962666s33.962667-15.189333 33.962667-33.962666c0-14.336-9.045333-26.794667-21.674667-31.744v-76.970667l54.442667 54.442667c-5.461333 12.458667-3.072 27.477333 7.168 37.717333 13.312 13.312 34.816 13.312 48.128 0 13.312-13.312 13.312-34.816 0-48.128-10.24-10.24-25.258667-12.629333-37.717334-7.168l-54.442666-54.442667h76.970666c4.949333 12.629333 17.237333 21.674667 31.744 21.674667 18.773333 0 33.962667-15.189333 33.962667-33.962667 0-18.773333-15.36-33.962667-33.962667-33.962666z" fill="#4191FB" p-id="2094"></path></svg>