<?xml version="1.0" standalone="no"?><!DOCTYPE svg PUBLIC "-//W3C//DTD SVG 1.1//EN" "http://www.w3.org/Graphics/SVG/1.1/DTD/svg11.dtd"><svg t="1628664990731" class="icon" viewBox="0 0 1024 1024" version="1.1" xmlns="http://www.w3.org/2000/svg" p-id="6989" xmlns:xlink="http://www.w3.org/1999/xlink" width="128" height="128"><defs><style type="text/css"></style></defs><path d="M511.3 854.4H187.9c-12.9 0-23.9-14.3-23.9-31.1V258.9c0-16.9 10.9-31.1 23.9-31.1h96.4v42.6c0 19.9 16.1 36 36 36s36-16.1 36-36v-42.6h311.8v42.6c0 19.9 16.1 36 36 36s36-16.1 36-36v-42.6h96.2c12.9 0 23.9 14.3 23.9 31.1v216c0 19.9 16.1 36 36 36s36-16.1 36-36v-216c0-56.9-43-103.1-95.9-103.1h-96.2v-54.3c0-19.9-16.1-36-36-36s-36 16.1-36 36v54.3H356.3v-54.3c0-19.9-16.1-36-36-36s-36 16.1-36 36v54.3h-96.4C135 155.8 92 202 92 258.9v564.3c0 56.9 43 103.1 95.9 103.1h323.4c19.9 0 36-16.1 36-36s-16.1-35.9-36-35.9z" fill="#0066FF" p-id="6990"></path><path d="M768.1 547c-105.5 0-191 85.5-191 191s85.5 191 191 191 191-85.5 191-191-85.5-191-191-191z m104.7 264.7c-4.1 0-8.2-0.7-12.3-2.2l-103.8-37.4c-14.3-4.8-24.6-18.3-24.6-34.1V628.7c0-19.9 16.1-36 36-36s36 16.1 36 36v84.1l81 29.1c18.7 6.8 28.3 27.5 21.5 46.1-5.3 14.6-19.1 23.7-33.8 23.7zM598.2 461.2c0-19.9-16.1-36-36-36H321.8c-19.9 0-36 16.1-36 36s16.1 36 36 36h240.4c19.9 0 36-16.1 36-36zM449.3 676c19.9 0 36-16.1 36-36s-16.1-36-36-36H321.8c-19.9 0-36 16.1-36 36s16.1 36 36 36h127.5z" fill="#99C2FF" p-id="6991"></path></svg>