<?xml version="1.0" standalone="no"?><!DOCTYPE svg PUBLIC "-//W3C//DTD SVG 1.1//EN" "http://www.w3.org/Graphics/SVG/1.1/DTD/svg11.dtd"><svg t="1634614139845" class="icon" viewBox="0 0 1024 1024" version="1.1" xmlns="http://www.w3.org/2000/svg" p-id="1782" xmlns:xlink="http://www.w3.org/1999/xlink" width="128" height="128"><defs><style type="text/css"></style></defs><path d="M923.136 969.557333H193.024v-909.653333h521.386667l208.725333 207.701333z" fill="#7CCDFF" p-id="1783"></path><path d="M912.896 253.952l2.56 671.914667c0 15.530667-12.458667 27.989333-27.989333 27.989333H237.909333c-15.530667 0-27.989333-12.458667-27.989333-27.989333V96.938667c0-15.530667 12.458667-27.989333 27.989333-27.989334l493.397334-1.024-38.912-39.936H239.274667c-36.352 0-65.706667 29.354667-65.706667 65.706667v835.584c0 36.352 29.354667 65.706667 65.706667 65.706667h646.826666c36.352 0 65.706667-29.354667 65.706667-65.706667V293.888l-38.912-39.936z" fill="#4191FB" p-id="1784"></path><path d="M692.394667 222.72c0 39.424 31.914667 71.338667 71.338666 71.338667h188.245334L692.394667 27.989333v194.730667z" fill="#C7E2FF" p-id="1785"></path><path d="M557.568 482.304H158.72c-50.346667 0-91.136-40.789333-91.136-91.136v-60.245333c0-50.346667 40.789333-91.136 91.136-91.136h398.848c50.346667 0 91.136 40.789333 91.136 91.136v60.245333c0 50.346667-40.789333 91.136-91.136 91.136z" fill="#4191FB" p-id="1786"></path><path d="M118.613333 287.573333h51.370667l26.794667 47.957334 25.941333-47.957334h50.858667l-46.933334 75.434667 51.370667 80.384h-52.394667l-29.866666-50.005333-29.866667 50.005333H114.005333l52.053334-81.237333-47.445334-74.581334zM292.522667 287.573333h61.44l23.722666 94.72 23.552-94.72H462.506667v155.818667h-38.229334v-118.784l-29.525333 118.784H360.106667l-29.354667-118.784v118.784h-38.229333v-155.818667zM492.202667 287.573333h46.592v117.418667h72.874666v38.4h-119.466666v-155.818667z" fill="#FFFFFF" p-id="1787"></path><path d="M290.816 703.317333c11.093333-0.170667 20.138667-2.56 27.136-7.168s11.605333-10.922667 13.994667-18.773333c2.389333-8.021333 3.584-21.674667 3.754666-40.96 0.170667-19.285333 0.512-32.085333 1.365334-38.229333 1.365333-9.728 3.754667-17.578667 7.338666-23.381334 3.584-5.973333 7.850667-10.581333 13.141334-14.165333 5.12-3.584 11.776-6.144 19.968-8.021333 5.461333-1.194667 14.506667-1.706667 26.965333-1.706667h12.117333v27.306667h-6.656c-15.018667 0-25.088 2.218667-29.866666 6.485333-4.949333 4.266667-7.338667 13.994667-7.338667 29.013333 0 30.378667-0.853333 49.493333-2.389333 57.344-2.56 12.458667-6.997333 21.845333-13.312 28.672-6.314667 6.656-16.213333 12.629333-29.525334 17.92 15.872 5.290667 27.477333 13.482667 34.645334 24.405334s10.752 28.842667 10.752 53.76c0 22.528 0.341333 36.010667 0.853333 40.277333 1.194667 7.850667 4.096 13.312 8.704 16.554667 4.778667 3.072 13.994667 4.608 27.648 4.608h6.656v27.306666h-12.117333c-14.165333 0-24.405333-0.853333-30.72-2.730666-9.216-2.730667-16.896-6.997333-23.04-12.970667-6.144-5.973333-10.069333-13.482667-11.776-22.698667-1.877333-9.216-2.730667-24.064-2.901334-44.885333-0.170667-20.821333-1.365333-35.157333-3.754666-43.178667-2.389333-8.021333-6.997333-14.336-13.994667-18.944-6.997333-4.608-16.042667-6.997333-27.136-7.338666v-28.501334h-0.512zM785.066667 658.261333H487.082667c-15.701333 0-28.330667-12.8-28.330667-28.330666V624.64c0-15.701333 12.8-28.330667 28.330667-28.330667H785.066667c15.701333 0 28.330667 12.8 28.330666 28.330667v5.290667c0.170667 15.701333-12.629333 28.330667-28.330666 28.330666z" fill="#4191FB" p-id="1788"></path><path d="M785.066667 769.877333H487.082667c-15.701333 0-28.330667-12.8-28.330667-28.330666v-5.290667c0-15.701333 12.8-28.330667 28.330667-28.330667H785.066667c15.701333 0 28.330667 12.8 28.330666 28.330667v5.290667c0.170667 15.530667-12.629333 28.330667-28.330666 28.330666z" fill="#4191FB" p-id="1789"></path><path d="M785.066667 881.322667H487.082667c-15.701333 0-28.330667-12.8-28.330667-28.330667v-5.290667c0-15.701333 12.8-28.330667 28.330667-28.330666H785.066667c15.701333 0 28.330667 12.8 28.330666 28.330666v5.290667c0.170667 15.701333-12.629333 28.330667-28.330666 28.330667z" fill="#4191FB" p-id="1790"></path></svg>