<?xml version="1.0" standalone="no"?><!DOCTYPE svg PUBLIC "-//W3C//DTD SVG 1.1//EN" "http://www.w3.org/Graphics/SVG/1.1/DTD/svg11.dtd"><svg t="1630074754650" class="icon" viewBox="0 0 1024 1024" version="1.1" xmlns="http://www.w3.org/2000/svg" p-id="1883" xmlns:xlink="http://www.w3.org/1999/xlink" width="200" height="200"><defs><style type="text/css"></style></defs><path d="M663 496.17V307.31a50.48 50.48 0 0 0-50.48-50.48H506a50.48 50.48 0 0 0-50.47 50.48v188.86h-94.39c-29.83 0-44.14 36.65-22.14 56.83l186.11 171.16a50.48 50.48 0 0 0 68.33 0L779.57 553c22-20.19 7.67-56.84-22.16-56.84z" fill="#E9F1FF" p-id="1884"></path><path d="M762.35 888.14H261.41c-73.63 0-133.54-60.42-133.54-134.69v-93.59a32 32 0 0 1 64 0v93.59c0 39 31.2 70.69 69.54 70.69h500.94c38.34 0 69.54-31.71 69.54-70.69v-93.59a32 32 0 0 1 64 0v93.59c0 74.27-59.89 134.69-133.54 134.69z" fill="#2C5CCB" p-id="1885"></path><path d="M512 752.8a94 94 0 0 1-63.81-24.88l-229.6-211.13a72.38 72.38 0 0 1 49-125.66H352v-201a94.38 94.38 0 0 1 94.27-94.27h131.46A94.38 94.38 0 0 1 672 190.14v201h84.42a72.38 72.38 0 0 1 49 125.66L575.81 727.92A94 94 0 0 1 512 752.8zM267.58 455.13a8.38 8.38 0 0 0-5.67 14.55l229.6 211.13a30.44 30.44 0 0 0 41 0l229.6-211.13a8.38 8.38 0 0 0-5.67-14.55H640a32 32 0 0 1-32-32v-233a30.31 30.31 0 0 0-30.27-30.27H446.27A30.31 30.31 0 0 0 416 190.14v233a32 32 0 0 1-32 32z" fill="#2C5CCB" p-id="1886"></path></svg>