<?xml version="1.0" standalone="no"?><!DOCTYPE svg PUBLIC "-//W3C//DTD SVG 1.1//EN" "http://www.w3.org/Graphics/SVG/1.1/DTD/svg11.dtd"><svg t="1630074741027" class="icon" viewBox="0 0 1024 1024" version="1.1" xmlns="http://www.w3.org/2000/svg" p-id="1319" xmlns:xlink="http://www.w3.org/1999/xlink" width="200" height="200"><defs><style type="text/css"></style></defs><path d="M168 372.38m124 0l440.01 0q124 0 124 124l0 158.84q0 124-124 124l-440.01 0q-124 0-124-124l0-158.84q0-124 124-124Z" fill="#E9F1FF" p-id="1320"></path><path d="M808 879.8H216c-83.81 0-152-68.19-152-152v-304c0-83.82 68.19-152 152-152h592c83.81 0 152 68.18 152 152v304c0 83.81-68.19 152-152 152z m-592-544a88.1 88.1 0 0 0-88 88v304a88.1 88.1 0 0 0 88 88h592a88.1 88.1 0 0 0 88-88v-304a88.1 88.1 0 0 0-88-88z" fill="#2C5CCB" p-id="1321"></path><path d="M736 309.91a32 32 0 0 1-32-32A89 89 0 0 0 615.11 189H408.89A89 89 0 0 0 320 277.91a32 32 0 1 1-64 0C256 193.61 324.59 125 408.89 125h206.22C699.42 125 768 193.61 768 277.91a32 32 0 0 1-32 32zM914.8 551.88H109.2a32 32 0 0 1 0-64h805.6a32 32 0 0 1 0 64z" fill="#2C5CCB" p-id="1322"></path><path d="M352 430.35m96 0l128 0q96 0 96 96l0 0q0 96-96 96l-128 0q-96 0-96-96l0 0q0-96 96-96Z" fill="#E9F1FF" p-id="1323"></path><path d="M576 654.35H448a128 128 0 0 1 0-256h128a128 128 0 0 1 0 256z m-128-192a64 64 0 0 0 0 128h128a64 64 0 0 0 0-128z" fill="#2C5CCB" p-id="1324"></path></svg>