<?xml version="1.0" standalone="no"?><!DOCTYPE svg PUBLIC "-//W3C//DTD SVG 1.1//EN" "http://www.w3.org/Graphics/SVG/1.1/DTD/svg11.dtd"><svg t="1630074835174" class="icon" viewBox="0 0 1024 1024" version="1.1" xmlns="http://www.w3.org/2000/svg" p-id="3570" xmlns:xlink="http://www.w3.org/1999/xlink" width="200" height="200"><defs><style type="text/css"></style></defs><path d="M486.879 312.653l187.91 0.361a80 80 0 0 1 79.845 80.154l-0.105 54.77a267.84 267.84 0 0 1-268.383 267.295 80 80 0 0 1-79.847-80.154l0.466-242.62a80 80 0 0 1 80.154-79.845z" fill="#E9F1FF" p-id="3571"></path><path d="M511.81 735.78h-0.39a287.41 287.41 0 0 1-287-288.07L224.8 272a112.15 112.15 0 0 1 112-111.73h0.15l350.82 0.46a112 112 0 0 1 111.84 112.2L799.2 449a287.41 287.41 0 0 1-287.39 286.78z m-175-511.56a48.06 48.06 0 0 0-48 47.88l-0.41 175.76a223.41 223.41 0 0 0 223.1 223.92h0.3a223.41 223.41 0 0 0 223.4-222.89l0.41-176.11a48 48 0 0 0-47.93-48.1l-350.82-0.46zM767.2 449z" fill="#2C5CCB" p-id="3572"></path><path d="M511.66 868a32 32 0 0 1-32-32V703.67a32 32 0 1 1 64 0V836a32 32 0 0 1-32 32z" fill="#2C5CCB" p-id="3573"></path><path d="M769 895.52H257a32 32 0 0 1 0-64h512a32 32 0 0 1 0 64zM256.05 570.8h-48a112.12 112.12 0 0 1-112-112v-32a112.12 112.12 0 0 1 112-112h48a32 32 0 0 1 32 32v192a32 32 0 0 1-32 32z m-48-192a48.05 48.05 0 0 0-48 48v32a48.05 48.05 0 0 0 48 48h16v-128zM816.15 570.8h-48a32 32 0 0 1-32-32v-192a32 32 0 0 1 32-32h48a112.12 112.12 0 0 1 112 112v32a112.12 112.12 0 0 1-112 112z m-16-64h16a48.05 48.05 0 0 0 48-48v-32a48.05 48.05 0 0 0-48-48h-16zM513 612.82a32 32 0 0 1 0-64 106 106 0 0 0 105.86-105.89 32 32 0 1 1 64 0c0 93.68-76.22 169.89-169.86 169.89z" fill="#2C5CCB" p-id="3574"></path></svg>