<?xml version="1.0" standalone="no"?><!DOCTYPE svg PUBLIC "-//W3C//DTD SVG 1.1//EN" "http://www.w3.org/Graphics/SVG/1.1/DTD/svg11.dtd"><svg t="1630074761195" class="icon" viewBox="0 0 1024 1024" version="1.1" xmlns="http://www.w3.org/2000/svg" p-id="2164" xmlns:xlink="http://www.w3.org/1999/xlink" width="200" height="200"><defs><style type="text/css"></style></defs><path d="M282.43 565.58m120 0l293.71 0q120 0 120 120l0 70.14q0 120-120 120l-293.71 0q-120 0-120-120l0-70.14q0-120 120-120Z" fill="#E9F1FF" p-id="2165"></path><path d="M512.21 459.91c-100 0-181.39-81.37-181.39-181.39S412.19 97.13 512.21 97.13 693.6 178.5 693.6 278.52s-81.37 181.39-181.39 181.39z m0-298.78A117.39 117.39 0 1 0 629.6 278.52a117.52 117.52 0 0 0-117.39-117.39zM512.28 629.06l-49 122.34a27.39 27.39 0 0 0 6.06 29.54l23.59 23.59a27.37 27.37 0 0 0 38.71 0l23.59-23.59a27.39 27.39 0 0 0 6.06-29.54z" fill="#2C5CCB" p-id="2166"></path><path d="M542 667.6h-59.45a16.9 16.9 0 0 1-16.39-12.8l-8.06-32.24a16.9 16.9 0 0 1 16.4-21h75.57a16.9 16.9 0 0 1 16.4 21l-8.06 32.24A16.9 16.9 0 0 1 542 667.6zM783.7 896.35a86.39 86.39 0 0 1-43.2-11.54l-56.44-32.59a86.64 86.64 0 0 1-43.21-74.83v-65.17a86.66 86.66 0 0 1 43.21-74.84l56.44-32.58a86.63 86.63 0 0 1 86.41 0l56.44 32.58a86.66 86.66 0 0 1 43.21 74.84v65.17a86.64 86.64 0 0 1-43.21 74.83l-56.44 32.59a86.43 86.43 0 0 1-43.21 11.54z m0-239.12a22.44 22.44 0 0 0-11.21 3l-56.44 32.59a22.48 22.48 0 0 0-11.21 19.41v65.17a22.48 22.48 0 0 0 11.21 19.41l56.44 32.58a22.47 22.47 0 0 0 22.41 0l56.44-32.58a22.48 22.48 0 0 0 11.21-19.41v-65.18a22.48 22.48 0 0 0-11.21-19.41l-56.44-32.59a22.43 22.43 0 0 0-11.19-2.99z" fill="#2C5CCB" p-id="2167"></path><path d="M176.8 897.14a32 32 0 0 1-32-32V742.63a243.52 243.52 0 0 1 243.52-243.51h249a243.23 243.23 0 0 1 76 12.11 32 32 0 1 1-20 60.8 179.57 179.57 0 0 0-56.06-8.91h-249c-99 0-179.52 80.52-179.52 179.51v122.51a32 32 0 0 1-31.94 32z" fill="#2C5CCB" p-id="2168"></path></svg>