<?xml version="1.0" standalone="no"?><!DOCTYPE svg PUBLIC "-//W3C//DTD SVG 1.1//EN" "http://www.w3.org/Graphics/SVG/1.1/DTD/svg11.dtd"><svg t="1630074830249" class="icon" viewBox="0 0 1024 1024" version="1.1" xmlns="http://www.w3.org/2000/svg" p-id="3292" xmlns:xlink="http://www.w3.org/1999/xlink" width="200" height="200"><defs><style type="text/css"></style></defs><path d="M526 906V496.46a73.2 73.2 0 0 1 36.1-63.09l97.79-57.48a73.17 73.17 0 0 1 74.17 0l97.8 57.48a73.19 73.19 0 0 1 36.09 63.09V906z" fill="#E9F1FF" p-id="3293"></path><path d="M557.9 938H226.1a82.19 82.19 0 0 1-82.1-82.1V290.83a106.28 106.28 0 0 1 45.64-87.26l141.76-98.45a106.69 106.69 0 0 1 121.19 0l141.77 98.45A106.27 106.27 0 0 1 640 290.83V855.9a82.19 82.19 0 0 1-82.1 82.1zM392 150.18a42.18 42.18 0 0 0-24.09 7.51l-141.77 98.45A42.25 42.25 0 0 0 208 290.83V855.9a18.12 18.12 0 0 0 18.1 18.1h331.8a18.12 18.12 0 0 0 18.1-18.1V290.83a42.24 42.24 0 0 0-18.14-34.69l-141.77-98.45a42.23 42.23 0 0 0-24.09-7.51z" fill="#2C5CCB" p-id="3294"></path><path d="M882.68 927.64a32 32 0 0 1-32-32v-423.1a47.85 47.85 0 0 0-21.77-40.2L541.8 245a32 32 0 0 1 35-53.6l287.09 187.34a111.66 111.66 0 0 1 50.79 93.8v423.1a32 32 0 0 1-32 32zM472.81 467.86H302a32 32 0 0 1 0-64h170.81a32 32 0 1 1 0 64zM472.81 660.29H302a32 32 0 0 1 0-64h170.81a32 32 0 0 1 0 64z" fill="#2C5CCB" p-id="3295"></path><path d="M745.22 773.5a32 32 0 0 1-32-32V547.42a32 32 0 1 1 64 0V741.5a32 32 0 0 1-32 32z" fill="#2C5CCB" p-id="3296"></path></svg>