<?xml version="1.0" standalone="no"?><!DOCTYPE svg PUBLIC "-//W3C//DTD SVG 1.1//EN" "http://www.w3.org/Graphics/SVG/1.1/DTD/svg11.dtd"><svg t="1630074817159" class="icon" viewBox="0 0 1024 1024" version="1.1" xmlns="http://www.w3.org/2000/svg" p-id="2728" xmlns:xlink="http://www.w3.org/1999/xlink" width="200" height="200"><defs><style type="text/css"></style></defs><path d="M964 170.29s-25.7 428.87-396.88 396.83C537.32 169 964 170.29 964 170.29z" fill="#E9F1FF" p-id="2729"></path><path d="M966.27 915.57S537.4 889.92 569.44 518.74c398.12-29.8 396.83 396.83 396.83 396.83z" fill="#E9F1FF" p-id="2730"></path><path d="M550.88 545.71q-20.39 0-41.63-1.83a32 32 0 0 1-29.16-29.49C471 392.24 501.4 292.61 570.6 218.26c29.24-31.41 65.4-58.07 107.52-79.26 33.12-16.66 70-30 109.57-39.56 67.1-16.27 119.06-16.28 121.23-16.29a32 32 0 0 1 31.85 33.91c-0.14 2.28-3.58 56.65-24.2 126-12.17 40.94-27.87 78.73-46.66 112.43C846 398.35 817 434.66 783.73 463.42c-63.32 54.7-141.5 82.29-232.85 82.29z m-8.29-64.1c38.07 0.77 73.39-3.94 105.33-14.06a265.61 265.61 0 0 0 93.72-52.34c62.84-54.15 96.19-132.55 113.1-188.78a604.77 604.77 0 0 0 17.64-76.84A541.13 541.13 0 0 0 801 162.08c-53.78 13.23-129.32 41.33-183.84 100.06C566 317.3 541 391 542.59 481.61z" fill="#2C5CCB" p-id="2731"></path><path d="M115.55 940.77h-0.16a32 32 0 0 1-31.85-33.91c0.22-3.56 5.67-88.44 43.83-181.94 22.78-55.78 52.55-103.17 88.51-140.86 45.8-48 101.44-80.1 165.37-95.38a388.54 388.54 0 0 1 74.75-10.1 471.07 471.07 0 0 1 59 1.49 32 32 0 0 1 29.16 29.49c9.14 122.14-21.32 221.77-90.52 296.13-29.24 31.41-65.41 58.07-107.51 79.24-33.13 16.65-70 30-109.58 39.56-65.82 15.97-117.12 16.28-121 16.28z m-0.07-32z m358-366.53q-7.54 0-14.89 0.29a325.18 325.18 0 0 0-62.43 8.39c-51.45 12.3-96.3 38.09-133.32 76.65-30.34 31.62-55.76 72-75.54 120-20.17 48.82-30.3 95.87-35.3 126.79a542.54 542.54 0 0 0 71.33-12.5c53.78-13.23 129.33-41.32 183.84-100.06 51.2-55.15 76.24-128.89 74.6-219.47q-4.21-0.09-8.31-0.09zM909 940.64h-1.91c-2.52-0.15-62.43-4-136.78-27.53-44-13.93-84-32-119.11-53.58-44.68-27.53-81.37-61-109-99.47a32 32 0 1 1 52-37.37c22.55 31.35 52.8 58.9 89.89 81.88 30.4 18.84 65.43 34.67 104.13 47.05a600 600 0 0 0 86.43 20.62 537.63 537.63 0 0 0-17.42-89.89c-11.29-39.42-26.73-74.85-45.89-105.31-23.37-37.16-52.44-67-86.4-88.8a32 32 0 0 1 34.54-53.88c42.25 27.08 78.13 63.94 106.64 109.58 22.4 35.83 40.28 77.09 53.16 122.63C940.9 843.37 941 906.11 941 908.74a32 32 0 0 1-32 31.9zM282.86 495.13a31.81 31.81 0 0 1-17.16-5c-42.42-27-78.45-63.88-107.08-109.56-22.49-35.87-40.45-77.19-53.38-122.81-21.83-77-21.89-139.9-21.88-142.54a32 32 0 0 1 33.91-31.84c2.53 0.15 62.83 4 137.52 27.76 44.16 14.06 84.39 32.26 119.55 54.08 44.8 27.8 81.49 61.59 109.06 100.43a32 32 0 1 1-52.19 37C356.17 197 216 162.44 149.78 151.75a538.58 538.58 0 0 0 17.5 90.18c11.34 39.48 26.84 75 46.07 105.44 23.46 37.18 52.64 67.05 86.74 88.77a32 32 0 0 1-17.23 59z" fill="#2C5CCB" p-id="2732"></path></svg>