<?xml version="1.0" standalone="no"?><!DOCTYPE svg PUBLIC "-//W3C//DTD SVG 1.1//EN" "http://www.w3.org/Graphics/SVG/1.1/DTD/svg11.dtd"><svg t="1630074822237" class="icon" viewBox="0 0 1024 1024" version="1.1" xmlns="http://www.w3.org/2000/svg" p-id="2871" xmlns:xlink="http://www.w3.org/1999/xlink" width="200" height="200"><defs><style type="text/css"></style></defs><path d="M904.38 310.67S521.2 415 477.89 884c245.39 23.17 428.81-197.36 426.49-319s0-254.33 0-254.33z" fill="#E9F1FF" p-id="2872"></path><path d="M512 930.07a478.51 478.51 0 0 1-173-32 453.26 453.26 0 0 1-142.26-87.42c-41.43-37.66-74-81.53-96.84-130.38A376.15 376.15 0 0 1 64 519.9v-374a32 32 0 0 1 64 0v374a312.74 312.74 0 0 0 29.81 133.29c19.23 41.13 46.78 78.18 81.91 110.11A389.41 389.41 0 0 0 362 838.38a420.07 420.07 0 0 0 300 0 389.41 389.41 0 0 0 122.26-75.08c35.13-31.93 62.68-69 81.91-110.11A312.74 312.74 0 0 0 896 519.9v-296a32 32 0 1 1 64 0v296a376.15 376.15 0 0 1-35.83 160.38c-22.83 48.85-55.41 92.72-96.84 130.38a453.26 453.26 0 0 1-142.26 87.42A478.51 478.51 0 0 1 512 930.07z" fill="#2C5CCB" p-id="2873"></path><path d="M655.22 895.3a32 32 0 0 1-32-32c0-157.74-27.87-291.83-82.84-398.54C497 380.58 436.6 313 360.82 263.79c-67.9-44.06-136.06-65.07-181.28-74.93-49.49-10.79-83.21-11-83.54-11a32 32 0 0 1 0-64c2.93 0 57.54 0.3 132.57 21.29a616.7 616.7 0 0 1 126 50.63 574.17 574.17 0 0 1 133.6 99.13c60.61 60.53 108.11 135.52 141.19 222.87 38.39 101.37 57.85 221 57.85 355.53a32 32 0 0 1-31.99 31.99z" fill="#2C5CCB" p-id="2874"></path><path d="M587.74 459.79A32 32 0 0 1 561 410.22c29.09-44.31 66.4-83.38 110.88-116.13 35.28-26 75.1-48 118.36-65.55 73.57-29.79 131.89-36.25 134.33-36.51a32 32 0 0 1 6.84 63.63c-0.53 0.06-53.37 6.1-119 32.94-38 15.55-72.86 35-103.57 57.73-37.92 28.08-69.68 61.39-94.39 99a32 32 0 0 1-26.71 14.46zM407.76 715.73a32 32 0 0 1-40.36 20.47C238.84 694.16 199.18 556.78 197.55 551a32 32 0 1 1 61.62-17.23 0.64 0.64 0 0 1 0 0.07c0.72 2.4 9.15 30 29 60.67 26.33 40.77 59.67 68 99.09 80.87a32 32 0 0 1 20.5 40.35z" fill="#2C5CCB" p-id="2875"></path></svg>