<?xml version="1.0" standalone="no"?><!DOCTYPE svg PUBLIC "-//W3C//DTD SVG 1.1//EN" "http://www.w3.org/Graphics/SVG/1.1/DTD/svg11.dtd"><svg t="1630074738370" class="icon" viewBox="0 0 1024 1024" version="1.1" xmlns="http://www.w3.org/2000/svg" p-id="1179" xmlns:xlink="http://www.w3.org/1999/xlink" width="200" height="200"><defs><style type="text/css"></style></defs><path d="M381.15 658.12V905.8s348.23 69.39 435.27-94.52v-213c0-36.32-37.55-60.5-70.62-45.46l-123.87 56.26A248.87 248.87 0 0 1 434 620.26a40 40 0 0 0-52.85 37.86z" fill="#E9F1FF" p-id="1180"></path><path d="M512 580.41a210.42 210.42 0 0 1-85.72-18.22L65.71 401.41a70.19 70.19 0 0 1 0-128.21l360.57-160.79a210.78 210.78 0 0 1 171.44 0L958.29 273.2a70.19 70.19 0 0 1 0 128.21L597.72 562.19A210.42 210.42 0 0 1 512 580.41z m-59.65-76.67a146.62 146.62 0 0 0 119.3 0L932.23 343a6.2 6.2 0 0 0 0-11.31L571.65 170.87a146.62 146.62 0 0 0-119.3 0L91.78 331.65a6.19 6.19 0 0 0 0 11.31z" fill="#2C5CCB" p-id="1181"></path><path d="M820.64 690a32 32 0 0 1-32-32V461.86l-276.23-89.63a32 32 0 0 1 19.75-60.87l298.36 96.8a32 32 0 0 1 22.12 30.44V658a32 32 0 0 1-32 32zM511.68 934.43c-86 0-167.24-12.85-228.88-36.17-32-12.09-57.51-26.59-76-43.09C178.05 829.41 172 803.33 172 786V546.21a32 32 0 0 1 64 0V786c0 9.7 14.63 31.66 69.44 52.4 54.59 20.66 127.83 32 206.24 32s151.66-11.37 206.24-32c54.82-20.74 69.45-42.7 69.45-52.4v-9.79a32 32 0 0 1 64 0V786c0 17.33-6 43.41-34.84 69.17-18.45 16.5-44 31-76 43.09-61.6 23.32-142.89 36.17-228.85 36.17z" fill="#2C5CCB" p-id="1182"></path></svg>