<?xml version="1.0" standalone="no"?><!DOCTYPE svg PUBLIC "-//W3C//DTD SVG 1.1//EN" "http://www.w3.org/Graphics/SVG/1.1/DTD/svg11.dtd"><svg t="1630074827703" class="icon" viewBox="0 0 1024 1024" version="1.1" xmlns="http://www.w3.org/2000/svg" p-id="3151" xmlns:xlink="http://www.w3.org/1999/xlink" width="200" height="200"><defs><style type="text/css"></style></defs><path d="M420.28 906V457.77a80.11 80.11 0 0 1 39.5-69l107-62.91a80.07 80.07 0 0 1 81.17 0l107 62.91a80.11 80.11 0 0 1 39.5 69V906z" fill="#E9F1FF" p-id="3152"></path><path d="M288 938H188a92.08 92.08 0 0 1-92-92V518a92.08 92.08 0 0 1 92-92h100zM188 490a28 28 0 0 0-28 28v328a28 28 0 0 0 28 28h36V490zM836 938H736V426h100a92.08 92.08 0 0 1 92 92v328a92.08 92.08 0 0 1-92 92z m-36-64h36a28 28 0 0 0 28-28V518a28 28 0 0 0-28-28h-36z" fill="#2C5CCB" p-id="3153"></path><path d="M800 938H224V297.89a112.49 112.49 0 0 1 55.42-96.7L455.34 98.11a112.18 112.18 0 0 1 113.32 0l175.92 103.08a112.47 112.47 0 0 1 55.42 96.7z m-512-64h448V297.89a48.26 48.26 0 0 0-23.77-41.48L536.31 153.33a48.17 48.17 0 0 0-48.62 0L311.77 256.41A48.26 48.26 0 0 0 288 297.89z" fill="#2C5CCB" p-id="3154"></path><path d="M512 525.33c-79.4 0-144-64.6-144-144s64.6-144 144-144 144 64.59 144 144-64.6 144-144 144z m0-224a80 80 0 1 0 80 80 80.09 80.09 0 0 0-80-80zM664 938H360V718.26A100.38 100.38 0 0 1 460.26 618h103.48A100.38 100.38 0 0 1 664 718.26z m-240-64h176V718.26A36.31 36.31 0 0 0 563.74 682H460.26A36.31 36.31 0 0 0 424 718.26z" fill="#2C5CCB" p-id="3155"></path></svg>