<?xml version="1.0" standalone="no"?><!DOCTYPE svg PUBLIC "-//W3C//DTD SVG 1.1//EN" "http://www.w3.org/Graphics/SVG/1.1/DTD/svg11.dtd"><svg t="1630074775626" class="icon" viewBox="0 0 1024 1024" version="1.1" xmlns="http://www.w3.org/2000/svg" p-id="2447" xmlns:xlink="http://www.w3.org/1999/xlink" width="200" height="200"><defs><style type="text/css"></style></defs><path d="M409.17 707.09h446.16a23.53 23.53 0 0 1 23.53 23.53v90a92.68 92.68 0 0 1-92.68 92.68h-377a92.68 92.68 0 0 1-92.68-92.68v-20.85a92.68 92.68 0 0 1 92.68-92.68z" fill="#E9F1FF" p-id="2448"></path><path d="M799.2 943H224.8a81.7 81.7 0 0 1-78.18-57.15L98 743.31c-0.09-0.26-0.17-0.52-0.25-0.78A82 82 0 0 1 176.09 636h671.82a82.06 82.06 0 0 1 78.33 106.53c-0.09 0.26-0.17 0.52-0.26 0.78l-48.6 142.55A81.69 81.69 0 0 1 799.2 943zM158.76 723.14l48.55 142.41c0.09 0.26 0.17 0.52 0.26 0.78A18 18 0 0 0 224.8 879h574.4a18 18 0 0 0 17.23-12.67l0.26-0.78 48.55-142.41A18.06 18.06 0 0 0 847.91 700H176.09a18.06 18.06 0 0 0-17.33 23.14zM512 397c-88.22 0-160-71.78-160-160S423.78 77 512 77s160 71.78 160 160-71.78 160-160 160z m0-256a96 96 0 1 0 96 96 96.11 96.11 0 0 0-96-96z" fill="#2C5CCB" p-id="2449"></path><path d="M800 691.78a32 32 0 0 1-32-32c0-47.76-15.13-92.4-42.6-125.7-26-31.52-60-48.87-95.83-48.87H394.43c-35.8 0-69.83 17.35-95.83 48.87-27.47 33.3-42.6 77.92-42.6 125.7a32 32 0 0 1-64 0c0-62.59 20.33-121.7 57.23-166.43 18.44-22.36 40.06-40 64.26-52.38a175.88 175.88 0 0 1 80.94-19.76h235.14A175.88 175.88 0 0 1 710.51 441c24.2 12.4 45.81 30 64.26 52.38 36.9 44.7 57.23 103.81 57.23 166.4a32 32 0 0 1-32 32z" fill="#2C5CCB" p-id="2450"></path><path d="M511.72 522.44l-33.12 83.44a12.57 12.57 0 0 0 2.82 13.48l22 22a12.49 12.49 0 0 0 17.65 0.08l21.8-21.8a12.42 12.42 0 0 0 2.7-13.46z" fill="#2C5CCB" p-id="2451"></path><path d="M531.36 545.69h-38.72a11 11 0 0 1-10.64-8.33l-5.24-21a11 11 0 0 1 10.67-13.67h49.22a11 11 0 0 1 10.67 13.67l-5.24 21a11 11 0 0 1-10.72 8.33z" fill="#2C5CCB" p-id="2452"></path></svg>