<?xml version="1.0" standalone="no"?><!DOCTYPE svg PUBLIC "-//W3C//DTD SVG 1.1//EN" "http://www.w3.org/Graphics/SVG/1.1/DTD/svg11.dtd"><svg t="1630074735679" class="icon" viewBox="0 0 1024 1024" version="1.1" xmlns="http://www.w3.org/2000/svg" p-id="1040" xmlns:xlink="http://www.w3.org/1999/xlink" width="200" height="200"><defs><style type="text/css"></style></defs><path d="M812.35 724.75H365.5c-50 0-90.58-42.25-90.58-94.37V366.16c0-52.12 40.55-94.36 90.58-94.36h446.85c50 0 90.58 42.24 90.58 94.36v264.22c0 52.12-40.55 94.37-90.58 94.37z" fill="#E9F1FF" p-id="1041"></path><path d="M788 784H236c-83.81 0-152-65.2-152-145.33V281.33C84 201.2 152.19 136 236 136h552c83.81 0 152 65.2 152 145.33v357.34C940 718.8 871.81 784 788 784zM236 200c-48.52 0-88 36.49-88 81.33v357.34c0 44.84 39.48 81.33 88 81.33h552c48.52 0 88-36.49 88-81.33V281.33c0-44.84-39.48-81.33-88-81.33zM833.13 896H191a32 32 0 1 1 0-64h642.13a32 32 0 1 1 0 64z" fill="#2C5CCB" p-id="1042"></path><path d="M733 527.09H285a32 32 0 1 1 0-64h448a32 32 0 0 1 0 64z" fill="#2C5CCB" p-id="1043"></path><path d="M734.54 525.88a31.84 31.84 0 0 1-16-4.29l-221.7-128a32 32 0 1 1 32-55.43l221.7 128a32 32 0 0 1-16 59.72z" fill="#2C5CCB" p-id="1044"></path></svg>