<?xml version="1.0" standalone="no"?><!DOCTYPE svg PUBLIC "-//W3C//DTD SVG 1.1//EN" "http://www.w3.org/Graphics/SVG/1.1/DTD/svg11.dtd"><svg t="1630074843912" class="icon" viewBox="0 0 1024 1024" version="1.1" xmlns="http://www.w3.org/2000/svg" p-id="3990" xmlns:xlink="http://www.w3.org/1999/xlink" width="200" height="200"><defs><style type="text/css"></style></defs><path d="M846.52 118.09m0 94.06l0 395.93q0 94.06-94.06 94.06l-226.14 0q-94.06 0-94.06-94.06l0-395.93q0-94.06 94.06-94.06l226.14 0q94.06 0 94.06 94.06Z" fill="#E9F1FF" p-id="3991"></path><path d="M712 928H312c-83.81 0-152-68.19-152-152V248c0-83.81 68.19-152 152-152h400c83.81 0 152 68.19 152 152v528c0 83.81-68.19 152-152 152zM312 160a88.1 88.1 0 0 0-88 88v528a88.1 88.1 0 0 0 88 88h400a88.1 88.1 0 0 0 88-88V248a88.1 88.1 0 0 0-88-88z" fill="#2C5CCB" p-id="3992"></path><path d="M325.22 146.75h64v734.6h-64zM516.49 417.88a52.34 52.34 0 0 1-22.06-4.88 51.54 51.54 0 0 1-30.11-47.18v-219a32 32 0 0 1 32-32H685.9a32 32 0 0 1 32 32v219a52 52 0 0 1-85.58 39.75l-41.21-34.78-41.21 34.74a51.69 51.69 0 0 1-33.41 12.35z m157.08-61.29zM528.32 178.75V340l29.24-24.67a51.9 51.9 0 0 1 67.11 0L653.9 340V178.75z" fill="#2C5CCB" p-id="3993"></path></svg>