<?xml version="1.0" standalone="no"?><!DOCTYPE svg PUBLIC "-//W3C//DTD SVG 1.1//EN" "http://www.w3.org/Graphics/SVG/1.1/DTD/svg11.dtd"><svg t="1630074751412" class="icon" viewBox="0 0 1024 1024" version="1.1" xmlns="http://www.w3.org/2000/svg" p-id="1743" xmlns:xlink="http://www.w3.org/1999/xlink" width="200" height="200"><defs><style type="text/css"></style></defs><path d="M307.23 450.74m120 0l351.79 0q120 0 120 120l0 146.46q0 120-120 120l-351.79 0q-120 0-120-120l0-146.46q0-120 120-120Z" fill="#E9F1FF" p-id="1744"></path><path d="M808 864H216c-83.81 0-152-68.19-152-152V312c0-83.81 68.19-152 152-152h592c83.81 0 152 68.19 152 152v400c0 83.81-68.19 152-152 152zM216 224a88.1 88.1 0 0 0-88 88v400a88.1 88.1 0 0 0 88 88h592a88.1 88.1 0 0 0 88-88V312a88.1 88.1 0 0 0-88-88z" fill="#2C5CCB" p-id="1745"></path><path d="M484.76 592h-200a92.1 92.1 0 0 1-92-92V396a92.1 92.1 0 0 1 92-92h200a92.1 92.1 0 0 1 92 92v104a92.1 92.1 0 0 1-92 92z m-200-224a28 28 0 0 0-28 28v104a28 28 0 0 0 28 28h200a28 28 0 0 0 28-28V396a28 28 0 0 0-28-28zM799.38 384h-128a32 32 0 0 1 0-64h128a32 32 0 1 1 0 64zM799.38 544.82h-0.25l-128-1a32 32 0 0 1 0.24-64h0.26l128 1a32 32 0 0 1-0.25 64zM799.72 735.88h-575a32 32 0 1 1 0-64h575a32 32 0 0 1 0 64z" fill="#2C5CCB" p-id="1746"></path></svg>