<?xml version="1.0" standalone="no"?><!DOCTYPE svg PUBLIC "-//W3C//DTD SVG 1.1//EN" "http://www.w3.org/Graphics/SVG/1.1/DTD/svg11.dtd"><svg t="1630074838261" class="icon" viewBox="0 0 1024 1024" version="1.1" xmlns="http://www.w3.org/2000/svg" p-id="3713" xmlns:xlink="http://www.w3.org/1999/xlink" width="200" height="200"><defs><style type="text/css"></style></defs><path d="M350.17 550s56.69-47.35 167.08-12c139.47 44.67 223.33 64.5 197.57-19.21-25.18-81.79 139 264.38 139 264.38l-43.64 87.43-604 9.24 46.07-112z" fill="#E9F1FF" p-id="3714"></path><path d="M766 914H258c-44.95 0-84.81-23.46-106.63-62.75-21.48-38.68-20.7-84.08 2-121.89L308 395.94V152.57a32 32 0 0 1 32-32h344a32 32 0 0 1 32 32v243.37l154.64 333.42c22.69 37.81 23.47 83.21 2 121.89C850.81 890.54 811 914 766 914zM372 184.57V403a31.94 31.94 0 0 1-3 13.46L210.65 758a33.78 33.78 0 0 1-1.86 3.45A58 58 0 0 0 258 850h508a58 58 0 0 0 49.21-88.6 33.78 33.78 0 0 1-1.86-3.45L655 416.46a31.94 31.94 0 0 1-3-13.46V184.57zM181.62 744.48z" fill="#2C5CCB" p-id="3715"></path><path d="M661.71 312.7h-85.6a32 32 0 0 1 0-64h85.6a32 32 0 0 1 0 64zM661.71 426.47h-85.6a32 32 0 0 1 0-64h85.6a32 32 0 0 1 0 64z" fill="#2C5CCB" p-id="3716"></path></svg>