<?xml version="1.0" standalone="no"?><!DOCTYPE svg PUBLIC "-//W3C//DTD SVG 1.1//EN" "http://www.w3.org/Graphics/SVG/1.1/DTD/svg11.dtd"><svg t="1630074824559" class="icon" viewBox="0 0 1024 1024" version="1.1" xmlns="http://www.w3.org/2000/svg" p-id="3008" xmlns:xlink="http://www.w3.org/1999/xlink" width="200" height="200"><defs><style type="text/css"></style></defs><path d="M811.85 724.75H365c-50 0-90.58-42.25-90.58-94.37V366.16C274.41 314 315 271.8 365 271.8h446.85c50 0 90.58 42.24 90.58 94.36v264.22c0 52.12-40.55 94.37-90.58 94.37z" fill="#E9F1FF" p-id="3009"></path><path d="M787.5 784h-552c-83.82 0-152-65.2-152-145.33V281.33c0-80.13 68.18-145.33 152-145.33h552c83.81 0 152 65.2 152 145.33v357.34c0 80.13-68.19 145.33-152 145.33z m-552-584c-48.53 0-88 36.49-88 81.33v357.34c0 44.84 39.47 81.33 88 81.33h552c48.52 0 88-36.49 88-81.33V281.33c0-44.84-39.48-81.33-88-81.33zM832.62 896H190.53a32 32 0 1 1 0-64h642.09a32 32 0 0 1 0 64z" fill="#2C5CCB" p-id="3010"></path><path d="M703.14 539.21a96 96 0 1 1 96-96 96.11 96.11 0 0 1-96 96z m0-128a32 32 0 1 0 32 32 32 32 0 0 0-32-32zM422.92 411.25A82.28 82.28 0 1 1 505.2 329a82.37 82.37 0 0 1-82.28 82.25z m0-108.56A26.28 26.28 0 1 0 449.2 329a26.31 26.31 0 0 0-26.28-26.31zM350.09 674.29a116 116 0 1 1 116-116 116.11 116.11 0 0 1-116 116z m0-168a52 52 0 1 0 52 52 52 52 0 0 0-52-51.96z" fill="#2C5CCB" p-id="3011"></path><path d="M456.732 383.47l21.037-60.444 174.087 60.59-21.037 60.443zM436.937 507.03l204.352-63.296 18.935 61.134-204.351 63.297z" fill="#2C5CCB" p-id="3012"></path></svg>