<?xml version="1.0" standalone="no"?><!DOCTYPE svg PUBLIC "-//W3C//DTD SVG 1.1//EN" "http://www.w3.org/Graphics/SVG/1.1/DTD/svg11.dtd"><svg t="1630074744430" class="icon" viewBox="0 0 1024 1024" version="1.1" xmlns="http://www.w3.org/2000/svg" p-id="1459" xmlns:xlink="http://www.w3.org/1999/xlink" width="200" height="200"><defs><style type="text/css"></style></defs><path d="M202.3 565.58m120 0l293.71 0q120 0 120 120l0 70.14q0 120-120 120l-293.71 0q-120 0-120-120l0-70.14q0-120 120-120Z" fill="#E9F1FF" p-id="1460"></path><path d="M432.08 459.91c-100 0-181.39-81.37-181.39-181.39S332.06 97.13 432.08 97.13s181.39 81.37 181.39 181.39-81.37 181.39-181.39 181.39z m0-298.78a117.39 117.39 0 1 0 117.39 117.39 117.52 117.52 0 0 0-117.39-117.39zM432.15 629.06l-49 122.34a27.4 27.4 0 0 0 6.05 29.54l23.59 23.59a27.38 27.38 0 0 0 38.72 0l23.59-23.59a27.4 27.4 0 0 0 6-29.54z" fill="#2C5CCB" p-id="1461"></path><path d="M461.88 667.6h-59.46A16.91 16.91 0 0 1 386 654.8l-8-32.24a16.91 16.91 0 0 1 16.4-21h75.58a16.91 16.91 0 0 1 16.4 21l-8.06 32.24a16.9 16.9 0 0 1-16.44 12.8z" fill="#2C5CCB" p-id="1462"></path><path d="M768.35 895.54a32 32 0 0 1-32-32V775c-0.09-1-0.14-2-0.14-3 0-115.3-74.88-209.1-166.91-209.1H294.86c-92 0-166.91 93.8-166.91 209.1v91.58a32 32 0 0 1-64 0V772c0-71.82 23.29-139.59 65.58-190.85 21.05-25.52 45.72-45.63 73.3-59.78a200 200 0 0 1 92-22.47H569.3a200 200 0 0 1 92 22.47c27.59 14.15 52.26 34.26 73.31 59.78 41.67 50.5 64.89 117 65.56 187.67a30.36 30.36 0 0 1 0.16 3.18v91.58a32 32 0 0 1-31.98 31.96zM648.27 470.46a32 32 0 0 1-4.6-63.67 100.93 100.93 0 0 0 20.78-194.26A32 32 0 1 1 687 152.65a164.92 164.92 0 0 1-34 317.46 32.5 32.5 0 0 1-4.73 0.35zM928 859.36a32 32 0 0 1-32-32v-78.63c-0.09-0.94-0.13-1.88-0.13-2.83 0-46.59-14-91-39.57-125-24.16-32.23-56.55-52.33-91.18-56.6a32 32 0 1 1 7.82-63.51c52.07 6.4 99.86 35.42 134.57 81.71 33.2 44.28 51.73 101.12 52.34 160.36q0.15 1.5 0.15 3v81.47a32 32 0 0 1-32 32.03z" fill="#2C5CCB" p-id="1463"></path></svg>