<?xml version="1.0" standalone="no"?><!DOCTYPE svg PUBLIC "-//W3C//DTD SVG 1.1//EN" "http://www.w3.org/Graphics/SVG/1.1/DTD/svg11.dtd"><svg t="1630074771530" class="icon" viewBox="0 0 1024 1024" version="1.1" xmlns="http://www.w3.org/2000/svg" p-id="2305" xmlns:xlink="http://www.w3.org/1999/xlink" width="200" height="200"><defs><style type="text/css"></style></defs><path d="M368.84 301.68m120 0l223.16 0q120 0 120 120l0 354.32q0 120-120 120l-223.16 0q-120 0-120-120l0-354.32q0-120 120-120Z" fill="#E9F1FF" p-id="2306"></path><path d="M712 928H312c-83.81 0-152-68.19-152-152V248c0-83.81 68.19-152 152-152h400c83.81 0 152 68.19 152 152v528c0 83.81-68.19 152-152 152zM312 160a88.1 88.1 0 0 0-88 88v528a88.1 88.1 0 0 0 88 88h400a88.1 88.1 0 0 0 88-88V248a88.1 88.1 0 0 0-88-88z" fill="#2C5CCB" p-id="2307"></path><path d="M609.68 628.32a26 26 0 0 1-11.75-2.81L512 582l-85.93 43.55a26 26 0 0 1-37.44-27.23l14.78-94-68.05-69.62a26 26 0 0 1 14.35-43.84l94.56-15.61 44.73-85.6a26 26 0 0 1 46.1 0l44.68 85.6 94.56 15.61a26 26 0 0 1 14.35 43.84l-68 69.55 14.78 94a26 26 0 0 1-25.69 30zM407.46 434l42.25 43.18a26 26 0 0 1 7.1 22.22l-8.92 56.73 52.36-26.54a26 26 0 0 1 23.5 0l52.36 26.54-8.92-56.73a26 26 0 0 1 7.1-22.22L616.54 434l-58.08-9.58a26 26 0 0 1-18.82-13.62l-27.64-53-27.64 53a26 26 0 0 1-18.82 13.62zM640 791.9H384a32 32 0 0 1 0-64h256a32 32 0 0 1 0 64z" fill="#2C5CCB" p-id="2308"></path></svg>