<?xml version="1.0" standalone="no"?><!DOCTYPE svg PUBLIC "-//W3C//DTD SVG 1.1//EN" "http://www.w3.org/Graphics/SVG/1.1/DTD/svg11.dtd"><svg t="1630074846789" class="icon" viewBox="0 0 1024 1024" version="1.1" xmlns="http://www.w3.org/2000/svg" p-id="4130" xmlns:xlink="http://www.w3.org/1999/xlink" width="200" height="200"><defs><style type="text/css"></style></defs><path d="M319.04 374.57m120 0l365.63 0q120 0 120 120l0 194.91q0 120-120 120l-365.63 0q-120 0-120-120l0-194.91q0-120 120-120Z" fill="#E9F1FF" p-id="4131"></path><path d="M808 864H216c-83.81 0-152-68.19-152-152V312c0-83.81 68.19-152 152-152h592c83.81 0 152 68.19 152 152v400c0 83.81-68.19 152-152 152zM216 224a88.1 88.1 0 0 0-88 88v400a88.1 88.1 0 0 0 88 88h592a88.1 88.1 0 0 0 88-88V312a88.1 88.1 0 0 0-88-88z" fill="#2C5CCB" p-id="4132"></path><path d="M348.17 599c-88.22 0-160-71.78-160-160s71.78-160 160-160 160 71.78 160 160-71.77 160-160 160z m0-256a96 96 0 1 0 96 96 96.11 96.11 0 0 0-96-96z" fill="#2C5CCB" p-id="4133"></path><path d="M250.81 730.2a32 32 0 0 1-32-32V526.87a32 32 0 0 1 64 0v124.06l56-22.43a32 32 0 0 1 24.32 0.22L413.54 650V526.87a32 32 0 0 1 64 0V698.2a32 32 0 0 1-44.44 29.48l-82.68-34.88-87.72 35.11a32.1 32.1 0 0 1-11.89 2.29zM786.73 440H602.64a32 32 0 0 1 0-64h184.09a32 32 0 0 1 0 64zM786.73 610H602.64a32 32 0 1 1 0-64h184.09a32 32 0 0 1 0 64z" fill="#2C5CCB" p-id="4134"></path></svg>