<?xml version="1.0" standalone="no"?><!DOCTYPE svg PUBLIC "-//W3C//DTD SVG 1.1//EN" "http://www.w3.org/Graphics/SVG/1.1/DTD/svg11.dtd"><svg t="1628664959297" class="icon" viewBox="0 0 1024 1024" version="1.1" xmlns="http://www.w3.org/2000/svg" p-id="5847" xmlns:xlink="http://www.w3.org/1999/xlink" width="128" height="128"><defs><style type="text/css"></style></defs><path d="M329.163263 56.222297h146.26939v45.709184H329.163263zM475.432653 803.453186H60.736079c-13.255663 0-23.997322-10.741658-23.997322-23.997322V80.219618c0-13.255663 10.741658-23.997322 23.997322-23.997321H182.893873v45.709184H82.447941V757.744002H475.432653v45.709184zM767.057248 512.171409h-45.709184v-410.239928h-99.303203v-45.709184h121.015065c13.255663 0 23.997322 10.741658 23.997322 23.997321v431.951791zM747.402299 1022.742997c-132.328088 0-239.973217-107.645129-239.973217-239.973217s107.645129-239.973217 239.973217-239.973217 239.973217 107.645129 239.973217 239.973217-107.759402 239.973217-239.973217 239.973217z m0-434.23725c-107.073764 0-194.264033 87.190269-194.264033 194.264033s87.190269 194.264033 194.264033 194.264033 194.264033-87.190269 194.264033-194.264033-87.190269-194.264033-194.264033-194.264033z" p-id="5848"></path><path d="M231.231336 286.253766h368.873117v45.709185H231.231336zM231.231336 453.663654h260.54235v45.709184h-260.54235zM256.028568 145.926571c-12.570026 0-22.854592-10.284566-22.854592-22.854592V22.854592c0-12.570026 10.284566-22.854592 22.854592-22.854592s22.854592 10.284566 22.854592 22.854592v100.217387c0 12.684299-10.170293 22.854592-22.854592 22.854592zM548.567347 145.926571c-12.570026 0-22.854592-10.284566-22.854592-22.854592V22.854592c0-12.570026 10.284566-22.854592 22.854592-22.854592s22.854592 10.284566 22.854593 22.854592v100.217387c0 12.684299-10.170293 22.854592-22.854593 22.854592zM863.389354 805.624372H747.402299c-12.570026 0-22.854592-10.284566-22.854592-22.854592V658.326526c0-12.570026 10.284566-22.854592 22.854592-22.854592s22.854592 10.284566 22.854592 22.854592v101.588662h93.132463c12.570026 0 22.854592 10.284566 22.854592 22.854592s-10.284566 22.854592-22.854592 22.854592z" p-id="5849"></path></svg>