<?xml version="1.0" standalone="no"?><!DOCTYPE svg PUBLIC "-//W3C//DTD SVG 1.1//EN" "http://www.w3.org/Graphics/SVG/1.1/DTD/svg11.dtd"><svg t="1630074832888" class="icon" viewBox="0 0 1024 1024" version="1.1" xmlns="http://www.w3.org/2000/svg" p-id="3433" xmlns:xlink="http://www.w3.org/1999/xlink" width="200" height="200"><defs><style type="text/css"></style></defs><path d="M288.080472 311.471731m90.529833 0.173805l383.709293 0.73667q90.529833 0.173805 90.356028 90.703638l-0.469617 244.609549q-0.173805 90.529833-90.703638 90.356028l-383.709293-0.736669q-90.529833-0.173805-90.356028-90.703639l0.469617-244.609549q0.173805-90.529833 90.703638-90.356028Z" fill="#E9F1FF" p-id="3434"></path><path d="M806.58 756h-0.16l-589.86-1A88.87 88.87 0 0 1 128 666.13l0.72-397.58a88.81 88.81 0 0 1 88.7-88.55h0.16l589.86 1A88.87 88.87 0 0 1 896 269.87l-0.72 397.58a88.81 88.81 0 0 1-88.7 88.55zM217.43 244a24.73 24.73 0 0 0-24.71 24.66L192 666.25A24.87 24.87 0 0 0 216.67 691l589.86 1a24.73 24.73 0 0 0 24.71-24.67l0.76-397.58A24.87 24.87 0 0 0 807.33 245l-589.86-1z" fill="#2C5CCB" p-id="3435"></path><path d="M274.34 915.64a32 32 0 0 1-26.22-50.3l86.34-123.91A32 32 0 0 1 387 778l-86.37 123.93a32 32 0 0 1-26.29 13.71zM749.66 915.64a32 32 0 0 1-26.29-13.71L637 778a32 32 0 0 1 52.51-36.59l86.34 123.91a32 32 0 0 1-26.22 50.3zM928 244H96a32 32 0 0 1 0-64h832a32 32 0 0 1 0 64z" fill="#2C5CCB" p-id="3436"></path><path d="M928 756H96a32 32 0 0 1 0-64h832a32 32 0 0 1 0 64zM512 220.65a32 32 0 0 1-32-32V148a32 32 0 0 1 64 0v40.66a32 32 0 0 1-32 31.99z" fill="#2C5CCB" p-id="3437"></path></svg>