<?xml version="1.0" standalone="no"?><!DOCTYPE svg PUBLIC "-//W3C//DTD SVG 1.1//EN" "http://www.w3.org/Graphics/SVG/1.1/DTD/svg11.dtd"><svg t="1630075888923" class="icon" viewBox="0 0 1024 1024" version="1.1" xmlns="http://www.w3.org/2000/svg" p-id="4218" xmlns:xlink="http://www.w3.org/1999/xlink" width="200" height="200"><defs><style type="text/css"></style></defs><path d="M512 1024a296.421053 296.421053 0 0 1-296.421053-296.421053v-404.210526h592.842106v404.210526a296.421053 296.421053 0 0 1-296.421053 296.421053z" fill="#303F5B" p-id="4219"></path><path d="M323.368421 0h377.263158a26.947368 26.947368 0 0 1 26.947368 26.947368v296.421053h-431.157894v-296.421053a26.947368 26.947368 0 0 1 26.947368-26.947368z" fill="#D2DFFE" p-id="4220"></path><path d="M377.263158 107.789474m26.947368 0l53.894737 0q26.947368 0 26.947369 26.947368l0 53.894737q0 26.947368-26.947369 26.947368l-53.894737 0q-26.947368 0-26.947368-26.947368l0-53.894737q0-26.947368 26.947368-26.947368Z" fill="#303F5B" p-id="4221"></path><path d="M538.947368 107.789474m26.947369 0l53.894737 0q26.947368 0 26.947368 26.947368l0 53.894737q0 26.947368-26.947368 26.947368l-53.894737 0q-26.947368 0-26.947369-26.947368l0-53.894737q0-26.947368 26.947369-26.947368Z" fill="#303F5B" p-id="4222"></path></svg>