<?xml version="1.0" standalone="no"?><!DOCTYPE svg PUBLIC "-//W3C//DTD SVG 1.1//EN" "http://www.w3.org/Graphics/SVG/1.1/DTD/svg11.dtd"><svg t="1630075885869" class="icon" viewBox="0 0 1792 1024" version="1.1" xmlns="http://www.w3.org/2000/svg" p-id="4079" xmlns:xlink="http://www.w3.org/1999/xlink" width="350" height="200"><defs><style type="text/css"></style></defs><path d="M768 0h256a42.666667 42.666667 0 0 1 42.666667 42.666667 42.666667 42.666667 0 0 1-42.666667 42.666666h-256a42.666667 42.666667 0 0 1-42.666667-42.666666 42.666667 42.666667 0 0 1 42.666667-42.666667z" fill="#303F5B" p-id="4080"></path><path d="M85.333333 554.666667v256a42.666667 42.666667 0 0 1-42.666666 42.666666 42.666667 42.666667 0 0 1-42.666667-42.666666v-256a42.666667 42.666667 0 0 1 42.666667-42.666667 42.666667 42.666667 0 0 1 42.666666 42.666667z" fill="#303F5B" p-id="4081"></path><path d="M1792 554.666667v256a42.666667 42.666667 0 0 1-42.666667 42.666666 42.666667 42.666667 0 0 1-42.666666-42.666666v-256a42.666667 42.666667 0 0 1 42.666666-42.666667 42.666667 42.666667 0 0 1 42.666667 42.666667z" fill="#303F5B" p-id="4082"></path><path d="M1319.808 170.666667H472.192a69.888 69.888 0 0 0-36.096 10.069333L204.288 320.981333A69.717333 69.717333 0 0 0 170.666667 380.714667v573.696A69.674667 69.674667 0 0 0 240.341333 1024h360.192a69.674667 69.674667 0 0 0 59.733334-33.834667L768 810.666667l68.266667-113.749334a69.674667 69.674667 0 0 1 119.466666 0L1024 810.666667l107.690667 179.498666a69.674667 69.674667 0 0 0 59.733333 33.834667h360.192A69.674667 69.674667 0 0 0 1621.333333 954.325333V380.629333a69.717333 69.717333 0 0 0-33.621333-59.733333l-231.808-140.245333A69.888 69.888 0 0 0 1319.808 170.666667z" fill="#303F5B" p-id="4083"></path><path d="M512 384a128 128 0 0 1 128 128 128 128 0 0 1-128 128 128 128 0 0 1-128-128 128 128 0 0 1 128-128z" fill="#D2DFFE" p-id="4084"></path><path d="M1280 384a128 128 0 0 1 128 128 128 128 0 0 1-128 128 128 128 0 0 1-128-128 128 128 0 0 1 128-128z" fill="#D2DFFE" p-id="4085"></path></svg>