<?xml version="1.0" standalone="no"?><!DOCTYPE svg PUBLIC "-//W3C//DTD SVG 1.1//EN" "http://www.w3.org/Graphics/SVG/1.1/DTD/svg11.dtd"><svg t="1630075615087" class="icon" viewBox="0 0 1024 1024" version="1.1" xmlns="http://www.w3.org/2000/svg" p-id="2135" xmlns:xlink="http://www.w3.org/1999/xlink" width="200" height="200"><defs><style type="text/css"></style></defs><path d="M510.42 960.22c-60.49 0-119.18-11.85-174.44-35.22-53.37-22.57-101.29-54.88-142.44-96.03s-73.46-89.07-96.03-142.44c-23.37-55.26-35.22-113.95-35.22-174.44S74.13 392.9 97.5 337.64c22.57-53.37 54.88-101.29 96.03-142.44s89.07-73.46 142.44-96.03c55.26-23.37 113.95-35.22 174.44-35.22 60.49 0 119.18 11.85 174.44 35.22 53.37 22.57 101.29 54.88 142.44 96.03s73.46 89.07 96.03 142.44c23.37 55.26 35.23 113.95 35.23 174.44s-11.85 119.18-35.23 174.44c-22.57 53.37-54.88 101.29-96.03 142.44S738.22 902.43 684.86 925c-55.26 23.37-113.95 35.22-174.44 35.22z m0-858.85c-226.47 0-410.71 184.25-410.71 410.71S283.95 922.8 510.42 922.8s410.71-184.25 410.71-410.71-184.25-410.72-410.71-410.72z" fill="#333333" p-id="2136"></path><path d="M323.88 717.01c-4.79 0-9.58-1.83-13.23-5.48-7.31-7.31-7.31-19.16 0-26.46l372.43-372.43c7.31-7.31 19.16-7.31 26.46 0 7.31 7.31 7.31 19.16 0 26.46L337.11 711.53a18.632 18.632 0 0 1-13.23 5.48z" fill="#00AABC" p-id="2137"></path><path d="M696.95 717.01c-4.79 0-9.58-1.83-13.23-5.48L311.29 339.1c-7.31-7.31-7.31-19.16 0-26.46 7.31-7.31 19.16-7.31 26.46 0l372.43 372.43c7.31 7.31 7.31 19.16 0 26.46-3.65 3.66-8.44 5.48-13.23 5.48z" fill="#00AABC" p-id="2138"></path></svg>