<?xml version="1.0" standalone="no"?><!DOCTYPE svg PUBLIC "-//W3C//DTD SVG 1.1//EN" "http://www.w3.org/Graphics/SVG/1.1/DTD/svg11.dtd"><svg t="1630075864939" class="icon" viewBox="0 0 1024 1024" version="1.1" xmlns="http://www.w3.org/2000/svg" p-id="3082" xmlns:xlink="http://www.w3.org/1999/xlink" width="200" height="200"><defs><style type="text/css"></style></defs><path d="M142.222222 0h488.448a56.888889 56.888889 0 0 1 40.220445 16.668444l251.107555 251.107556A56.888889 56.888889 0 0 1 938.666667 307.996444V967.111111a56.888889 56.888889 0 0 1-56.888889 56.888889H142.222222a56.888889 56.888889 0 0 1-56.888889-56.888889V56.888889a56.888889 56.888889 0 0 1 56.888889-56.888889z" fill="#303F5B" p-id="3083"></path><path d="M597.333333 142.222222m0 42.666667l0 170.666667q0 42.666667-42.666666 42.666666l0 0q-42.666667 0-42.666667-42.666666l0-170.666667q0-42.666667 42.666667-42.666667l0 0q42.666667 0 42.666666 42.666667Z" fill="#D2DFFE" p-id="3084"></path><path d="M853.333333 654.222222m0 56.888889l0 170.666667q0 56.888889-56.888889 56.888889l-568.888888 0q-56.888889 0-56.888889-56.888889l0-170.666667q0-56.888889 56.888889-56.888889l568.888888 0q56.888889 0 56.888889 56.888889Z" fill="#D2DFFE" p-id="3085"></path><path d="M426.666667 142.222222m0 42.666667l0 170.666667q0 42.666667-42.666667 42.666666l0 0q-42.666667 0-42.666667-42.666666l0-170.666667q0-42.666667 42.666667-42.666667l0 0q42.666667 0 42.666667 42.666667Z" fill="#D2DFFE" p-id="3086"></path><path d="M256 142.222222m0 42.666667l0 170.666667q0 42.666667-42.666667 42.666666l0 0q-42.666667 0-42.666666-42.666666l0-170.666667q0-42.666667 42.666666-42.666667l0 0q42.666667 0 42.666667 42.666667Z" fill="#D2DFFE" p-id="3087"></path></svg>