<?xml version="1.0" standalone="no"?><!DOCTYPE svg PUBLIC "-//W3C//DTD SVG 1.1//EN" "http://www.w3.org/Graphics/SVG/1.1/DTD/svg11.dtd"><svg t="1630075588906" class="icon" viewBox="0 0 1024 1024" version="1.1" xmlns="http://www.w3.org/2000/svg" p-id="1009" xmlns:xlink="http://www.w3.org/1999/xlink" width="200" height="200"><defs><style type="text/css"></style></defs><path d="M887.93 264.76H342.01c-39.74 0-72.07-32.33-72.07-72.07s32.33-72.07 72.07-72.07h545.92c39.74 0 72.07 32.33 72.07 72.07s-32.33 72.07-72.07 72.07zM342.01 158.49c-18.86 0-34.2 15.34-34.2 34.2s15.34 34.2 34.2 34.2h545.92c18.86 0 34.2-15.34 34.2-34.2s-15.34-34.2-34.2-34.2H342.01z" fill="#333333" p-id="1010"></path><path d="M144.48 273.17c-44.38 0-80.48-36.11-80.48-80.48s36.11-80.48 80.48-80.48 80.48 36.11 80.48 80.48-36.1 80.48-80.48 80.48z m0-123.09c-23.49 0-42.61 19.11-42.61 42.61s19.11 42.61 42.61 42.61 42.61-19.11 42.61-42.61-19.11-42.61-42.61-42.61z" fill="#00AABC" p-id="1011"></path><path d="M887.93 584.07H342.01c-39.74 0-72.07-32.33-72.07-72.07s32.33-72.07 72.07-72.07h545.92c39.74 0 72.07 32.33 72.07 72.07s-32.33 72.07-72.07 72.07zM342.01 477.8c-18.86 0-34.2 15.34-34.2 34.2s15.34 34.2 34.2 34.2h545.92c18.86 0 34.2-15.34 34.2-34.2s-15.34-34.2-34.2-34.2H342.01z" fill="#333333" p-id="1012"></path><path d="M144.48 592.48C100.11 592.48 64 556.38 64 512s36.11-80.48 80.48-80.48 80.48 36.11 80.48 80.48-36.1 80.48-80.48 80.48z m0-123.09c-23.49 0-42.61 19.11-42.61 42.61s19.11 42.61 42.61 42.61 42.61-19.11 42.61-42.61-19.11-42.61-42.61-42.61z" fill="#00AABC" p-id="1013"></path><path d="M887.93 903.38H342.01c-39.74 0-72.07-32.33-72.07-72.07 0-39.74 32.33-72.07 72.07-72.07h545.92c39.74 0 72.07 32.33 72.07 72.07 0 39.74-32.33 72.07-72.07 72.07zM342.01 797.12c-18.86 0-34.2 15.34-34.2 34.2 0 18.86 15.34 34.2 34.2 34.2h545.92c18.86 0 34.2-15.34 34.2-34.2 0-18.86-15.34-34.2-34.2-34.2H342.01z" fill="#333333" p-id="1014"></path><path d="M144.48 911.79c-44.38 0-80.48-36.11-80.48-80.48s36.11-80.48 80.48-80.48 80.48 36.11 80.48 80.48-36.1 80.48-80.48 80.48z m0-123.09c-23.49 0-42.61 19.11-42.61 42.61 0 23.49 19.11 42.61 42.61 42.61s42.61-19.11 42.61-42.61c0-23.49-19.11-42.61-42.61-42.61z" fill="#00AABC" p-id="1015"></path></svg>