<?xml version="1.0" standalone="no"?><!DOCTYPE svg PUBLIC "-//W3C//DTD SVG 1.1//EN" "http://www.w3.org/Graphics/SVG/1.1/DTD/svg11.dtd"><svg t="1630075817071" class="icon" viewBox="0 0 1297 1024" version="1.1" xmlns="http://www.w3.org/2000/svg" p-id="1240" xmlns:xlink="http://www.w3.org/1999/xlink" width="253.3203125" height="200"><defs><style type="text/css"></style></defs><path d="M0 0m68.266667 0l1160.533333 0q68.266667 0 68.266667 68.266667l0 716.8q0 68.266667-68.266667 68.266666l-1160.533333 0q-68.266667 0-68.266667-68.266666l0-716.8q0-68.266667 68.266667-68.266667Z" fill="#303F5B" p-id="1241"></path><path d="M544.1536 785.066667h206.779733a34.133333 34.133333 0 0 1 34.133334 34.133333l34.133333 170.666667a34.133333 34.133333 0 0 1-34.133333 34.133333h-273.066667a34.133333 34.133333 0 0 1-34.133333-34.133333l32.1536-170.666667a34.133333 34.133333 0 0 1 34.133333-34.133333z" fill="#303F5B" p-id="1242"></path><path d="M34.133333 34.133333m34.133334 0l1160.533333 0q34.133333 0 34.133333 34.133334l0 648.533333q0 34.133333-34.133333 34.133333l-1160.533333 0q-34.133333 0-34.133334-34.133333l0-648.533333q0-34.133333 34.133334-34.133334Z" fill="#D2DFFE" p-id="1243"></path></svg>