<?xml version="1.0" standalone="no"?><!DOCTYPE svg PUBLIC "-//W3C//DTD SVG 1.1//EN" "http://www.w3.org/Graphics/SVG/1.1/DTD/svg11.dtd"><svg t="1630075599579" class="icon" viewBox="0 0 1024 1024" version="1.1" xmlns="http://www.w3.org/2000/svg" p-id="1434" xmlns:xlink="http://www.w3.org/1999/xlink" width="200" height="200"><defs><style type="text/css"></style></defs><path d="M512.18 960.22c-37.01 0-69.55-20.55-87.03-54.96L75.84 217.53c-16.55-32.58-15.68-70.96 2.32-102.67s49.67-50.64 84.71-50.64H861.5c35.04 0 66.71 18.93 84.71 50.64s18.87 70.09 2.32 102.67L599.21 905.26c-17.48 34.42-50.01 54.96-87.03 54.96z m-399.7-763.4L461.8 884.56c10.12 19.92 28.96 31.82 50.38 31.82 21.43 0 40.27-11.9 50.38-31.82l349.32-687.74c9.58-18.86 9.08-41.08-1.34-59.44s-28.75-29.32-49.04-29.32H162.86c-20.29 0-38.62 10.96-49.04 29.32s-10.92 40.58-1.34 59.44z" fill="#333333" p-id="1435"></path><path d="M512.18 505.54c-10.82 0-19.6-6.69-19.6-14.94V271.17c0-8.25 8.78-14.94 19.6-14.94s19.6 6.69 19.6 14.94V490.6c0 8.25-8.78 14.94-19.6 14.94z" fill="#00AABC" p-id="1436"></path><path d="M468.36 591.91a43.82 46.22 0 1 0 87.64 0 43.82 46.22 0 1 0-87.64 0Z" fill="#00AABC" p-id="1437"></path></svg>