<?xml version="1.0" standalone="no"?><!DOCTYPE svg PUBLIC "-//W3C//DTD SVG 1.1//EN" "http://www.w3.org/Graphics/SVG/1.1/DTD/svg11.dtd"><svg t="1630075862632" class="icon" viewBox="0 0 1024 1024" version="1.1" xmlns="http://www.w3.org/2000/svg" p-id="2933" xmlns:xlink="http://www.w3.org/1999/xlink" width="200" height="200"><defs><style type="text/css"></style></defs><path d="M1024 263.314286m0 43.885714l0 0q0 43.885714-43.885714 43.885714l-146.285715 0q-43.885714 0-43.885714-43.885714l0 0q0-43.885714 43.885714-43.885714l146.285715 0q43.885714 0 43.885714 43.885714Z" fill="#303F5B" p-id="2934"></path><path d="M234.057143 263.314286m0 43.885714l0 0q0 43.885714-43.885714 43.885714l-146.285715 0q-43.885714 0-43.885714-43.885714l0 0q0-43.885714 43.885714-43.885714l146.285715 0q43.885714 0 43.885714 43.885714Z" fill="#303F5B" p-id="2935"></path><path d="M1024 468.114286m0 43.885714l0 0q0 43.885714-43.885714 43.885714l-146.285715 0q-43.885714 0-43.885714-43.885714l0 0q0-43.885714 43.885714-43.885714l146.285715 0q43.885714 0 43.885714 43.885714Z" fill="#303F5B" p-id="2936"></path><path d="M234.057143 468.114286m0 43.885714l0 0q0 43.885714-43.885714 43.885714l-146.285715 0q-43.885714 0-43.885714-43.885714l0 0q0-43.885714 43.885714-43.885714l146.285715 0q43.885714 0 43.885714 43.885714Z" fill="#303F5B" p-id="2937"></path><path d="M1024 672.914286m0 43.885714l0 0q0 43.885714-43.885714 43.885714l-146.285715 0q-43.885714 0-43.885714-43.885714l0 0q0-43.885714 43.885714-43.885714l146.285715 0q43.885714 0 43.885714 43.885714Z" fill="#303F5B" p-id="2938"></path><path d="M234.057143 672.914286m0 43.885714l0 0q0 43.885714-43.885714 43.885714l-146.285715 0q-43.885714 0-43.885714-43.885714l0 0q0-43.885714 43.885714-43.885714l146.285715 0q43.885714 0 43.885714 43.885714Z" fill="#303F5B" p-id="2939"></path><path d="M263.314286 0m43.885714 0l0 0q43.885714 0 43.885714 43.885714l0 146.285715q0 43.885714-43.885714 43.885714l0 0q-43.885714 0-43.885714-43.885714l0-146.285715q0-43.885714 43.885714-43.885714Z" fill="#303F5B" p-id="2940"></path><path d="M263.314286 789.942857m43.885714 0l0 0q43.885714 0 43.885714 43.885714l0 146.285715q0 43.885714-43.885714 43.885714l0 0q-43.885714 0-43.885714-43.885714l0-146.285715q0-43.885714 43.885714-43.885714Z" fill="#303F5B" p-id="2941"></path><path d="M468.114286 0m43.885714 0l0 0q43.885714 0 43.885714 43.885714l0 146.285715q0 43.885714-43.885714 43.885714l0 0q-43.885714 0-43.885714-43.885714l0-146.285715q0-43.885714 43.885714-43.885714Z" fill="#303F5B" p-id="2942"></path><path d="M468.114286 789.942857m43.885714 0l0 0q43.885714 0 43.885714 43.885714l0 146.285715q0 43.885714-43.885714 43.885714l0 0q-43.885714 0-43.885714-43.885714l0-146.285715q0-43.885714 43.885714-43.885714Z" fill="#303F5B" p-id="2943"></path><path d="M672.914286 0m43.885714 0l0 0q43.885714 0 43.885714 43.885714l0 146.285715q0 43.885714-43.885714 43.885714l0 0q-43.885714 0-43.885714-43.885714l0-146.285715q0-43.885714 43.885714-43.885714Z" fill="#303F5B" p-id="2944"></path><path d="M672.914286 789.942857m43.885714 0l0 0q43.885714 0 43.885714 43.885714l0 146.285715q0 43.885714-43.885714 43.885714l0 0q-43.885714 0-43.885714-43.885714l0-146.285715q0-43.885714 43.885714-43.885714Z" fill="#303F5B" p-id="2945"></path><path d="M146.285714 146.285714m58.514286 0l614.4 0q58.514286 0 58.514286 58.514286l0 614.4q0 58.514286-58.514286 58.514286l-614.4 0q-58.514286 0-58.514286-58.514286l0-614.4q0-58.514286 58.514286-58.514286Z" fill="#D2DFFE" p-id="2946"></path><path d="M292.571429 292.571429m29.257142 0l380.342858 0q29.257143 0 29.257142 29.257142l0 380.342858q0 29.257143-29.257142 29.257142l-380.342858 0q-29.257143 0-29.257142-29.257142l0-380.342858q0-29.257143 29.257142-29.257142Z" fill="#303F5B" opacity=".3" p-id="2947"></path></svg>