<?xml version="1.0" standalone="no"?><!DOCTYPE svg PUBLIC "-//W3C//DTD SVG 1.1//EN" "http://www.w3.org/Graphics/SVG/1.1/DTD/svg11.dtd"><svg t="1630075611944" class="icon" viewBox="0 0 1024 1024" version="1.1" xmlns="http://www.w3.org/2000/svg" p-id="1995" xmlns:xlink="http://www.w3.org/1999/xlink" width="200" height="200"><defs><style type="text/css"></style></defs><path d="M510.26 497.18c-11.05 0-22.1-2.19-32.39-6.56L93.36 327.19a50.648 50.648 0 0 1-30.85-46.66c0-20.36 12.1-38.67 30.83-46.65L478 70.5c20.58-8.74 44.2-8.74 64.78 0l36.77 15.61-0.12 0.06L927.28 233.8c18.78 7.94 30.93 26.28 30.93 46.69 0 20.42-12.15 38.75-30.95 46.7L542.65 490.62c-10.29 4.37-21.34 6.56-32.39 6.56z m0.13-396.1a45.81 45.81 0 0 0-17.87 3.62L107.88 268.07a13.516 13.516 0 0 0-8.22 12.46c0 5.44 3.23 10.34 8.24 12.47l384.5 163.43c11.35 4.82 24.37 4.82 35.73 0L912.76 293c5.05-2.14 8.3-7.04 8.3-12.5s-3.25-10.36-8.27-12.48L525.32 103.57a45.9 45.9 0 0 0-14.93-2.49z" fill="#333333" p-id="1996"></path><path d="M510.36 729.24c-11.77 0-23.54-2.33-34.51-6.99L72.7 550.92c-9.44-4.01-13.84-14.92-9.83-24.36s14.92-13.84 24.36-9.83l403.14 171.32c12.7 5.4 27.26 5.4 39.96 0l403.15-171.32c9.44-4.01 20.35 0.39 24.36 9.83 4.01 9.44-0.39 20.35-9.83 24.36L544.87 722.25c-10.96 4.66-22.74 6.99-34.51 6.99z" fill="#00AABC" p-id="1997"></path><path d="M510.36 961.3c-11.77 0-23.54-2.33-34.51-6.99L72.7 782.98c-9.44-4.01-13.84-14.92-9.83-24.36s14.92-13.84 24.36-9.83l403.14 171.32c12.7 5.39 27.26 5.4 39.96 0l403.15-171.32c9.44-4.01 20.35 0.39 24.36 9.83 4.01 9.44-0.39 20.35-9.83 24.36L544.87 954.31c-10.97 4.66-22.74 6.99-34.51 6.99z" fill="#333333" p-id="1998"></path></svg>