<?xml version="1.0" standalone="no"?><!DOCTYPE svg PUBLIC "-//W3C//DTD SVG 1.1//EN" "http://www.w3.org/Graphics/SVG/1.1/DTD/svg11.dtd"><svg t="1630075848481" class="icon" viewBox="0 0 1441 1024" version="1.1" xmlns="http://www.w3.org/2000/svg" p-id="2366" xmlns:xlink="http://www.w3.org/1999/xlink" width="281.4453125" height="200"><defs><style type="text/css"></style></defs><path d="M0 0m65.952227 0l1121.187862 0q65.952227 0 65.952227 65.952227l0 758.450612q0 65.952227-65.952227 65.952227l-1121.187862 0q-65.952227 0-65.952227-65.952227l0-758.450612q0-65.952227 65.952227-65.952227Z" fill="#303F5B" p-id="2367"></path><path d="M65.952227 32.976114m32.976114 0l1022.25952 0q32.976114 0 32.976114 32.976113l0 758.450612q0 32.976114-32.976114 32.976114l-1022.25952 0q-32.976114 0-32.976114-32.976114l0-758.450612q0-32.976114 32.976114-32.976113Z" fill="#D2DFFE" p-id="2368"></path><path d="M1220.116202 395.713363m0 16.488057l0 65.952227q0 16.488057-16.488057 16.488057l0 0q-16.488057 0-16.488056-16.488057l0-65.952227q0-16.488057 16.488056-16.488057l0 0q16.488057 0 16.488057 16.488057Z" fill="#D2DFFE" p-id="2369"></path></svg>