<?xml version="1.0" standalone="no"?><!DOCTYPE svg PUBLIC "-//W3C//DTD SVG 1.1//EN" "http://www.w3.org/Graphics/SVG/1.1/DTD/svg11.dtd"><svg t="1630075647717" class="icon" viewBox="0 0 1024 1024" version="1.1" xmlns="http://www.w3.org/2000/svg" p-id="3682" xmlns:xlink="http://www.w3.org/1999/xlink" width="200" height="200"><defs><style type="text/css"></style></defs><path d="M625 959.56c-23.59 0-45.77-9.19-62.45-25.87s-25.87-38.86-25.87-62.45V625c0.17-48.56 39.76-88.14 88.25-88.31h246.76c48.32 0.34 87.76 39.93 87.93 88.24v246.31c-0.04 48.49-39.51 88.1-87.98 88.32H625z m0-382.22c-26.16 0.09-47.57 21.5-47.66 47.73v246.17c0 12.73 4.96 24.7 13.96 33.7 9 9 20.97 13.96 33.7 13.96h246.54c26.08-0.12 47.39-21.5 47.42-47.68V625c-0.09-26.04-21.39-47.44-47.5-47.66H625zM397.48 959.56H150.83c-23.54-0.06-45.65-9.29-62.25-25.98s-25.71-38.85-25.65-62.39V625c0-48.44 39.41-88.06 87.85-88.31h246.65c23.6 0.04 45.73 9.25 62.35 25.94 16.63 16.69 25.76 38.86 25.72 62.41v246.21c0.1 23.17-9.26 45.95-25.67 62.42-16.39 16.45-39.11 25.89-62.35 25.89zM150.91 918.9h246.56c12.7 0 24.62-4.95 33.57-13.93 8.96-8.99 13.87-20.94 13.81-33.64V625c0.02-12.73-4.9-24.68-13.87-33.68-8.96-8.99-20.89-13.96-33.59-13.98h-246.5c-26.03 0.14-47.3 21.52-47.3 47.66v246.24c-0.03 12.74 4.87 24.67 13.82 33.67 8.93 8.98 20.83 13.95 33.5 13.99zM397.47 485.81H150.78c-48.44-0.25-87.85-39.87-87.85-88.31V150.95c0.13-48.38 39.55-87.86 87.87-88.08h246.63c48.53 0.04 88.03 39.55 88.08 88.06v246.56c0.04 23.52-9.09 45.68-25.72 62.37-16.63 16.69-38.77 25.9-62.32 25.95z m-246.53-40.66h246.48c12.66-0.02 24.59-4.99 33.56-13.98 8.96-9 13.89-20.94 13.86-33.64V150.95c-0.03-26.12-21.31-47.4-47.44-47.42H150.89c-25.97 0.12-47.23 21.41-47.3 47.48V397.5c0 26.12 21.24 47.49 47.35 47.65z" fill="#333333" p-id="3683"></path><path d="M747.94 478.55c-17.44 0-34.89-6.56-48.17-19.69l-35.19-34.79h0.64l-88.81-88.81c-26.34-26.64-26.34-69.85-0.08-96.41L699.68 115.5c26.64-26.34 69.86-26.34 96.42-0.08l123.35 123.35c26.35 26.64 26.35 69.86 0.08 96.42L796.11 458.86c-13.28 13.13-30.73 19.69-48.17 19.69z m15.44-13.82h0.01-0.01z m-32.84-32.84c10.85 8.67 26.84 8.04 36.94-1.91L890.7 306.53c10.61-10.73 10.61-28.3-0.07-39.09l-123.19-123.2c-10.72-10.6-28.28-10.59-39.08 0.08L605.17 267.51c-10.59 10.72-10.59 28.28 0.08 39.08l125.29 125.3z" fill="#00AABC" p-id="3684"></path></svg>