<?xml version="1.0" standalone="no"?><!DOCTYPE svg PUBLIC "-//W3C//DTD SVG 1.1//EN" "http://www.w3.org/Graphics/SVG/1.1/DTD/svg11.dtd"><svg t="1630075883470" class="icon" viewBox="0 0 1024 1024" version="1.1" xmlns="http://www.w3.org/2000/svg" p-id="3932" xmlns:xlink="http://www.w3.org/1999/xlink" width="200" height="200"><defs><style type="text/css"></style></defs><path d="M58.696676 0m56.888888 0l739.555556 0q56.888889 0 56.888889 56.888889l0 910.222222q0 56.888889-56.888889 56.888889l-739.555556 0q-56.888889 0-56.888888-56.888889l0-910.222222q0-56.888889 56.888888-56.888889Z" fill="#303F5B" p-id="3933"></path><path d="M144.030009 56.888889m99.555555 0l0 0q99.555556 0 99.555556 99.555555l0 654.222223q0 99.555556-99.555556 99.555555l0 0q-99.555556 0-99.555555-99.555555l0-654.222223q0-99.555556 99.555555-99.555555Z" fill="#D2DFFE" p-id="3934"></path><path d="M428.474453 142.222222m28.444445 0l341.333333 0q28.444444 0 28.444445 28.444445l0 85.333333q0 28.444444-28.444445 28.444444l-341.333333 0q-28.444444 0-28.444445-28.444444l0-85.333333q0-28.444444 28.444445-28.444445Z" fill="#D2DFFE" p-id="3935"></path><path d="M485.363342 369.777778m56.888889 0l0 0q56.888889 0 56.888889 56.888889l0 0q0 56.888889-56.888889 56.888889l0 0q-56.888889 0-56.888889-56.888889l0 0q0-56.888889 56.888889-56.888889Z" fill="#D2DFFE" p-id="3936"></path><path d="M485.363342 568.888889m56.888889 0l0 0q56.888889 0 56.888889 56.888889l0 0q0 56.888889-56.888889 56.888889l0 0q-56.888889 0-56.888889-56.888889l0 0q0-56.888889 56.888889-56.888889Z" fill="#D2DFFE" p-id="3937"></path><path d="M485.363342 768m56.888889 0l0 0q56.888889 0 56.888889 56.888889l0 0q0 56.888889-56.888889 56.888889l0 0q-56.888889 0-56.888889-56.888889l0 0q0-56.888889 56.888889-56.888889Z" fill="#D2DFFE" p-id="3938"></path><path d="M656.030009 369.777778m56.888889 0l0 0q56.888889 0 56.888889 56.888889l0 0q0 56.888889-56.888889 56.888889l0 0q-56.888889 0-56.888889-56.888889l0 0q0-56.888889 56.888889-56.888889Z" fill="#D2DFFE" p-id="3939"></path><path d="M656.030009 568.888889m56.888889 0l0 0q56.888889 0 56.888889 56.888889l0 0q0 56.888889-56.888889 56.888889l0 0q-56.888889 0-56.888889-56.888889l0 0q0-56.888889 56.888889-56.888889Z" fill="#D2DFFE" p-id="3940"></path><path d="M656.030009 768m56.888889 0l0 0q56.888889 0 56.888889 56.888889l0 0q0 56.888889-56.888889 56.888889l0 0q-56.888889 0-56.888889-56.888889l0 0q0-56.888889 56.888889-56.888889Z" fill="#D2DFFE" p-id="3941"></path><path d="M200.918898 142.222222m14.222222 0l56.888889 0q14.222222 0 14.222222 14.222222l0 0q0 14.222222-14.222222 14.222223l-56.888889 0q-14.222222 0-14.222222-14.222223l0 0q0-14.222222 14.222222-14.222222Z" fill="#303F5B" p-id="3942"></path><path d="M200.918898 796.444444m14.222222 0l56.888889 0q14.222222 0 14.222222 14.222223l0 0q0 14.222222-14.222222 14.222222l-56.888889 0q-14.222222 0-14.222222-14.222222l0 0q0-14.222222 14.222222-14.222223Z" fill="#303F5B" p-id="3943"></path><path d="M257.807787 881.777778m0 14.222222l0 113.777778q0 14.222222-14.222223 14.222222l0 0q-14.222222 0-14.222222-14.222222l0-113.777778q0-14.222222 14.222222-14.222222l0 0q14.222222 0 14.222223 14.222222Z" fill="#D2DFFE" p-id="3944"></path></svg>