<?xml version="1.0" standalone="no"?><!DOCTYPE svg PUBLIC "-//W3C//DTD SVG 1.1//EN" "http://www.w3.org/Graphics/SVG/1.1/DTD/svg11.dtd"><svg t="1630075881285" class="icon" viewBox="0 0 1024 1024" version="1.1" xmlns="http://www.w3.org/2000/svg" p-id="3788" xmlns:xlink="http://www.w3.org/1999/xlink" width="200" height="200"><defs><style type="text/css"></style></defs><path d="M0 256m56.888889 0l910.222222 0q56.888889 0 56.888889 56.888889l0 398.222222q0 56.888889-56.888889 56.888889l-910.222222 0q-56.888889 0-56.888889-56.888889l0-398.222222q0-56.888889 56.888889-56.888889Z" fill="#303F5B" p-id="3789"></path><path d="M924.444444 355.555556m-42.666666 0a42.666667 42.666667 0 1 0 85.333333 0 42.666667 42.666667 0 1 0-85.333333 0Z" fill="#D2DFFE" p-id="3790"></path><path d="M824.888889 0m0 56.888889l0 910.222222q0 56.888889-56.888889 56.888889l-512 0q-56.888889 0-56.888889-56.888889l0-910.222222q0-56.888889 56.888889-56.888889l512 0q56.888889 0 56.888889 56.888889Z" fill="#303F5B" p-id="3791"></path><path d="M768 512v426.666667a28.444444 28.444444 0 0 1-28.444444 28.444444h-455.111112a28.444444 28.444444 0 0 1-28.444444-28.444444v-426.666667h512z" fill="#D2DFFE" p-id="3792"></path><path d="M682.666667 739.555556m0 28.444444l0 0q0 28.444444-28.444445 28.444444l-312.888889 0q-28.444444 0-28.444444-28.444444l0 0q0-28.444444 28.444444-28.444444l312.888889 0q28.444444 0 28.444445 28.444444Z" fill="#303F5B" p-id="3793"></path><path d="M568.888889 625.777778m0 28.444444l0 0q0 28.444444-28.444445 28.444445l-199.111111 0q-28.444444 0-28.444444-28.444445l0 0q0-28.444444 28.444444-28.444444l199.111111 0q28.444444 0 28.444445 28.444444Z" fill="#303F5B" p-id="3794"></path><path d="M682.666667 853.333333m0 28.444445l0 0q0 28.444444-28.444445 28.444444l-312.888889 0q-28.444444 0-28.444444-28.444444l0 0q0-28.444444 28.444444-28.444445l312.888889 0q28.444444 0 28.444445 28.444445Z" fill="#303F5B" p-id="3795"></path><path d="M768 85.333333v170.666667h-512v-170.666667a28.444444 28.444444 0 0 1 28.444444-28.444444h455.111112a28.444444 28.444444 0 0 1 28.444444 28.444444z" fill="#D2DFFE" p-id="3796"></path><path d="M568.888889 142.222222m0 28.444445l0 0q0 28.444444-28.444445 28.444444l-199.111111 0q-28.444444 0-28.444444-28.444444l0 0q0-28.444444 28.444444-28.444445l199.111111 0q28.444444 0 28.444445 28.444445Z" fill="#303F5B" p-id="3797"></path></svg>