<?xml version="1.0" standalone="no"?><!DOCTYPE svg PUBLIC "-//W3C//DTD SVG 1.1//EN" "http://www.w3.org/Graphics/SVG/1.1/DTD/svg11.dtd"><svg t="1630075878777" class="icon" viewBox="0 0 1170 1024" version="1.1" xmlns="http://www.w3.org/2000/svg" p-id="3645" xmlns:xlink="http://www.w3.org/1999/xlink" width="228.515625" height="200"><defs><style type="text/css"></style></defs><path d="M0 255.853714m73.142857 0l1024 0q73.142857 0 73.142857 73.142857l0 549.741715q0 73.142857-73.142857 73.142857l-1024 0q-73.142857 0-73.142857-73.142857l0-549.741715q0-73.142857 73.142857-73.142857Z" fill="#303F5B" p-id="3646"></path><path d="M731.428571 256m-256 0a256 256 0 1 0 512 0 256 256 0 1 0-512 0Z" fill="#D2DFFE" p-id="3647"></path><path d="M731.428571 255.853714m-146.285714 0a146.285714 146.285714 0 1 0 292.571429 0 146.285714 146.285714 0 1 0-292.571429 0Z" fill="#303F5B" p-id="3648"></path><path d="M182.857143 402.285714m36.571428 0l73.142858 0q36.571429 0 36.571428 36.571429l0 0q0 36.571429-36.571428 36.571428l-73.142858 0q-36.571429 0-36.571428-36.571428l0 0q0-36.571429 36.571428-36.571429Z" fill="#D2DFFE" p-id="3649"></path><path d="M182.857143 950.857143m36.571428 0l73.142858 0q36.571429 0 36.571428 36.571428l0 0q0 36.571429-36.571428 36.571429l-73.142858 0q-36.571429 0-36.571428-36.571429l0 0q0-36.571429 36.571428-36.571428Z" fill="#303F5B" p-id="3650"></path><path d="M841.142857 950.857143m36.571429 0l73.142857 0q36.571429 0 36.571428 36.571428l0 0q0 36.571429-36.571428 36.571429l-73.142857 0q-36.571429 0-36.571429-36.571429l0 0q0-36.571429 36.571429-36.571428Z" fill="#303F5B" p-id="3651"></path></svg>