<?xml version="1.0" standalone="no"?><!DOCTYPE svg PUBLIC "-//W3C//DTD SVG 1.1//EN" "http://www.w3.org/Graphics/SVG/1.1/DTD/svg11.dtd"><svg t="1630075874131" class="icon" viewBox="0 0 1024 1024" version="1.1" xmlns="http://www.w3.org/2000/svg" p-id="3505" xmlns:xlink="http://www.w3.org/1999/xlink" width="200" height="200"><defs><style type="text/css"></style></defs><path d="M512 404.210526m-404.210526 0a404.210526 404.210526 0 1 0 808.421052 0 404.210526 404.210526 0 1 0-808.421052 0Z" fill="#303F5B" p-id="3506"></path><path d="M512 404.210526m-296.421053 0a296.421053 296.421053 0 1 0 592.842106 0 296.421053 296.421053 0 1 0-592.842106 0Z" fill="#D2DFFE" p-id="3507"></path><path d="M458.105263 700.631579m53.894737 0l0 0q53.894737 0 53.894737 53.894737l0 188.631579q0 53.894737-53.894737 53.894737l0 0q-53.894737 0-53.894737-53.894737l0-188.631579q0-53.894737 53.894737-53.894737Z" fill="#303F5B" p-id="3508"></path><path d="M781.473684 916.210526m0 53.894737l0 0q0 53.894737-53.894737 53.894737l-431.157894 0q-53.894737 0-53.894737-53.894737l0 0q0-53.894737 53.894737-53.894737l431.157894 0q53.894737 0 53.894737 53.894737Z" fill="#303F5B" p-id="3509"></path><path d="M512 404.210526m-107.789474 0a107.789474 107.789474 0 1 0 215.578948 0 107.789474 107.789474 0 1 0-215.578948 0Z" fill="#303F5B" p-id="3510"></path></svg>