<?xml version="1.0" standalone="no"?><!DOCTYPE svg PUBLIC "-//W3C//DTD SVG 1.1//EN" "http://www.w3.org/Graphics/SVG/1.1/DTD/svg11.dtd"><svg t="1630075837720" class="icon" viewBox="0 0 1441 1024" version="1.1" xmlns="http://www.w3.org/2000/svg" p-id="1802" xmlns:xlink="http://www.w3.org/1999/xlink" width="281.4453125" height="200"><defs><style type="text/css"></style></defs><path d="M0 0m65.952227 0l1121.187862 0q65.952227 0 65.952227 65.952227l0 758.450612q0 65.952227-65.952227 65.952227l-1121.187862 0q-65.952227 0-65.952227-65.952227l0-758.450612q0-65.952227 65.952227-65.952227Z" fill="#303F5B" p-id="1803"></path><path d="M164.880568 65.952227m32.976113 0l923.33118 0q32.976114 0 32.976114 32.976114l0 692.498385q0 32.976114-32.976114 32.976113l-923.33118 0q-32.976114 0-32.976113-32.976113l0-692.498385q0-32.976114 32.976113-32.976114Z" fill="#D2DFFE" p-id="1804"></path><path d="M230.832795 131.904454m32.976114 0l0 0q32.976114 0 32.976113 32.976114l0 98.928341q0 32.976114-32.976113 32.976113l0 0q-32.976114 0-32.976114-32.976113l0-98.928341q0-32.976114 32.976114-32.976114Z" fill="#303F5B" p-id="1805"></path><path d="M230.832795 362.737249m32.976114 0l0 0q32.976114 0 32.976113 32.976114l0 98.928341q0 32.976114-32.976113 32.976113l0 0q-32.976114 0-32.976114-32.976113l0-98.928341q0-32.976114 32.976114-32.976114Z" fill="#303F5B" p-id="1806"></path><path d="M230.832795 593.570044m32.976114 0l0 0q32.976114 0 32.976113 32.976114l0 98.928341q0 32.976114-32.976113 32.976113l0 0q-32.976114 0-32.976114-32.976113l0-98.928341q0-32.976114 32.976114-32.976114Z" fill="#303F5B" p-id="1807"></path></svg>