<?xml version="1.0" standalone="no"?><!DOCTYPE svg PUBLIC "-//W3C//DTD SVG 1.1//EN" "http://www.w3.org/Graphics/SVG/1.1/DTD/svg11.dtd"><svg t="1630075623321" class="icon" viewBox="0 0 1024 1024" version="1.1" xmlns="http://www.w3.org/2000/svg" p-id="2556" xmlns:xlink="http://www.w3.org/1999/xlink" width="200" height="200"><defs><style type="text/css"></style></defs><path d="M85.46 827.43h-0.76c-11.12 0-20.13-9.01-20.13-20.13V84.07c0-11.12 9.01-20.13 20.13-20.13h856.14c11.12 0 20.13 9.01 20.13 20.13v618.92c0 11.12-9.01 20.13-20.13 20.13H202.23c-49.65 0-91.25 37.15-96.76 86.42-1.15 10.19-9.76 17.89-20.01 17.89z m19.37-723.23v618.96c25.01-25.01 59.55-40.29 97.4-40.29h718.49V104.2H104.83z" fill="#333333" p-id="2557"></path><path d="M940.84 959.56H202.23c-75.9 0-137.65-61.75-137.65-137.65s61.75-137.65 137.65-137.65h738.62c11.12 0 20.13 9.01 20.13 20.13v0.59c0 10.34-7.84 19-18.13 20.03-49.93 4.99-87.58 46.65-87.58 96.91s37.65 91.92 87.58 96.9c10.29 1.03 18.13 9.69 18.13 20.03v0.59c-0.01 11.11-9.02 20.12-20.14 20.12zM202.23 724.51c-53.71 0-97.4 43.69-97.4 97.4s43.69 97.4 97.4 97.4H855.4c-1.55-1.55-3.06-3.13-4.55-4.76-23.11-25.38-35.84-58.28-35.84-92.63s12.73-67.25 35.84-92.64c1.48-1.63 3-3.21 4.55-4.76H202.23z" fill="#333333" p-id="2558"></path><path d="M504.73 280.84H227.96c-11.12 0-20.13-9.01-20.13-20.13s9.01-20.13 20.13-20.13h276.77c11.12 0 20.13 9.01 20.13 20.13 0 11.11-9.01 20.13-20.13 20.13zM428.24 570.13H227.96c-11.12 0-20.13-9.01-20.13-20.13s9.01-20.13 20.13-20.13h200.28c11.12 0 20.13 9.01 20.13 20.13s-9.02 20.13-20.13 20.13zM661.89 425.48H227.96c-11.12 0-20.13-9.01-20.13-20.13s9.01-20.13 20.13-20.13H661.9c11.12 0 20.13 9.01 20.13 20.13s-9.02 20.13-20.14 20.13z" fill="#00AABC" p-id="2559"></path></svg>