<?xml version="1.0" standalone="no"?><!DOCTYPE svg PUBLIC "-//W3C//DTD SVG 1.1//EN" "http://www.w3.org/Graphics/SVG/1.1/DTD/svg11.dtd"><svg t="1630074999613" class="icon" viewBox="0 0 1024 1024" version="1.1" xmlns="http://www.w3.org/2000/svg" p-id="4230" xmlns:xlink="http://www.w3.org/1999/xlink" width="200" height="200"><defs><style type="text/css"></style></defs><path d="M659.7 64.2H270.4c-78.1 0-141.3 63.3-141.3 141.3v612.9c0 78.1 63.3 141.3 141.3 141.3h485.5c78.1 0 141.3-63.3 141.3-141.3V301.7c0-31.8-12.6-62.3-35.1-84.9L744.6 99.3c-22.5-22.5-53.1-35.1-84.9-35.1z" fill="#F98950" p-id="4231"></path><path d="M862.1 216.8L744.6 99.3c-17-17-38.5-28.3-61.7-32.9v131.9c0 41.9 33.9 75.8 75.8 75.8H894c-5.1-21.5-16-41.4-31.9-57.3z" fill="#F26C38" p-id="4232"></path><path d="M369.4 399.3a143.7 42.6 0 1 0 287.4 0 143.7 42.6 0 1 0-287.4 0Z" fill="#F26C38" p-id="4233"></path><path d="M513.1 532.1c79.3 0 143.7-19.1 143.7-42.6v-58.3c0-0.8-0.1-1.7-0.2-2.5-4.3 22.4-66.9 40.2-143.4 40.2S374 451 369.7 428.6c-0.2 0.8-0.2 1.6-0.2 2.5v58.3c0 23.6 64.3 42.7 143.6 42.7z" fill="#F26C38" p-id="4234"></path><path d="M513.1 619.9c79.3 0 143.7-19.1 143.7-42.6V519c0-0.8-0.1-1.7-0.2-2.5-4.3 22.4-66.9 40.2-143.4 40.2S374 538.9 369.7 516.5c-0.2 0.8-0.2 1.6-0.2 2.5v58.3c0 23.5 64.3 42.6 143.6 42.6z" fill="#F26C38" p-id="4235"></path><path d="M513.2 644.1c-76.5 0-139.1-17.8-143.4-40.2-0.2 0.8-0.2 1.6-0.2 2.5v58.3c0 23.5 64.3 42.6 143.7 42.6S657 688.2 657 664.7v-58.3c0-0.8-0.1-1.7-0.2-2.5-4.5 22.4-67.1 40.2-143.6 40.2z" fill="#F26C38" p-id="4236"></path><path d="M369.4 387.3a143.7 42.6 0 1 0 287.4 0 143.7 42.6 0 1 0-287.4 0Z" fill="#FFFFFF" p-id="4237"></path><path d="M513.1 520.1c79.3 0 143.7-19.1 143.7-42.6v-58.3c0-0.8-0.1-1.7-0.2-2.5-4.3 22.4-66.9 40.2-143.4 40.2S374 439 369.7 416.6c-0.2 0.8-0.2 1.6-0.2 2.5v58.3c0 23.6 64.3 42.7 143.6 42.7z" fill="#FFFFFF" p-id="4238"></path><path d="M513.1 607.9c79.3 0 143.7-19.1 143.7-42.6V507c0-0.8-0.1-1.7-0.2-2.5-4.3 22.4-66.9 40.2-143.4 40.2S374 526.9 369.7 504.5c-0.2 0.8-0.2 1.6-0.2 2.5v58.3c0 23.5 64.3 42.6 143.6 42.6z" fill="#FFFFFF" p-id="4239"></path><path d="M656.6 591.9c-4.3 22.4-66.9 40.2-143.4 40.2s-139.1-17.8-143.4-40.2c-0.2 0.8-0.2 1.6-0.2 2.5v58.3c0 23.5 64.3 42.6 143.7 42.6 79.3 0 143.7-19.1 143.7-42.6v-58.3c-0.2-0.8-0.3-1.7-0.4-2.5z" fill="#FFFFFF" p-id="4240"></path></svg>