<?xml version="1.0" standalone="no"?><!DOCTYPE svg PUBLIC "-//W3C//DTD SVG 1.1//EN" "http://www.w3.org/Graphics/SVG/1.1/DTD/svg11.dtd"><svg t="1630075857152" class="icon" viewBox="0 0 1621 1024" version="1.1" xmlns="http://www.w3.org/2000/svg" p-id="2646" xmlns:xlink="http://www.w3.org/1999/xlink" width="316.6015625" height="200"><defs><style type="text/css"></style></defs><path d="M0 0m69.719173 0l1185.225935 0q69.719173 0 69.719173 69.719173l0 697.191726q0 69.719173-69.719173 69.719173l-1185.225935 0q-69.719173 0-69.719173-69.719173l0-697.191726q0-69.719173 69.719173-69.719173Z" fill="#303F5B" p-id="2647"></path><path d="M174.297932 139.438345m69.719172 0l0 0q69.719173 0 69.719173 69.719173l0 0q0 69.719173-69.719173 69.719173l0 0q-69.719173 0-69.719172-69.719173l0 0q0-69.719173 69.719172-69.719173Z" fill="#D2DFFE" p-id="2648"></path><path d="M174.297932 348.595863m69.719172 0l0 0q69.719173 0 69.719173 69.719173l0 0q0 69.719173-69.719173 69.719173l0 0q-69.719173 0-69.719172-69.719173l0 0q0-69.719173 69.719172-69.719173Z" fill="#D2DFFE" p-id="2649"></path><path d="M383.45545 139.438345m69.719172 0l0 0q69.719173 0 69.719173 69.719173l0 0q0 69.719173-69.719173 69.719173l0 0q-69.719173 0-69.719172-69.719173l0 0q0-69.719173 69.719172-69.719173Z" fill="#D2DFFE" p-id="2650"></path><path d="M383.45545 348.595863m69.719172 0l0 0q69.719173 0 69.719173 69.719173l0 0q0 69.719173-69.719173 69.719173l0 0q-69.719173 0-69.719172-69.719173l0 0q0-69.719173 69.719172-69.719173Z" fill="#D2DFFE" p-id="2651"></path><path d="M592.612968 139.438345m69.719172 0l0 0q69.719173 0 69.719173 69.719173l0 0q0 69.719173-69.719173 69.719173l0 0q-69.719173 0-69.719172-69.719173l0 0q0-69.719173 69.719172-69.719173Z" fill="#D2DFFE" p-id="2652"></path><path d="M592.612968 348.595863m69.719172 0l0 0q69.719173 0 69.719173 69.719173l0 0q0 69.719173-69.719173 69.719173l0 0q-69.719173 0-69.719172-69.719173l0 0q0-69.719173 69.719172-69.719173Z" fill="#D2DFFE" p-id="2653"></path><path d="M383.45545 557.753381m69.719172 0l418.315036 0q69.719173 0 69.719173 69.719173l0 0q0 69.719173-69.719173 69.719173l-418.315036 0q-69.719173 0-69.719172-69.719173l0 0q0-69.719173 69.719172-69.719173Z" fill="#D2DFFE" p-id="2654"></path><path d="M801.770486 139.438345m69.719172 0l0 0q69.719173 0 69.719173 69.719173l0 0q0 69.719173-69.719173 69.719173l0 0q-69.719173 0-69.719172-69.719173l0 0q0-69.719173 69.719172-69.719173Z" fill="#D2DFFE" p-id="2655"></path><path d="M801.770486 348.595863m69.719172 0l0 0q69.719173 0 69.719173 69.719173l0 0q0 69.719173-69.719173 69.719173l0 0q-69.719173 0-69.719172-69.719173l0 0q0-69.719173 69.719172-69.719173Z" fill="#D2DFFE" p-id="2656"></path><path d="M1010.928004 139.438345m69.719172 0l0 0q69.719173 0 69.719173 69.719173l0 0q0 69.719173-69.719173 69.719173l0 0q-69.719173 0-69.719172-69.719173l0 0q0-69.719173 69.719172-69.719173Z" fill="#D2DFFE" p-id="2657"></path><path d="M1010.928004 348.595863m69.719172 0l0 0q69.719173 0 69.719173 69.719173l0 0q0 69.719173-69.719173 69.719173l0 0q-69.719173 0-69.719172-69.719173l0 0q0-69.719173 69.719172-69.719173Z" fill="#D2DFFE" p-id="2658"></path></svg>