<?xml version="1.0" standalone="no"?><!DOCTYPE svg PUBLIC "-//W3C//DTD SVG 1.1//EN" "http://www.w3.org/Graphics/SVG/1.1/DTD/svg11.dtd"><svg t="1630075626151" class="icon" viewBox="0 0 1024 1024" version="1.1" xmlns="http://www.w3.org/2000/svg" p-id="2698" xmlns:xlink="http://www.w3.org/1999/xlink" width="200" height="200"><defs><style type="text/css"></style></defs><path d="M519.28 935.07H152.56c-48.79 0-88.48-37.95-88.48-84.6V233.75c0-46.65 39.69-84.6 88.48-84.6h665.9c48.79 0 88.48 37.95 88.48 84.6v302.79c0 9.84-8.34 17.81-18.63 17.81s-18.63-7.97-18.63-17.81V233.75c0-27.01-22.98-48.98-51.22-48.98h-665.9c-28.24 0-51.22 21.97-51.22 48.98v616.72c0 27.01 22.98 48.98 51.22 48.98h366.71c10.29 0 18.63 7.97 18.63 17.81s-8.33 17.81-18.62 17.81z" fill="#333333" p-id="2699"></path><path d="M542.96 601.1H203.21c-10.29 0-18.63-7.97-18.63-17.81s8.34-17.81 18.63-17.81h339.76c10.29 0 18.63 7.97 18.63 17.81s-8.35 17.81-18.64 17.81z" fill="#00AABC" p-id="2700"></path><path d="M417.35 779.22H203.7c-10.29 0-18.63-7.97-18.63-17.81s8.34-17.81 18.63-17.81h213.65c10.29 0 18.63 7.97 18.63 17.81s-8.34 17.81-18.63 17.81zM663.63 422.99H203.7c-10.29 0-18.63-7.97-18.63-17.81s8.34-17.81 18.63-17.81h459.93c10.29 0 18.63 7.97 18.63 17.81s-8.34 17.81-18.63 17.81zM306.82 269.37c-10.29 0-18.63-7.97-18.63-17.81V81.24c0-9.84 8.34-17.81 18.63-17.81s18.63 7.97 18.63 17.81v170.32c-0.01 9.83-8.34 17.81-18.63 17.81zM664.22 269.37c-10.29 0-18.63-7.97-18.63-17.81V81.24c0-9.84 8.34-17.81 18.63-17.81s18.63 7.97 18.63 17.81v170.32c-0.01 9.83-8.35 17.81-18.63 17.81z" fill="#333333" p-id="2701"></path><path d="M766.08 959.56c-106.56 0-193.25-82.9-193.25-184.79s86.69-184.79 193.25-184.79 193.25 82.9 193.25 184.79-86.69 184.79-193.25 184.79z m0-333.96c-86.02 0-156 66.92-156 149.17s69.98 149.17 156 149.17 156-66.92 156-149.17-69.98-149.17-156-149.17z" fill="#333333" p-id="2702"></path><path d="M770.54 815.86c-11.87 0-20.79-1.61-28.17-8.5-10.81-10.07-10.45-23.43-9.74-50.03 0.3-11.11 0.66-24.93 0.47-42.48-0.11-9.84 8.14-17.9 18.43-18h0.2c10.19 0 18.51 7.85 18.62 17.62 0.2 18.2-0.18 32.38-0.48 43.77-0.22 8.32-0.45 16.84-0.16 22.03 3.89 0 9.38-0.26 14.44-0.51 13.67-0.67 32.4-1.58 58.4-0.52 10.28 0.42 18.25 8.73 17.81 18.56-0.43 9.57-8.68 17.05-18.6 17.05-0.27 0-0.54-0.01-0.81-0.02-24.26-0.99-41.98-0.13-54.91 0.5-5.68 0.28-10.82 0.53-15.5 0.53z" fill="#00AABC" p-id="2703"></path></svg>