<?xml version="1.0" standalone="no"?><!DOCTYPE svg PUBLIC "-//W3C//DTD SVG 1.1//EN" "http://www.w3.org/Graphics/SVG/1.1/DTD/svg11.dtd"><svg t="1630075827832" class="icon" viewBox="0 0 1496 1024" version="1.1" xmlns="http://www.w3.org/2000/svg" p-id="1661" xmlns:xlink="http://www.w3.org/1999/xlink" width="292.1875" height="200"><defs><style type="text/css"></style></defs><path d="M0 0m71.0699 0l1208.188308 0q71.0699 0 71.0699 71.0699l0 675.164055q0 71.0699-71.0699 71.0699l-1208.188308 0q-71.0699 0-71.0699-71.0699l0-675.164055q0-71.0699 71.0699-71.0699Z" fill="#303F5B" p-id="1662"></path><path d="M35.53495 35.53495m35.53495 0l1208.188308 0q35.53495 0 35.53495 35.53495l0 639.629104q0 35.53495-35.53495 35.534951l-1208.188308 0q-35.53495 0-35.53495-35.534951l0-639.629104q0-35.53495 35.53495-35.53495Z" fill="#D2DFFE" p-id="1663"></path><path d="M278.213493 848.399388m-12.563502 12.563502l-50.254008 50.254008q-12.563502 12.563502-25.127005 0l0 0q-12.563502-12.563502 0-25.127004l50.254009-50.254009q12.563502-12.563502 25.127004 0l0 0q12.563502 12.563502 0 25.127005Z" fill="#303F5B" p-id="1664"></path><path d="M303.336375 923.758613m-12.563502-12.563502l-50.254009-50.254009q-12.563502-12.563502 0-25.127004l0 0q12.563502-12.563502 25.127005 0l50.254008 50.254008q12.563502 12.563502 0 25.127005l0 0q-12.563502 12.563502-25.127004 0Z" fill="#303F5B" p-id="1665"></path><path d="M236.307419 858.808677m0-17.767475l0-65.988403q0-17.767475 17.767475-17.767475l0 0q17.767475 0 17.767475 17.767475l0 65.988403q0 17.767475-17.767475 17.767475l0 0q-17.767475 0-17.767475-17.767475Z" fill="#303F5B" p-id="1666"></path><path d="M1122.417306 848.399388m-12.563502 12.563502l-50.254009 50.254008q-12.563502 12.563502-25.127004 0l0 0q-12.563502-12.563502 0-25.127004l50.254008-50.254009q12.563502-12.563502 25.127005 0l0 0q12.563502 12.563502 0 25.127005Z" fill="#303F5B" p-id="1667"></path><path d="M1147.540187 923.758613m-12.563502-12.563502l-50.254008-50.254009q-12.563502-12.563502 0-25.127004l0 0q12.563502-12.563502 25.127004 0l50.254009 50.254008q12.563502 12.563502 0 25.127005l0 0q-12.563502 12.563502-25.127005 0Z" fill="#303F5B" p-id="1668"></path><path d="M1080.511231 858.808677m0-17.767475l0-65.988403q0-17.767475 17.767475-17.767475l0 0q17.767475 0 17.767476 17.767475l0 65.988403q0 17.767475-17.767476 17.767475l0 0q-17.767475 0-17.767475-17.767475Z" fill="#303F5B" p-id="1669"></path></svg>