<?xml version="1.0" standalone="no"?><!DOCTYPE svg PUBLIC "-//W3C//DTD SVG 1.1//EN" "http://www.w3.org/Graphics/SVG/1.1/DTD/svg11.dtd"><svg t="1630075810401" class="icon" viewBox="0 0 1024 1024" version="1.1" xmlns="http://www.w3.org/2000/svg" p-id="953" xmlns:xlink="http://www.w3.org/1999/xlink" width="200" height="200"><defs><style type="text/css"></style></defs><path d="M404.210526 0h215.578948a53.894737 53.894737 0 0 1 53.894737 53.894737l26.947368 193.482105v518.197895L673.684211 970.105263a53.894737 53.894737 0 0 1-53.894737 53.894737H404.210526a53.894737 53.894737 0 0 1-53.894737-53.894737l-26.947368-200.488421V252.766316L350.315789 53.894737a53.894737 53.894737 0 0 1 53.894737-53.894737z" fill="#303F5B" p-id="954"></path><path d="M404.210526 26.947368h215.578948a26.947368 26.947368 0 0 1 26.947368 26.947369l26.947369 165.726316v594.458947L646.736842 970.105263a26.947368 26.947368 0 0 1-26.947368 26.947369H404.210526a26.947368 26.947368 0 0 1-26.947368-26.947369l-26.947369-165.456842V220.968421L377.263158 53.894737a26.947368 26.947368 0 0 1 26.947368-26.947369z" fill="#D2DFFE" p-id="955"></path><path d="M512 134.736842a215.578947 215.578947 0 0 1 215.578947 215.578947v323.368422a215.578947 215.578947 0 0 1-215.578947 215.578947 215.578947 215.578947 0 0 1-215.578947-215.578947V350.315789a215.578947 215.578947 0 0 1 215.578947-215.578947z" fill="#303F5B" p-id="956"></path><path d="M512 188.631579a161.684211 161.684211 0 0 1 161.684211 161.68421v323.368422a161.684211 161.684211 0 0 1-161.684211 161.68421 161.684211 161.684211 0 0 1-161.684211-161.68421V350.315789a161.684211 161.684211 0 0 1 161.684211-161.68421z" fill="#D2DFFE" p-id="957"></path><path d="M458.105263 700.631579h107.789474a26.947368 26.947368 0 0 1 26.947368 26.947368 26.947368 26.947368 0 0 1-26.947368 26.947369H458.105263a26.947368 26.947368 0 0 1-26.947368-26.947369 26.947368 26.947368 0 0 1 26.947368-26.947368z" fill="#303F5B" p-id="958"></path><path d="M510.383158 552.421053H506.610526a26.947368 26.947368 0 0 1-22.366315-20.48l-2.964211-12.934737-4.850526 15.090526a26.947368 26.947368 0 0 1-26.947369 18.593684H403.402105a26.947368 26.947368 0 0 1 0-53.894737h26.947369l28.56421-88.926315a26.947368 26.947368 0 0 1 26.947369-18.863158 26.947368 26.947368 0 0 1 25.061052 21.018947l9.431579 40.421053 16.976842-30.989474a26.947368 26.947368 0 0 1 50.122106 8.623158l11.587368 68.985263h19.402105a26.947368 26.947368 0 0 1 0 53.894737h-42.307368a26.947368 26.947368 0 0 1-26.947369-22.366316l-2.96421-16.707368-14.551579 26.947368a26.947368 26.947368 0 0 1-21.288421 11.587369z" fill="#303F5B" p-id="959"></path></svg>