<?xml version="1.0" standalone="no"?><!DOCTYPE svg PUBLIC "-//W3C//DTD SVG 1.1//EN" "http://www.w3.org/Graphics/SVG/1.1/DTD/svg11.dtd"><svg t="1630075813858" class="icon" viewBox="0 0 1024 1024" version="1.1" xmlns="http://www.w3.org/2000/svg" p-id="1094" xmlns:xlink="http://www.w3.org/1999/xlink" width="200" height="200"><defs><style type="text/css"></style></defs><path d="M243.928792 0m26.947368 0l323.368421 0q26.947368 0 26.947368 26.947368l0 970.105264q0 26.947368-26.947368 26.947368l-323.368421 0q-26.947368 0-26.947368-26.947368l0-970.105264q0-26.947368 26.947368-26.947368Z" fill="#303F5B" p-id="1095"></path><path d="M163.086686 269.473684m26.947369 0l485.052631 0q26.947368 0 26.947369 26.947369l0 431.157894q0 26.947368-26.947369 26.947369l-485.052631 0q-26.947368 0-26.947369-26.947369l0-431.157894q0-26.947368 26.947369-26.947369Z" fill="#303F5B" p-id="1096"></path><path d="M216.981423 269.473684m26.947369 0l377.263157 0q26.947368 0 26.947369 26.947369l0 431.157894q0 26.947368-26.947369 26.947369l-377.263157 0q-26.947368 0-26.947369-26.947369l0-431.157894q0-26.947368 26.947369-26.947369Z" fill="#D2DFFE" p-id="1097"></path><path d="M432.560371 80.842105m-26.947369 0a26.947368 26.947368 0 1 0 53.894737 0 26.947368 26.947368 0 1 0-53.894737 0Z" fill="#D2DFFE" p-id="1098"></path><path d="M432.560371 835.368421m-26.947369 0a26.947368 26.947368 0 1 0 53.894737 0 26.947368 26.947368 0 1 0-53.894737 0Z" fill="#D2DFFE" p-id="1099"></path><path d="M432.560371 188.631579m-26.947369 0a26.947368 26.947368 0 1 0 53.894737 0 26.947368 26.947368 0 1 0-53.894737 0Z" fill="#D2DFFE" p-id="1100"></path><path d="M432.560371 943.157895m-26.947369 0a26.947368 26.947368 0 1 0 53.894737 0 26.947368 26.947368 0 1 0-53.894737 0Z" fill="#D2DFFE" p-id="1101"></path><path d="M300.818611 438.37689m19.054667-19.054667l0 0q19.054667-19.054667 38.109334 0l95.273334 95.273335q19.054667 19.054667 0 38.109334l0 0q-19.054667 19.054667-38.109334 0l-95.273334-95.273335q-19.054667-19.054667 0-38.109334Z" fill="#303F5B" p-id="1102"></path><path d="M491.351793 438.386474m19.054667 19.054667l0 0q19.054667 19.054667 0 38.109334l-57.164001 57.164001q-19.054667 19.054667-38.109333 0l0 0q-19.054667-19.054667 0-38.109334l57.164-57.164001q19.054667-19.054667 38.109334 0Z" fill="#303F5B" p-id="1103"></path></svg>