<?xml version="1.0" standalone="no"?><!DOCTYPE svg PUBLIC "-//W3C//DTD SVG 1.1//EN" "http://www.w3.org/Graphics/SVG/1.1/DTD/svg11.dtd"><svg t="1630075608957" class="icon" viewBox="0 0 1024 1024" version="1.1" xmlns="http://www.w3.org/2000/svg" p-id="1858" xmlns:xlink="http://www.w3.org/1999/xlink" width="200" height="200"><defs><style type="text/css"></style></defs><path d="M939.5 151.01H654.35c-10.96 0-19.84-8.88-19.84-19.84 0-10.96 8.88-19.84 19.84-19.84H939.5c10.96 0 19.84 8.88 19.84 19.84-0.01 10.96-8.89 19.84-19.84 19.84zM939.5 409.29H654.35c-10.96 0-19.84-8.88-19.84-19.84 0-10.96 8.88-19.84 19.84-19.84H939.5c10.96 0 19.84 8.88 19.84 19.84-0.01 10.96-8.89 19.84-19.84 19.84zM939.5 667.58H654.35c-10.96 0-19.84-8.88-19.84-19.84 0-10.96 8.88-19.84 19.84-19.84H939.5c10.96 0 19.84 8.88 19.84 19.84-0.01 10.96-8.89 19.84-19.84 19.84zM939.5 925.86H654.35c-10.96 0-19.84-8.88-19.84-19.84 0-10.96 8.88-19.84 19.84-19.84H939.5c10.96 0 19.84 8.88 19.84 19.84-0.01 10.96-8.89 19.84-19.84 19.84z" fill="#00AABC" p-id="1859"></path><path d="M480.78 484.49H158.44c-51.96 0-94.22-42.27-94.22-94.22V192.49c0-51.96 42.27-94.22 94.22-94.22h322.34c51.95 0 94.22 42.27 94.22 94.22v197.78c0 51.95-42.27 94.22-94.22 94.22zM158.44 137.94c-30.08 0-54.55 24.47-54.55 54.55v197.78c0 30.08 24.47 54.55 54.55 54.55h322.34c30.08 0 54.55-24.47 54.55-54.55V192.49c0-30.08-24.47-54.55-54.55-54.55H158.44zM480.78 931.45H158.44c-51.96 0-94.22-42.27-94.22-94.22V639.45c0-51.96 42.27-94.22 94.22-94.22h322.34c51.95 0 94.22 42.27 94.22 94.22v197.78c0 51.95-42.27 94.22-94.22 94.22zM158.44 584.9c-30.08 0-54.55 24.47-54.55 54.55v197.78c0 30.08 24.47 54.55 54.55 54.55h322.34c30.08 0 54.55-24.47 54.55-54.55V639.45c0-30.08-24.47-54.55-54.55-54.55H158.44z" fill="#333333" p-id="1860"></path></svg>