<?xml version="1.0" standalone="no"?><!DOCTYPE svg PUBLIC "-//W3C//DTD SVG 1.1//EN" "http://www.w3.org/Graphics/SVG/1.1/DTD/svg11.dtd"><svg t="1630075605618" class="icon" viewBox="0 0 1024 1024" version="1.1" xmlns="http://www.w3.org/2000/svg" p-id="1717" xmlns:xlink="http://www.w3.org/1999/xlink" width="200" height="200"><defs><style type="text/css"></style></defs><path d="M808.54 537.54H658.95c-10.58 0-19.15-8.57-19.15-19.15s8.57-19.15 19.15-19.15h149.59c10.58 0 19.15 8.57 19.15 19.15s-8.57 19.15-19.15 19.15zM808.54 667.98H658.95c-10.58 0-19.15-8.57-19.15-19.15s8.57-19.15 19.15-19.15h149.59c10.58 0 19.15 8.57 19.15 19.15s-8.57 19.15-19.15 19.15zM442.94 264.08h-149.6c-10.57 0-19.15-8.57-19.15-19.15 0-10.57 8.57-19.15 19.15-19.15h149.59c10.58 0 19.15 8.57 19.15 19.15 0.01 10.58-8.57 19.15-19.14 19.15zM442.94 394.53h-149.6c-10.57 0-19.15-8.57-19.15-19.15 0-10.57 8.57-19.15 19.15-19.15h149.59c10.58 0 19.15 8.57 19.15 19.15 0.01 10.57-8.57 19.15-19.14 19.15z" fill="#00AABC" p-id="1718"></path><path d="M673.31 959.56H62.97V155.18c0-50.15 40.8-90.95 90.95-90.95h428.44c50.15 0 90.95 40.8 90.95 90.95v804.38z m-572.04-38.3h533.75V155.18c0-29.04-23.62-52.66-52.66-52.66H153.92c-29.04 0-52.66 23.62-52.66 52.66v766.08z" fill="#333333" p-id="1719"></path><path d="M959.33 959.56H635.02V290.41h233.37c50.15 0 90.95 40.8 90.95 90.95v578.2z m-286.02-38.3h247.73v-539.9c0-29.04-23.62-52.66-52.66-52.66H673.31v592.56z" fill="#333333" p-id="1720"></path><path d="M530.3 959.56H205.98V619.51c0-50.15 40.8-90.95 90.95-90.95h142.41c50.15 0 90.95 40.8 90.95 90.95v340.05z m-286.02-38.3H492V619.51c0-29.04-23.62-52.66-52.66-52.66H296.93c-29.04 0-52.66 23.62-52.66 52.66v301.75z" fill="#333333" p-id="1721"></path></svg>