<?xml version="1.0" standalone="no"?><!DOCTYPE svg PUBLIC "-//W3C//DTD SVG 1.1//EN" "http://www.w3.org/Graphics/SVG/1.1/DTD/svg11.dtd"><svg t="1630075645273" class="icon" viewBox="0 0 1024 1024" version="1.1" xmlns="http://www.w3.org/2000/svg" p-id="3542" xmlns:xlink="http://www.w3.org/1999/xlink" width="200" height="200"><defs><style type="text/css"></style></defs><path d="M812.39 884.89H211.61c-42.46 0-77-34.54-77-77V216.11c0-42.46 34.54-77 77-77h600.78c42.46 0 77 34.54 77 77v591.78c0 42.46-34.54 77-77 77zM211.61 173.11c-23.71 0-43 19.29-43 43v591.78c0 23.71 19.29 43 43 43h600.78c23.71 0 43-19.29 43-43V216.11c0-23.71-19.29-43-43-43H211.61z" fill="#333333" p-id="3543"></path><path d="M514.97 567.29h-0.52c-17.85-0.13-34.68-7.2-47.38-19.9L172.95 253.26c-19.81-19.81-25.46-48.02-14.74-73.62 10.56-25.21 34.18-40.77 61.62-40.54l583.84 4.41c27.8 0.21 51.65 16.39 62.24 42.23 10.42 25.44 4.93 53.2-14.33 72.46L561.86 547.92c-12.5 12.5-29.13 19.37-46.89 19.37zM219.29 173.11c-13.46 0-24.55 7.34-29.72 19.67-4.14 9.89-4.37 24.66 7.42 36.44l294.12 294.13c6.34 6.34 14.72 9.87 23.59 9.94h0.26c8.68 0 16.79-3.33 22.86-9.41l289.72-289.72c9.53-9.53 12.12-22.82 6.91-35.53-4.15-10.13-14.48-20.99-31.03-21.12l-583.84-4.41c-0.1 0.01-0.2 0.01-0.29 0.01z" fill="#333333" p-id="3544"></path><path d="M589.87 318.67H451.35c-9.39 0-17-7.61-17-17s7.61-17 17-17h138.52c9.39 0 17 7.61 17 17s-7.61 17-17 17z" fill="#00AABC" p-id="3545"></path></svg>