<?xml version="1.0" standalone="no"?><!DOCTYPE svg PUBLIC "-//W3C//DTD SVG 1.1//EN" "http://www.w3.org/Graphics/SVG/1.1/DTD/svg11.dtd"><svg t="1630076523794" class="icon" viewBox="0 0 1024 1024" version="1.1" xmlns="http://www.w3.org/2000/svg" p-id="2763" xmlns:xlink="http://www.w3.org/1999/xlink" width="200" height="200"><defs><style type="text/css"></style></defs><path d="M467.45 237.94C532.35 140.87 593.94 64 593.94 64s275.22 343.39 275.22 495.39c0 126.71-85.75 233.14-202.29 265.14 24.25-41 38.41-88.66 38.41-139.74 0-116.89-162.64-346.78-237.83-446.85z" fill="#8C9EFF" p-id="2764"></path><path d="M430.06 189.4s14.79 18.48 37.39 48.55c75.2 100.06 237.83 329.96 237.83 446.84 0 51.08-14.17 98.74-38.41 139.74C618.96 905.52 530.98 960 430.06 960c-152 0-275.21-123.22-275.21-275.22-0.01-151.99 275.21-495.38 275.21-495.38z" fill="#E1F5FF" p-id="2765"></path></svg>