<?xml version="1.0" standalone="no"?><!DOCTYPE svg PUBLIC "-//W3C//DTD SVG 1.1//EN" "http://www.w3.org/Graphics/SVG/1.1/DTD/svg11.dtd"><svg t="1630075657782" class="icon" viewBox="0 0 1024 1024" version="1.1" xmlns="http://www.w3.org/2000/svg" p-id="4101" xmlns:xlink="http://www.w3.org/1999/xlink" width="200" height="200"><defs><style type="text/css"></style></defs><path d="M484.91 734.84H304.56c-10.99 0-19.9-8.91-19.9-19.9s8.91-19.9 19.9-19.9h180.36c10.99 0 19.9 8.91 19.9 19.9s-8.91 19.9-19.91 19.9z" fill="#00AABC" p-id="4102"></path><path d="M394.73 491.04c-118.31 0-214.56-96.25-214.56-214.56S276.42 61.91 394.73 61.91 609.3 158.17 609.3 276.48s-96.25 214.56-214.57 214.56z m0-389.32c-96.36 0-174.76 78.4-174.76 174.76s78.4 174.76 174.76 174.76c96.36 0 174.76-78.4 174.76-174.76S491.1 101.72 394.73 101.72z" fill="#333333" p-id="4103"></path><path d="M703.83 924.97H85.64c-10.99 0-19.9-8.91-19.9-19.9V780.24c0-87.88 34.22-170.5 96.36-232.64s144.76-96.36 232.64-96.36c10.99 0 19.9 8.91 19.9 19.9 0 10.99-8.91 19.9-19.9 19.9-159.46 0-289.2 129.73-289.2 289.2v104.93h598.29c10.99 0 19.9 8.91 19.9 19.9s-8.91 19.9-19.9 19.9z" fill="#333333" p-id="4104"></path><path d="M800.19 831.72h-70.72c-10.78 0-19.59-8.58-19.89-19.35-0.11-4.13-0.86-8.21-2.2-12.12-0.09-0.25-0.17-0.5-0.24-0.75-2.34-7.79-6.62-14.81-12.38-20.32-0.04-0.04-0.08-0.07-0.12-0.11-9.44-9.18-21.86-14.23-34.97-14.23-8.64 0-17.41 2.38-25.37 6.89-2.99 1.7-6.37 2.59-9.81 2.59h-0.18c-7.02 0-13.53-3.7-17.11-9.74l-35.18-59.24c-5.59-9.42-2.52-21.59 6.87-27.23 11.19-6.71 19.53-17.67 22.88-30.08 5.36-21.14-4.02-43.53-22.84-54.49a19.913 19.913 0 0 1-7.13-27.31l34.81-59.05c3.58-6.07 10.1-9.79 17.14-9.79h0.18c3.45 0 6.84 0.9 9.84 2.6 7.49 4.26 16.06 6.51 24.79 6.51 8.46 0 16.95-2.19 24.58-6.33 16.01-8.59 25.81-24.58 25.68-41.78-0.04-5.3 2.04-10.41 5.77-14.17 3.74-3.76 8.82-5.88 14.13-5.88h70.35c10.83 0 19.68 8.67 19.9 19.5 0.26 12.74 5.63 25.28 14.72 34.41 9.57 9.41 21.92 14.4 35.73 14.44 8.41-0.17 16.72-2.39 24.1-6.42a19.906 19.906 0 0 1 15.34-2.74 19.87 19.87 0 0 1 12.68 9.27l35 59.23a19.901 19.901 0 0 1-7.04 27.28c-10.87 6.4-19.05 17.09-22.44 29.34-3.49 12.56-1.65 26.26 5.06 37.6 0.02 0.04 0.05 0.08 0.07 0.12 3.99 6.86 9.54 12.55 16.49 16.92a19.93 19.93 0 0 1 9.65 11.91 19.92 19.92 0 0 1-1.95 15.71l-34.27 58.14c-5.31 9.01-16.69 12.37-26.05 7.7l-1.09-0.55c-0.25-0.12-0.49-0.25-0.74-0.39-7.18-3.97-15.44-6.07-23.9-6.07-8.85 0-17.29 2.21-25.09 6.58-7.46 4.11-13.76 10.22-17.85 17.25-0.08 0.14-0.16 0.27-0.24 0.4-4.51 7.34-6.96 15.69-7.08 24.15-0.15 10.87-9.01 19.6-19.88 19.6z m-53.75-39.8h36.4c2.14-8.61 5.6-16.9 10.28-24.58 7.66-13.08 19.3-24.37 32.8-31.82 13.51-7.56 28.91-11.59 44.42-11.59 8.97 0 17.85 1.33 26.32 3.92l16.51-28.02c-6.01-5.74-11.19-12.26-15.34-19.38-12.16-20.61-15.48-45.55-9.12-68.44 4.31-15.59 12.96-29.82 24.61-40.91l-17.09-28.93a92.465 92.465 0 0 1-26.27 4.3h-0.35c-24.24 0-46.93-9.22-63.91-25.96l-0.1-0.1c-11.64-11.64-19.88-26.44-23.81-42.29h-35.41c-5.63 23.94-21.54 44.82-44.32 57.05-13.35 7.25-28.42 11.11-43.49 11.11-9.01 0-17.95-1.35-26.48-3.96l-17.01 28.85c23.11 21.82 33.34 55.12 25.22 86.82-0.02 0.07-0.04 0.14-0.06 0.22-4.27 15.93-13.07 30.51-25.02 41.91l17.31 29.15c8.83-2.81 17.99-4.26 27.13-4.26 23.5 0 45.75 9.03 62.66 25.44 10.6 10.16 18.48 23.01 22.81 37.2 0.48 1.43 0.92 2.84 1.31 4.27z" fill="#333333" p-id="4105"></path><path d="M764.42 711.07c-3.92 0-7.3-0.27-10.59-0.85-37.44-5.08-65.6-37.31-65.6-75.19-0.01-37.83 28.13-70.13 65.56-75.33 3.3-0.58 6.7-0.86 10.63-0.86 10.86 0 21.4 2.3 31.34 6.82 27.25 12.17 44.85 39.39 44.85 69.37 0.04 29.87-17.57 57.03-44.85 69.22-9.94 4.52-20.48 6.82-31.34 6.82z m0-112.43c-1.63 0-2.85 0.09-3.85 0.27-0.35 0.07-0.7 0.12-1.06 0.17-17.95 2.37-31.49 17.82-31.48 35.94 0 18.11 13.5 33.49 31.41 35.79 0.38 0.05 0.75 0.11 1.13 0.18 1 0.19 2.22 0.27 3.85 0.27 5.14 0 10.15-1.1 14.89-3.26 0.06-0.03 0.12-0.05 0.18-0.08a35.944 35.944 0 0 0 21.32-32.87c0-14.33-8.37-27.3-21.32-33.07-0.06-0.03-0.12-0.05-0.17-0.08-4.75-2.16-9.76-3.26-14.9-3.26z" fill="#00AABC" p-id="4106"></path></svg>