<?xml version="1.0" standalone="no"?><!DOCTYPE svg PUBLIC "-//W3C//DTD SVG 1.1//EN" "http://www.w3.org/Graphics/SVG/1.1/DTD/svg11.dtd"><svg t="1630075642817" class="icon" viewBox="0 0 1024 1024" version="1.1" xmlns="http://www.w3.org/2000/svg" p-id="3401" xmlns:xlink="http://www.w3.org/1999/xlink" width="200" height="200"><defs><style type="text/css"></style></defs><path d="M602.17 765.66H421.83c-10.99 0-19.9-8.91-19.9-19.9s8.91-19.9 19.9-19.9h180.36c10.99 0 19.9 8.91 19.9 19.9s-8.92 19.9-19.92 19.9z" fill="#00AABC" p-id="3402"></path><path d="M512 568.24c-118.31 0-214.56-96.25-214.56-214.56S393.69 139.11 512 139.11s214.57 96.26 214.57 214.57S630.32 568.24 512 568.24z m0-389.32c-96.36 0-174.76 78.4-174.76 174.76S415.64 528.44 512 528.44s174.76-78.4 174.76-174.76S608.36 178.92 512 178.92z" fill="#333333" p-id="3403"></path><path d="M821.1 884.89H202.95c-11.02 0-19.95-8.93-19.95-19.95v-5.34c0-87.51 33.9-171.93 95.57-234.02 62.08-62.5 144.79-96.99 232.81-97.15 10.88-0.02 20.17 8.39 20.51 19.26 0.35 11.28-8.69 20.54-19.89 20.54-159.46 0-289.2 129.73-289.2 289.2v-12.39c0 0.03 0.02 0.05 0.05 0.05h597.72c10.82 0 20.05 8.41 20.41 19.22 0.38 11.3-8.67 20.58-19.88 20.58z" fill="#333333" p-id="3404"></path><path d="M183.02 864.31c0.36-10.81 9.6-19.22 20.41-19.22h597.72c0.03 0 0.05-0.02 0.05-0.05v12.39c0-159.34-129.54-289-288.82-289.2-10.71-0.01-19.83-8.37-20.26-19.08-0.46-11.37 8.62-20.73 19.88-20.73 87.99 0 170.72 34.31 232.88 96.6 62 62.13 96.12 146.78 96.12 234.55v5.36c0 11.02-8.93 19.95-19.95 19.95H202.9c-11.21 0.01-20.26-9.27-19.88-20.57z" fill="#333333" p-id="3405"></path></svg>