<?xml version="1.0" standalone="no"?><!DOCTYPE svg PUBLIC "-//W3C//DTD SVG 1.1//EN" "http://www.w3.org/Graphics/SVG/1.1/DTD/svg11.dtd"><svg t="1630075820547" class="icon" viewBox="0 0 1592 1024" version="1.1" xmlns="http://www.w3.org/2000/svg" p-id="1380" xmlns:xlink="http://www.w3.org/1999/xlink" width="310.9375" height="200"><defs><style type="text/css"></style></defs><path d="M61.627292 0m61.627291 0l1047.663956 0q61.627292 0 61.627291 61.627292l0 616.272915q0 61.627292-61.627291 61.627291l-1047.663956 0q-61.627292 0-61.627291-61.627291l0-616.272915q0-61.627292 61.627291-61.627292Z" fill="#303F5B" p-id="1381"></path><path d="M92.440937 30.813646m30.813646 0l1047.663956 0q30.813646 0 30.813645 30.813646l0 585.459269q0 30.813646-30.813645 30.813646l-1047.663956 0q-30.813646 0-30.813646-30.813646l0-585.459269q0-30.813646 30.813646-30.813646Z" fill="#D2DFFE" p-id="1382"></path><path d="M0 770.341144m30.813646 0l1232.54583 0q30.813646 0 30.813646 30.813646l0 0q0 30.813646-30.813646 30.813645l-1232.54583 0q-30.813646 0-30.813646-30.813645l0 0q0-30.813646 30.813646-30.813646Z" fill="#303F5B" p-id="1383"></path></svg>