<?xml version="1.0" standalone="no"?><!DOCTYPE svg PUBLIC "-//W3C//DTD SVG 1.1//EN" "http://www.w3.org/Graphics/SVG/1.1/DTD/svg11.dtd"><svg t="1630075620353" class="icon" viewBox="0 0 1024 1024" version="1.1" xmlns="http://www.w3.org/2000/svg" p-id="2416" xmlns:xlink="http://www.w3.org/1999/xlink" width="200" height="200"><defs><style type="text/css"></style></defs><path d="M846.21 831.72H177.34c-62.38 0-113.12-49.48-113.12-110.3v-546.9c0-60.82 50.75-110.3 113.12-110.3h668.87c62.38 0 113.12 49.48 113.12 110.3v546.9c0 60.82-50.74 110.3-113.12 110.3zM177.34 105.68c-41.6 0-75.44 30.88-75.44 68.84v546.9c0 37.96 33.84 68.84 75.44 68.84h668.87c41.6 0 75.44-30.88 75.44-68.84v-546.9c0-37.96-33.84-68.84-75.44-68.84H177.34z" fill="#333333" p-id="2417"></path><path d="M740.25 959.56H283.29c-10.41 0-18.84-8.44-18.84-18.84s8.44-18.84 18.84-18.84h456.96c10.41 0 18.84 8.44 18.84 18.84s-8.43 18.84-18.84 18.84z" fill="#00AABC" p-id="2418"></path><path d="M701.82 295.96l-51.92-53.39c-8.78-8.78-20.48-13.9-32.54-13.53-12.07 0.37-24.14 5.48-32.55 15l-227.07 253.4c-1.83 2.19-3.29 4.02-3.66 6.58L309.1 642.97c-2.2 6.58-0.37 13.9 4.39 18.65 4.75 4.75 11.7 6.58 18.28 4.39l134.93-46.44c2.93-1.1 5.48-2.93 7.68-4.75l229.27-254.5c16.09-18.29 15.72-46.45-1.83-64.36z m-347.37 323.6l24.5-75.32 48.63 50.09-73.13 25.23z m106.4-43.51l-64.72-66.18 125.05-138.95 64.36 66.55-124.69 138.58z m216.1-240.97l-67.28 74.59-64.72-66.55 66.55-74.23c1.83-1.83 3.65-2.93 6.21-2.93s4.76 0.73 6.58 2.93l51.92 53.75c3.67 2.94 3.67 8.78 0.74 12.44z" fill="#333333" p-id="2419"></path></svg>