<?xml version="1.0" standalone="no"?><!DOCTYPE svg PUBLIC "-//W3C//DTD SVG 1.1//EN" "http://www.w3.org/Graphics/SVG/1.1/DTD/svg11.dtd"><svg t="1630075655247" class="icon" viewBox="0 0 1024 1024" version="1.1" xmlns="http://www.w3.org/2000/svg" p-id="3961" xmlns:xlink="http://www.w3.org/1999/xlink" width="200" height="200"><defs><style type="text/css"></style></defs><path d="M846.44 959.56H178.92c-62.25 0-112.9-56.66-112.9-126.3V190.53c0-69.64 50.64-126.3 112.9-126.3h667.52c62.25 0 112.9 56.66 112.9 126.3v642.73c-0.01 69.64-50.65 126.3-112.9 126.3zM178.92 106.3c-41.51 0-75.28 37.78-75.28 84.23v642.73c0 46.44 33.77 84.23 75.28 84.23h667.52c41.51 0 75.28-37.78 75.28-84.23V190.53c0-46.44-33.77-84.23-75.28-84.23H178.92z" fill="#333333" p-id="3962"></path><path d="M330.06 686.7c-4.82 0-9.63-2.06-13.3-6.17L202.75 552.89c-25.45-28.49-25.44-74.83 0.02-103.31l114-127.53c7.34-8.22 19.25-8.21 26.59 0 7.34 8.22 7.34 21.54 0 29.75l-114 127.53c-10.8 12.08-10.8 31.73-0.01 43.82l114.01 127.64c7.34 8.22 7.34 21.54-0.01 29.75-3.67 4.11-8.48 6.16-13.29 6.16zM695.29 686.7c-4.81 0-9.62-2.05-13.29-6.16-7.35-8.21-7.35-21.53-0.01-29.75L796 523.15c10.79-12.08 10.79-31.74-0.01-43.82L682 351.8c-7.34-8.22-7.34-21.54 0-29.75 7.34-8.22 19.25-8.22 26.59 0l114 127.53c25.46 28.48 25.46 74.82 0.02 103.31L708.59 680.53c-3.67 4.11-8.48 6.17-13.3 6.17z" fill="#333333" p-id="3963"></path><path d="M633.15 522.33H392.2c-10.39 0-18.81-9.42-18.81-21.04s8.42-21.04 18.81-21.04h240.95c10.39 0 18.81 9.42 18.81 21.04s-8.42 21.04-18.81 21.04z" fill="#00AABC" p-id="3964"></path></svg>