<?xml version="1.0" standalone="no"?><!DOCTYPE svg PUBLIC "-//W3C//DTD SVG 1.1//EN" "http://www.w3.org/Graphics/SVG/1.1/DTD/svg11.dtd"><svg t="1630075592316" class="icon" viewBox="0 0 1024 1024" version="1.1" xmlns="http://www.w3.org/2000/svg" p-id="1152" xmlns:xlink="http://www.w3.org/1999/xlink" width="200" height="200"><defs><style type="text/css"></style></defs><path d="M870.83 555.32H648.18c-22.45 0-43.36-11.02-58.88-31.03-14.63-18.87-22.74-43.75-22.85-70.07V165.28c0.04-26.4 8.12-51.35 22.77-70.28 15.28-19.74 36.73-31.06 58.86-31.06h222.94c22 0 43.39 11.28 58.65 30.99 14.67 18.96 22.74 43.95 22.72 70.36v288.88c-0.05 26.36-8.15 51.28-22.8 70.18-15.26 19.69-36.67 30.97-58.76 30.97zM648.12 107.87c-10.26 0-20.1 5.44-27.76 15.33-8.43 10.89-13.28 26.24-13.3 42.12v288.81c0.13 31.54 18.58 57.27 41.12 57.27H870.76c10.26 0 20.07-5.42 27.71-15.27 8.43-10.87 13.28-26.2 13.31-42.05v-288.8c0.01-15.89-4.82-31.25-13.25-42.15-7.66-9.9-17.5-15.38-27.77-15.26H648.12zM366.49 555.32H143.73c-22.47-0.08-43.33-11.14-58.78-31.14-14.57-18.86-22.65-43.71-22.74-69.97V165.28c0.04-55.83 36.6-101.28 81.5-101.33h222.93c22.09 0 43.53 11.31 58.81 31.05 14.65 18.93 22.74 43.88 22.77 70.25v288.97c-0.11 26.31-8.22 51.2-22.85 70.07-15.52 20.01-36.43 31.03-58.88 31.03zM143.73 107.87c-22.52 0.03-40.89 25.79-40.91 57.43v288.83c0.11 31.46 18.49 57.19 40.97 57.27h222.69c22.53 0 40.97-25.71 41.12-57.32v-288.8c-0.02-15.84-4.87-31.19-13.3-42.09-7.65-9.88-17.49-15.33-27.71-15.33H143.73z" fill="#333333" p-id="1153"></path><path d="M940.05 757.77H111.37c-11.21 0-20.3-9.83-20.3-21.96s9.09-21.96 20.3-21.96h828.68c11.21 0 20.3 9.83 20.3 21.96s-9.09 21.96-20.3 21.96z" fill="#00AABC" p-id="1154"></path><path d="M940.05 960.22H111.37c-11.21 0-20.3-9.83-20.3-21.96s9.09-21.96 20.3-21.96h828.68c11.21 0 20.3 9.83 20.3 21.96s-9.09 21.96-20.3 21.96z" fill="#00AABC" p-id="1155"></path></svg>