<?xml version="1.0" standalone="no"?><!DOCTYPE svg PUBLIC "-//W3C//DTD SVG 1.1//EN" "http://www.w3.org/Graphics/SVG/1.1/DTD/svg11.dtd"><svg t="1630075617710" class="icon" viewBox="0 0 1024 1024" version="1.1" xmlns="http://www.w3.org/2000/svg" p-id="2275" xmlns:xlink="http://www.w3.org/1999/xlink" width="200" height="200"><defs><style type="text/css"></style></defs><path d="M598.7 931.32H96.95c-3.79 0-7.48-1.21-10.54-3.45-10.15-7.43-15.93-153.83-19.33-180.13-2.85-21.96-1.64-29.65 2.86-58.24l0.55-3.47 0.03-0.19c3.82-22.74 13.49-40.34 28.75-52.3 0.04-0.03 0.07-0.06 0.11-0.09a155.166 155.166 0 0 1 47.18-24.86l4-1.36c37.89-12.91 89.97-30.53 104.81-34.42 15.28-3.99 28.58-9.66 39.52-16.83 0.27-0.18 0.55-0.35 0.82-0.51 7.45-4.32 14.33-9.6 20.46-15.68 3.41-3.35 6.02-7.2 7.83-11.51 1.44-4.01 2.14-7.93 2.14-12 0-5.35-0.23-11.7-0.7-19.43-0.64-7.33-2.58-12.43-5.92-15.6-7.18-6.83-14.23-13.04-21.57-18.99-0.12-0.09-0.23-0.19-0.35-0.29-5.75-4.9-10.61-11.48-14.86-20.09-2.99-6.06-5.77-12.49-8.75-20.21-0.09-0.24-0.18-0.47-0.26-0.71-1.71-5.06-3.4-10.24-4.98-15.14a51.03 51.03 0 0 1-6.64-4.21c-0.19-0.14-0.38-0.29-0.57-0.44-4.03-3.26-8.13-7.61-12.55-13.29-4.8-6.14-8.6-14.04-11.95-24.86l-0.03-0.11c-3.19-10.56-4.25-20.51-3.14-29.57 0.7-7.41 2.43-14.68 5.12-21.64a68.908 68.908 0 0 1 7.73-15.09c-0.17-17.54 0.93-35.18 3.28-52.53 2-16.35 5.8-34.13 11.31-52.83a181.147 181.147 0 0 1 25.03-53.01c9.82-14.15 21.7-26.56 35.35-36.94 0.05-0.04 0.1-0.08 0.16-0.12 12.77-9.5 25.93-17.06 39.11-22.48 12.73-5.24 26.08-9.09 39.66-11.46 0.1-0.02 0.2-0.03 0.31-0.05 14.14-2.22 26.77-3.22 38.6-3.24 15.16 0 30.33 1.94 45.04 5.77a226.93 226.93 0 0 1 39.8 14.39c11.6 5.42 22.78 12.06 33.18 19.71 9.3 6.7 17.68 14.61 24.93 23.5 0.06 0.07 0.12 0.15 0.18 0.22a186.833 186.833 0 0 1 30.75 57.23 322.54 322.54 0 0 1 13.61 56.31c2.69 17.33 4.06 35.24 4.06 53.37 2.53 2.77 4.63 5.92 6.22 9.33 2.9 5.53 5 11.44 6.25 17.58l0.06 0.33a77.32 77.32 0 0 1 0.39 25.71c-1.63 11.54-4.52 21.6-8.6 29.91-0.02 0.04-0.04 0.09-0.06 0.13a68.784 68.784 0 0 1-14.45 19.4c-3.4 3.16-7.19 5.87-11.24 8.05-1.47 5.26-3.09 10.48-4.85 15.59-0.08 0.24-0.17 0.49-0.27 0.73-2.69 6.85-5.76 13.68-9.1 20.28a68.691 68.691 0 0 1-14.42 19.34c-0.09 0.08-0.18 0.16-0.26 0.24-4.86 4.39-9.62 8.15-14.56 11.49-0.12 0.08-0.25 0.16-0.37 0.25-2.42 1.55-4.78 3.45-7.63 6.16-1.54 1.53-2.64 3.13-3.55 5.15-1.43 3.15-2.5 6.79-3.21 10.87-0.02 0.11-0.04 0.22-0.06 0.34-1.11 5.75-1.5 11.79-1.14 17.97 0.4 5.66 1.83 11.14 4.26 16.27l0.06 0.12c2.5 5.38 6.74 10.7 12.63 15.81 7.44 6.46 8.23 17.73 1.77 25.17-6.46 7.44-17.73 8.23-25.17 1.77-9.69-8.41-16.94-17.72-21.57-27.67a80.677 80.677 0 0 1-7.58-29.11c0-0.05-0.01-0.11-0.01-0.16-0.54-9.13 0.03-18.14 1.69-26.79 1.23-6.97 3.18-13.45 5.8-19.24 2.74-6.09 6.4-11.36 11.17-16.04l0.2-0.2c3.06-2.92 7.29-6.71 12.88-10.32 3.49-2.37 6.79-4.98 10.34-8.18 2.81-2.67 5.13-5.8 6.88-9.29 2.82-5.56 5.37-11.23 7.61-16.91 2.32-6.8 4.37-13.81 6.1-20.84 1.5-6.13 6.13-11.01 12.18-12.84 2.62-0.79 5.06-2.19 7.07-4.06 2.78-2.61 5.12-5.75 6.89-9.26 2.41-4.93 4.18-11.38 5.27-19.19 0.01-0.08 0.02-0.17 0.04-0.25 0.71-4.57 0.65-9.2-0.17-13.76-0.6-2.87-1.61-5.63-2.99-8.21-0.23-0.43-0.44-0.87-0.64-1.31-0.09-0.22-0.25-0.39-0.46-0.51a17.829 17.829 0 0 1-9.15-16c0.44-18.99-0.75-37.76-3.56-55.77-0.01-0.04-0.01-0.08-0.02-0.13a288.118 288.118 0 0 0-12.14-50.22c-0.02-0.05-0.03-0.1-0.05-0.15a151.228 151.228 0 0 0-24.82-46.28 95.078 95.078 0 0 0-18.09-17.02c-0.05-0.04-0.11-0.08-0.16-0.12-8.53-6.28-17.7-11.73-27.26-16.2a190.87 190.87 0 0 0-33.6-12.15A143.915 143.915 0 0 0 439 99.64c-9.81 0-20.38 0.91-32.37 2.78a154.681 154.681 0 0 0-32.08 9.29c-10.41 4.28-20.94 10.36-31.31 18.06a127.964 127.964 0 0 0-27.54 28.78 145.681 145.681 0 0 0-20.09 42.59c-0.01 0.05-0.03 0.09-0.04 0.14-4.98 16.89-8.4 32.79-10.16 47.25l-0.03 0.25a330.289 330.289 0 0 0-2.87 53.16c0.12 4.36-1.37 8.62-4.18 11.96a33.72 33.72 0 0 0-5.87 10.18c-0.05 0.14-0.1 0.27-0.15 0.41a45.17 45.17 0 0 0-2.93 12.41c-0.02 0.22-0.04 0.44-0.07 0.66-0.52 4.06 0.12 9.23 1.85 14.97 2.45 7.89 4.6 11.65 5.98 13.41 3.14 4.04 5.29 6.17 6.6 7.28 1.39 0.99 2.8 1.67 4.4 2.13a17.833 17.833 0 0 1 12.09 11.74c2.14 6.72 4.66 14.58 7.2 22.11 2.53 6.54 4.86 11.92 7.32 16.91 1.99 4.03 3.96 6.92 5.88 8.61 8.02 6.5 15.7 13.27 23.48 20.68 9.84 9.34 15.53 22.35 16.91 38.66l0.03 0.41c0.53 8.68 0.78 15.61 0.78 21.83 0 8.44-1.45 16.49-4.44 24.61-0.07 0.2-0.15 0.4-0.23 0.59a70.382 70.382 0 0 1-15.91 23.7c-8.1 8.05-17.28 15.11-27.2 20.91-14.1 9.17-30.8 16.31-49.64 21.24-10.15 2.66-44.58 13.99-102.33 33.67l-4.14 1.41c-0.09 0.03-0.18 0.06-0.28 0.09a119.384 119.384 0 0 0-36.41 19.14c-8.11 6.38-13.18 16.2-15.52 30.02l-0.53 3.38c-4.35 27.66-4.91 31.21-2.72 48.1 1.37 10.57 2.95 148.87 4.16 152.48H598.7c9.85 0 17.84 7.99 17.84 17.84s-7.98 17.84-17.84 17.84z" fill="#333333" p-id="2276"></path><path d="M804.72 895.64h-68.7c-10.47 0-19.03-8.33-19.33-18.8a39.33 39.33 0 0 0-2.14-11.77c-0.08-0.24-0.16-0.49-0.24-0.74-2.27-7.56-6.43-14.39-12.02-19.74l-0.11-0.11c-9.18-8.92-21.24-13.83-33.98-13.83-8.39 0-16.92 2.32-24.64 6.69a19.306 19.306 0 0 1-9.53 2.51h-0.17c-6.82 0-13.14-3.6-16.62-9.46l-34.18-57.55c-5.44-9.15-2.45-20.98 6.68-26.45 10.87-6.52 18.97-17.17 22.23-29.22 5.21-20.53-3.9-42.29-22.19-52.93a19.317 19.317 0 0 1-8.98-11.82c-1.3-4.98-0.56-10.27 2.05-14.7l33.82-57.37c3.48-5.9 9.81-9.52 16.66-9.52h0.17c3.35 0 6.65 0.87 9.56 2.53 7.27 4.14 15.6 6.33 24.08 6.33 8.22 0 16.47-2.13 23.88-6.15 15.55-8.35 25.08-23.88 24.95-40.59a19.348 19.348 0 0 1 5.61-13.77c3.63-3.66 8.57-5.71 13.72-5.71h68.35c10.53 0 19.12 8.42 19.33 18.94 0.25 12.38 5.46 24.56 14.3 33.42 9.3 9.14 21.3 13.99 34.71 14.03 8.17-0.17 16.25-2.32 23.42-6.23 4.4-2.87 9.78-3.83 14.9-2.66 5.17 1.19 9.62 4.44 12.32 9.01l34 57.54c2.61 4.42 3.36 9.7 2.07 14.67a19.301 19.301 0 0 1-8.92 11.83c-10.56 6.22-18.51 16.61-21.8 28.51-3.4 12.2-1.6 25.51 4.92 36.53 0.02 0.04 0.04 0.08 0.07 0.11 3.88 6.66 9.26 12.19 16.02 16.44 4.54 2.45 7.91 6.61 9.37 11.57 1.5 5.13 0.82 10.65-1.9 15.26l-33.29 56.48c-5.16 8.75-16.2 12.02-25.29 7.48l-1.06-0.53c-0.25-0.12-0.49-0.25-0.73-0.39-6.97-3.86-15-5.9-23.22-5.9-8.6 0-16.8 2.15-24.38 6.39-7.24 4-13.37 9.93-17.34 16.76-0.08 0.13-0.15 0.26-0.23 0.39-4.38 7.13-6.76 15.24-6.88 23.46-0.15 10.58-8.76 19.06-19.32 19.06z m-52.21-38.67h35.36a85.362 85.362 0 0 1 9.99-23.87c7.44-12.71 18.75-23.68 31.87-30.91 13.13-7.34 28.09-11.26 43.16-11.26 8.71 0 17.34 1.3 25.57 3.81l16.04-27.22c-5.84-5.57-10.88-11.92-14.91-18.83-11.82-20.02-15.04-44.26-8.86-66.49 4.19-15.15 12.59-28.97 23.9-39.74l-16.6-28.1a89.735 89.735 0 0 1-25.52 4.18h-0.34c-23.55 0-45.6-8.96-62.09-25.22l-0.1-0.1c-11.31-11.31-19.31-25.68-23.13-41.08h-34.4c-5.47 23.26-20.93 43.55-43.06 55.43-12.96 7.05-27.61 10.8-42.25 10.8-8.76 0-17.43-1.31-25.72-3.85l-16.52 28.03c22.45 21.2 32.39 53.54 24.5 84.34l-0.06 0.21c-4.15 15.47-12.7 29.64-24.31 40.72l16.82 28.32c8.58-2.73 17.48-4.14 26.36-4.14 22.83 0 44.45 8.78 60.88 24.72 10.3 9.87 17.95 22.36 22.16 36.14 0.45 1.35 0.88 2.73 1.26 4.11z" fill="#333333" p-id="2277"></path><path d="M769.98 778.43c-3.8 0-7.09-0.26-10.29-0.82-36.37-4.94-63.73-36.25-63.73-73.05-0.01-36.75 27.33-68.13 63.69-73.19 3.21-0.57 6.5-0.83 10.33-0.83 10.55 0 20.79 2.23 30.45 6.63C826.9 648.99 844 675.43 844 704.55c0.04 29.01-17.07 55.41-43.58 67.25-9.66 4.4-19.9 6.63-30.44 6.63z m0-109.23c-1.58 0-2.77 0.08-3.74 0.26-0.34 0.06-0.68 0.12-1.03 0.17-17.44 2.31-30.59 17.32-30.59 34.91 0 17.59 13.12 32.54 30.51 34.77 0.37 0.05 0.73 0.11 1.1 0.17 0.97 0.18 2.16 0.27 3.74 0.27 4.99 0 9.86-1.07 14.47-3.17 0.06-0.03 0.11-0.05 0.17-0.08 12.6-5.61 20.73-18.14 20.71-31.93 0-13.92-8.13-26.53-20.72-32.13-0.06-0.02-0.11-0.05-0.17-0.08-4.59-2.09-9.46-3.16-14.45-3.16z" fill="#00AABC" p-id="2278"></path><path d="M437.01 370.01c-9.85 0-17.84-7.99-17.84-17.84v-69.14c0-9.85 7.99-17.84 17.84-17.84s17.84 7.99 17.84 17.84v69.14c0.01 9.85-7.98 17.84-17.84 17.84z" fill="#00AABC" p-id="2279"></path></svg>