<?xml version="1.0" standalone="no"?><!DOCTYPE svg PUBLIC "-//W3C//DTD SVG 1.1//EN" "http://www.w3.org/Graphics/SVG/1.1/DTD/svg11.dtd"><svg t="1630075651845" class="icon" viewBox="0 0 1024 1024" version="1.1" xmlns="http://www.w3.org/2000/svg" p-id="3821" xmlns:xlink="http://www.w3.org/1999/xlink" width="200" height="200"><defs><style type="text/css"></style></defs><path d="M940.76 786.37H602.98c-10.26 0-18.57-8.32-18.57-18.57s8.32-18.57 18.57-18.57h337.78c10.26 0 18.57 8.32 18.57 18.57s-8.31 18.57-18.57 18.57zM940.76 492.21H713.18c-10.26 0-18.57-8.32-18.57-18.57 0-10.26 8.32-18.57 18.57-18.57h227.58c10.26 0 18.57 8.32 18.57 18.57 0 10.26-8.31 18.57-18.57 18.57zM940.76 198.05H772.45c-10.26 0-18.57-8.32-18.57-18.57s8.32-18.57 18.57-18.57h168.31c10.26 0 18.57 8.32 18.57 18.57s-8.31 18.57-18.57 18.57z" fill="#00AABC" p-id="3822"></path><path d="M642.4 927.9H98.83c-3.95 0-7.79-1.26-10.97-3.59-10.81-7.91-16.98-92.15-20.64-120.43-3.08-23.69-1.77-31.99 3.09-62.88l0.59-3.76 0.03-0.19c4.11-24.45 14.49-43.35 30.86-56.19l0.12-0.09a167.265 167.265 0 0 1 50.89-26.81l4.28-1.46c41.05-13.99 97.48-33.08 113.55-37.29 16.64-4.35 31.11-10.52 43.04-18.33 0.28-0.18 0.57-0.36 0.86-0.53a109.97 109.97 0 0 0 22.31-17.11c3.77-3.7 6.66-7.96 8.65-12.74 1.59-4.43 2.36-8.78 2.36-13.27 0-5.88-0.24-12.6-0.76-21.11-0.71-8.14-2.89-13.83-6.65-17.4-7.79-7.42-15.44-14.15-23.41-20.61l-0.36-0.3c-6.15-5.24-11.36-12.28-15.91-21.52-3.23-6.56-6.24-13.5-9.45-21.84-0.09-0.24-0.18-0.49-0.27-0.74-1.89-5.59-3.75-11.3-5.49-16.69-2.54-1.32-4.98-2.87-7.36-4.64-0.2-0.15-0.4-0.3-0.59-0.46-4.32-3.5-8.73-8.17-13.48-14.27-5.14-6.57-9.22-15.06-12.82-26.69-0.01-0.04-0.02-0.08-0.03-0.11-3.43-11.35-4.57-22.02-3.38-31.74a87.26 87.26 0 0 1 5.51-23.26c2.13-5.82 4.95-11.3 8.43-16.38-0.2-19.04 0.99-38.2 3.54-57.03 2.16-17.69 6.28-36.91 12.24-57.15a195.224 195.224 0 0 1 27.01-57.19 176.184 176.184 0 0 1 38.13-39.85c0.05-0.04 0.11-0.08 0.16-0.12 13.79-10.25 27.99-18.42 42.21-24.27 13.74-5.65 28.14-9.81 42.81-12.37 0.11-0.02 0.21-0.04 0.32-0.05 15.28-2.4 28.91-3.5 41.69-3.5 16.37 0 32.74 2.09 48.61 6.22 14.71 3.8 29.19 9.04 42.98 15.54 12.53 5.85 24.6 13.02 35.83 21.28a141.082 141.082 0 0 1 26.86 25.32c0.06 0.08 0.13 0.16 0.19 0.23a201.44 201.44 0 0 1 33.19 61.78c6.7 19.74 11.65 40.23 14.72 60.89 2.92 18.83 4.4 38.29 4.39 57.99 2.78 3 5.09 6.43 6.81 10.15a70.723 70.723 0 0 1 6.71 18.86c0.02 0.11 0.04 0.23 0.07 0.34 1.68 9.14 1.82 18.42 0.42 27.59-1.75 12.43-4.86 23.27-9.25 32.19-0.02 0.04-0.04 0.09-0.06 0.13a73.966 73.966 0 0 1-15.5 20.81 58.06 58.06 0 0 1-12.3 8.75c-1.61 5.79-3.39 11.53-5.32 17.16-0.09 0.25-0.18 0.51-0.28 0.76-2.9 7.4-6.21 14.77-9.83 21.91a73.794 73.794 0 0 1-15.46 20.74c-0.09 0.09-0.18 0.17-0.28 0.26-5.24 4.73-10.38 8.78-15.7 12.38-0.13 0.09-0.26 0.17-0.38 0.25-3.4 2.18-6.26 4.74-8.39 6.76-1.74 1.73-2.98 3.53-4.01 5.82-1.57 3.47-2.75 7.47-3.53 11.96l-0.06 0.35c-1.22 6.29-1.64 12.9-1.25 19.66a49.952 49.952 0 0 0 4.74 18.03c2.75 5.93 7.42 11.77 13.87 17.37 7.74 6.73 8.57 18.46 1.84 26.2-6.73 7.74-18.45 8.57-26.2 1.84-10.41-9.04-18.21-19.04-23.18-29.72a86.627 86.627 0 0 1-8.14-31.27c0-0.06-0.01-0.12-0.01-0.17-0.58-9.83 0.03-19.53 1.82-28.84 1.32-7.5 3.42-14.46 6.23-20.68 2.92-6.51 6.84-12.14 11.94-17.15 0.07-0.07 0.14-0.14 0.21-0.2 3.3-3.14 7.84-7.22 13.85-11.1 3.81-2.59 7.41-5.43 11.29-8.93a37.06 37.06 0 0 0 7.62-10.28c3.07-6.05 5.84-12.22 8.28-18.4a266.77 266.77 0 0 0 6.63-22.66 18.567 18.567 0 0 1 12.67-13.36c2.94-0.89 5.69-2.47 7.95-4.57 3.08-2.9 5.67-6.37 7.62-10.24 2.65-5.41 4.59-12.49 5.79-21.03 0.01-0.09 0.03-0.18 0.04-0.26 0.78-5.04 0.71-10.14-0.19-15.17-0.66-3.19-1.78-6.25-3.31-9.1-0.24-0.45-0.46-0.9-0.66-1.37-0.17-0.39-0.45-0.7-0.82-0.91a18.576 18.576 0 0 1-9.53-16.66c0.48-20.62-0.82-40.99-3.86-60.55-0.01-0.04-0.01-0.09-0.02-0.13a313.518 313.518 0 0 0-13.18-54.54 0.983 0.983 0 0 1-0.05-0.16 164.78 164.78 0 0 0-27.02-50.38 103.433 103.433 0 0 0-19.74-18.57c-0.06-0.04-0.11-0.08-0.17-0.12a174.917 174.917 0 0 0-29.66-17.63 207.156 207.156 0 0 0-36.53-13.21 156.326 156.326 0 0 0-39.34-5.03c-10.83-0.03-22.47 0.96-35.72 3.03-11.96 2.1-23.71 5.5-34.91 10.11-11.34 4.66-22.81 11.28-34.1 19.67a139.254 139.254 0 0 0-29.99 31.35 158.15 158.15 0 0 0-21.87 46.37c-0.01 0.05-0.03 0.1-0.04 0.14-5.41 18.34-9.12 35.61-11.03 51.32l-0.03 0.26a356.97 356.97 0 0 0-3.11 57.72 18.56 18.56 0 0 1-4.35 12.45c-2.82 3.35-5 7.14-6.5 11.26-0.05 0.14-0.1 0.28-0.16 0.42-1.71 4.39-2.8 8.98-3.22 13.65-0.02 0.23-0.05 0.46-0.07 0.68-0.58 4.5 0.12 10.22 2.03 16.54 2.68 8.65 5.07 12.8 6.61 14.76 2.84 3.64 5.27 6.33 7.28 8.02 1.59 1.14 3.19 1.91 5.02 2.44 5.97 1.71 10.7 6.3 12.58 12.22 2.32 7.28 5.05 15.8 7.8 23.97 2.75 7.11 5.28 12.97 7.96 18.4 2.23 4.52 4.38 7.65 6.56 9.57 8.67 7.03 16.99 14.35 25.41 22.37 10.52 9.98 16.61 23.92 18.09 41.4l0.03 0.43c0.57 9.39 0.84 16.89 0.84 23.6 0 9.05-1.56 17.68-4.76 26.4-0.08 0.21-0.16 0.41-0.24 0.62a75.381 75.381 0 0 1-17.06 25.42 146.917 146.917 0 0 1-29.34 22.55c-15.21 9.89-33.23 17.6-53.57 22.92-11.02 2.89-48.36 15.17-110.96 36.51l-4.43 1.51c-0.1 0.03-0.19 0.06-0.29 0.1-14.38 4.64-27.73 11.65-39.68 20.86-8.94 7.03-14.53 17.83-17.09 32.99l-0.58 3.67c-4.73 30.06-5.34 33.92-2.95 52.32 1.55 11.98 3.36 87.75 4.71 91.65H642.4c10.26 0 18.57 8.32 18.57 18.57 0.01 10.28-8.31 18.59-18.57 18.59z m-531.6-32.65z" fill="#333333" p-id="3823"></path><path d="M467.24 394.01c-10.26 0-18.57-8.32-18.57-18.57v-74.9c0-10.26 8.32-18.57 18.57-18.57s18.57 8.32 18.57 18.57v74.9c0 10.26-8.31 18.57-18.57 18.57z" fill="#00AABC" p-id="3824"></path></svg>