<?xml version="1.0" standalone="no"?><!DOCTYPE svg PUBLIC "-//W3C//DTD SVG 1.1//EN" "http://www.w3.org/Graphics/SVG/1.1/DTD/svg11.dtd"><svg t="1630075633355" class="icon" viewBox="0 0 1024 1024" version="1.1" xmlns="http://www.w3.org/2000/svg" p-id="2979" xmlns:xlink="http://www.w3.org/1999/xlink" width="200" height="200"><defs><style type="text/css"></style></defs><path d="M846.44 831.83H177.57c-62.38 0-113.12-49.48-113.12-110.3v-546.9c0-60.82 50.75-110.3 113.12-110.3h668.87c62.38 0 113.12 49.48 113.12 110.3v546.9c0 60.82-50.74 110.3-113.12 110.3zM177.57 105.79c-41.6 0-75.44 30.88-75.44 68.84v546.9c0 37.96 33.84 68.84 75.44 68.84h668.87c41.6 0 75.44-30.88 75.44-68.84v-546.9c0-37.96-33.84-68.84-75.44-68.84H177.57z" fill="#333333" p-id="2980"></path><path d="M740.48 959.67H283.52c-10.41 0-18.84-8.44-18.84-18.84s8.44-18.84 18.84-18.84h456.96c10.41 0 18.84 8.44 18.84 18.84s-8.43 18.84-18.84 18.84z" fill="#00AABC" p-id="2981"></path><path d="M773.34 672.47a19.995 19.995 0 0 1-18.03-11.35L603.72 344.87 477.97 630.53a19.999 19.999 0 0 1-17.14 11.91c-7.49 0.45-14.6-3.36-18.41-9.83L329.04 439.73 228.19 608.72c-5.66 9.49-17.94 12.59-27.42 6.92-9.48-5.66-12.58-17.94-6.92-27.42L312 390.23a19.99 19.99 0 0 1 17.17-9.75h0.07c7.07 0.02 13.59 3.77 17.18 9.86l110.69 188.3 127.54-289.72a20.009 20.009 0 0 1 17.98-11.94c7.78-0.11 14.98 4.31 18.36 11.35L779.9 619.87l47.61-42.34c8.25-7.34 20.89-6.6 28.24 1.65 7.34 8.25 6.6 20.89-1.65 28.24l-67.46 60c-3.7 3.28-8.44 5.05-13.3 5.05z" fill="#333333" p-id="2982"></path></svg>