<?xml version="1.0" standalone="no"?><!DOCTYPE svg PUBLIC "-//W3C//DTD SVG 1.1//EN" "http://www.w3.org/Graphics/SVG/1.1/DTD/svg11.dtd"><svg t="1630075582282" class="icon" viewBox="0 0 1024 1024" version="1.1" xmlns="http://www.w3.org/2000/svg" p-id="870" xmlns:xlink="http://www.w3.org/1999/xlink" width="200" height="200"><defs><style type="text/css"></style></defs><path d="M842.94 292.23H179.73c-64.18 0-116.4-51.14-116.4-114s52.21-114 116.4-114h663.21c64.18 0 116.39 51.14 116.39 114s-52.21 114-116.39 114zM179.73 102.22c-42.79 0-77.6 34.09-77.6 76s34.81 76 77.6 76h663.21c42.79 0 77.6-34.09 77.6-76s-34.81-76-77.6-76H179.73zM654.4 626.23H179.73c-64.18 0-116.4-51.14-116.4-114s52.21-114 116.4-114H654.4c64.18 0 116.39 51.14 116.39 114s-52.21 114-116.39 114zM179.73 436.22c-42.79 0-77.6 34.09-77.6 76s34.81 76 77.6 76H654.4c42.79 0 77.6-34.09 77.6-76s-34.81-76-77.6-76H179.73zM842.94 960.22H179.73c-64.18 0-116.4-51.14-116.4-114s52.21-114 116.4-114h663.21c64.18 0 116.39 51.14 116.39 114s-52.21 114-116.39 114z m-663.21-190c-42.79 0-77.6 34.09-77.6 76s34.81 76 77.6 76h663.21c42.79 0 77.6-34.09 77.6-76s-34.81-76-77.6-76H179.73z" fill="#333333" p-id="871"></path><path d="M422.22 197.23H203.98c-10.71 0-19.4-8.51-19.4-19s8.69-19 19.4-19h218.24c10.71 0 19.4 8.51 19.4 19s-8.69 19-19.4 19zM422.22 865.81H203.98c-10.71 0-19.4-8.51-19.4-19s8.69-19 19.4-19h218.24c10.71 0 19.4 8.51 19.4 19s-8.69 19-19.4 19zM630.15 531.22h-97c-10.71 0-19.4-8.51-19.4-19s8.69-19 19.4-19h97c10.71 0 19.4 8.51 19.4 19 0 10.5-8.68 19-19.4 19z" fill="#00AABC" p-id="872"></path></svg>