<?xml version="1.0" standalone="no"?><!DOCTYPE svg PUBLIC "-//W3C//DTD SVG 1.1//EN" "http://www.w3.org/Graphics/SVG/1.1/DTD/svg11.dtd"><svg t="1630075639269" class="icon" viewBox="0 0 1024 1024" version="1.1" xmlns="http://www.w3.org/2000/svg" p-id="3260" xmlns:xlink="http://www.w3.org/1999/xlink" width="200" height="200"><defs><style type="text/css"></style></defs><path d="M456.1 957.27H145.81c-44.99 0-81.6-38.36-81.6-85.52V149.38c0-47.15 36.6-85.52 81.6-85.52h630.24c44.99 0 81.6 38.36 81.6 85.52v248.67c0 9.94-7.69 18-17.18 18s-17.18-8.06-17.18-18V149.38c0-27.3-21.19-49.51-47.24-49.51H145.81c-26.05 0-47.24 22.21-47.24 49.51v722.38c0 27.3 21.19 49.51 47.24 49.51H456.1c9.49 0 17.18 8.06 17.18 18-0.01 9.94-7.7 18-17.18 18z" fill="#333333" p-id="3261"></path><path d="M572.05 314.03H207.01c-9.49 0-17.18-7.69-17.18-17.18s7.69-17.18 17.18-17.18h365.04c9.49 0 17.18 7.69 17.18 17.18s-7.69 17.18-17.18 17.18zM423.89 507.29H207.01c-9.49 0-17.18-7.69-17.18-17.18s7.69-17.18 17.18-17.18h216.88c9.49 0 17.18 7.69 17.18 17.18s-7.7 17.18-17.18 17.18zM303.4 700.55h-96.39c-9.49 0-17.18-7.69-17.18-17.18 0-9.49 7.69-17.18 17.18-17.18h96.39c9.49 0 17.18 7.69 17.18 17.18 0 9.48-7.69 17.18-17.18 17.18z" fill="#00AABC" p-id="3262"></path><path d="M770.36 957.27H683.2c-9.96 0-18.11-7.93-18.38-17.88a56.349 56.349 0 0 0-3.04-16.76c-0.08-0.23-0.15-0.46-0.23-0.7-3.19-10.61-9.03-20.19-16.89-27.72l-0.1-0.1c-12.79-12.43-29.62-19.28-47.38-19.28-11.71 0-23.56 3.21-34.29 9.29a18.377 18.377 0 0 1-9.07 2.39h-0.22c-6.49 0-12.5-3.42-15.81-9l-43.36-73c-5.17-8.71-2.33-19.95 6.35-25.16 15.16-9.09 26.44-23.95 30.98-40.78 7.3-28.7-5.43-59.12-31-74.01a18.39 18.39 0 0 1-6.59-25.23l42.9-72.78c3.31-5.61 9.33-9.05 15.84-9.05h0.22c3.19 0 6.32 0.83 9.1 2.41 10.15 5.78 21.76 8.83 33.59 8.83 11.44 0 22.93-2.96 33.22-8.55 21.71-11.65 35.04-33.45 34.86-56.93-0.04-4.9 1.88-9.61 5.34-13.09 3.45-3.48 8.15-5.43 13.05-5.43h86.7c10.01 0 18.18 8.01 18.39 18.02 0.35 17.28 7.62 34.27 19.95 46.63 12.98 12.78 29.72 19.55 48.43 19.59a71.193 71.193 0 0 0 32.82-8.79l0.08-0.05a18.39 18.39 0 0 1 25.99 5.98l43.13 73c2.48 4.2 3.19 9.22 1.97 13.95a18.354 18.354 0 0 1-8.48 11.25c-14.76 8.69-25.87 23.2-30.46 39.82-4.75 17.07-2.24 35.69 6.87 51.1 0.02 0.04 0.04 0.07 0.06 0.11 5.46 9.39 13.05 17.15 22.56 23.08a18.388 18.388 0 0 1 7.26 25.6l-42.23 71.65c-4.91 8.32-15.41 11.43-24.05 7.12l-1.35-0.67-0.69-0.36c-9.75-5.4-20.97-8.25-32.42-8.25-11.97 0-23.38 2.99-33.92 8.89-10.11 5.58-18.71 13.92-24.3 23.53-0.07 0.13-0.15 0.25-0.22 0.37-6.13 9.98-9.46 21.35-9.64 32.88-0.15 10.02-8.34 18.08-18.38 18.08z m-71.01-36.77h54.56c2.33-11.69 6.73-22.96 13.03-33.27 8.89-15.2 22.42-28.33 38.12-36.99 16-8.95 33.45-13.51 51.78-13.51 12.08 0 24.01 2.08 35.21 6.07l25.4-43.09c-8.54-7.42-15.81-16.15-21.43-25.81-14.15-23.97-18.02-52.98-10.62-79.6 5.46-19.73 16.87-37.56 32.24-50.88l-26.14-44.25c-11.27 4.13-23.2 6.38-35.22 6.58h-0.32c-28.25 0-54.69-10.73-74.46-30.23l-0.09-0.09c-14.7-14.7-24.73-33.71-28.78-53.91H699.1c-5.48 29.78-24.55 56.02-52.54 71.04-15.58 8.47-33.14 12.97-50.7 12.97-12.12 0-24.11-2.09-35.41-6.13l-26.02 44.15c29.43 25.24 42.83 65.77 32.97 104.27-0.02 0.07-0.03 0.13-0.05 0.2-5.39 20.11-16.99 38.37-32.74 52.08l26.43 44.51c11.68-4.3 23.94-6.53 36.17-6.53 27.37 0 53.28 10.53 72.96 29.64 12.33 11.82 21.5 26.79 26.53 43.31 1.03 3.1 1.92 6.27 2.65 9.47z" fill="#333333" p-id="3263"></path><path d="M726.28 808.58c-4.51 0-8.37-0.31-12.11-0.97-43.17-5.79-75.66-42.94-75.66-86.6-0.02-43.61 32.46-80.83 75.62-86.78 3.74-0.67 7.62-0.98 12.15-0.98 12.5 0 24.65 2.65 36.1 7.87 31.38 14.01 51.66 45.36 51.66 79.89 0.04 34.4-20.23 65.69-51.66 79.71-11.46 5.21-23.6 7.86-36.1 7.86z m0-138.55c-2.4 0-4.27 0.14-5.87 0.44l-0.98 0.16c-25.17 3.33-44.15 24.99-44.14 50.38 0 25.39 18.94 46.97 44.06 50.19l1.04 0.16c1.62 0.3 3.48 0.44 5.88 0.44 7.22 0 14.25-1.54 20.9-4.58l0.16-0.07c18.2-8.1 29.94-26.2 29.92-46.12 0-20.08-11.74-38.26-29.92-46.36l-0.16-0.07c-6.64-3.03-13.67-4.57-20.89-4.57z" fill="#00AABC" p-id="3264"></path></svg>