<?xml version="1.0" standalone="no"?><!DOCTYPE svg PUBLIC "-//W3C//DTD SVG 1.1//EN" "http://www.w3.org/Graphics/SVG/1.1/DTD/svg11.dtd"><svg t="1630075824597" class="icon" viewBox="0 0 1621 1024" version="1.1" xmlns="http://www.w3.org/2000/svg" p-id="1518" xmlns:xlink="http://www.w3.org/1999/xlink" width="316.6015625" height="200"><defs><style type="text/css"></style></defs><path d="M313.736277 0m0 52.28938l0 488.034208q0 52.28938-52.289379 52.28938l0 0q-52.28938 0-52.28938-52.28938l0-488.034208q0-52.28938 52.28938-52.28938l0 0q52.28938 0 52.289379 52.28938Z" fill="#303F5B" p-id="1519"></path><path d="M732.051313 0m0 52.28938l0 488.034208q0 52.28938-52.289379 52.28938l0 0q-52.28938 0-52.28938-52.28938l0-488.034208q0-52.28938 52.28938-52.28938l0 0q52.28938 0 52.289379 52.28938Z" fill="#303F5B" p-id="1520"></path><path d="M1150.366349 0m0 52.28938l0 488.034208q0 52.28938-52.289379 52.28938l0 0q-52.28938 0-52.28938-52.28938l0-488.034208q0-52.28938 52.28938-52.28938l0 0q52.28938 0 52.289379 52.28938Z" fill="#303F5B" p-id="1521"></path><path d="M0 522.893795m69.719173 0l1185.225935 0q69.719173 0 69.719173 69.719173l0 174.297931q0 69.719173-69.719173 69.719173l-1185.225935 0q-69.719173 0-69.719173-69.719173l0-174.297931q0-69.719173 69.719173-69.719173Z" fill="#303F5B" p-id="1522"></path><path d="M139.438345 627.472554m52.28938 0l0 0q52.28938 0 52.289379 52.28938l0 0q0 52.28938-52.289379 52.289379l0 0q-52.28938 0-52.28938-52.289379l0 0q0-52.28938 52.28938-52.28938Z" fill="#D2DFFE" p-id="1523"></path><path d="M313.736277 627.472554m52.28938 0l0 0q52.28938 0 52.289379 52.28938l0 0q0 52.28938-52.289379 52.289379l0 0q-52.28938 0-52.28938-52.289379l0 0q0-52.28938 52.28938-52.28938Z" fill="#D2DFFE" p-id="1524"></path><path d="M488.034209 627.472554m52.289379 0l0 0q52.28938 0 52.28938 52.28938l0 0q0 52.28938-52.28938 52.289379l0 0q-52.28938 0-52.289379-52.289379l0 0q0-52.28938 52.289379-52.28938Z" fill="#D2DFFE" p-id="1525"></path><path d="M662.33214 627.472554m52.28938 0l453.174622 0q52.28938 0 52.28938 52.28938l0 0q0 52.28938-52.28938 52.289379l-453.174622 0q-52.28938 0-52.28938-52.289379l0 0q0-52.28938 52.28938-52.28938Z" fill="#D2DFFE" p-id="1526"></path></svg>