<?xml version="1.0" standalone="no"?><!DOCTYPE svg PUBLIC "-//W3C//DTD SVG 1.1//EN" "http://www.w3.org/Graphics/SVG/1.1/DTD/svg11.dtd"><svg t="1630075602076" class="icon" viewBox="0 0 1024 1024" version="1.1" xmlns="http://www.w3.org/2000/svg" p-id="1574" xmlns:xlink="http://www.w3.org/1999/xlink" width="200" height="200"><defs><style type="text/css"></style></defs><path d="M511.18 579.38c-10 0-18.11-8.11-18.11-18.11V81.98c0-10 8.11-18.11 18.11-18.11s18.11 8.11 18.11 18.11v479.3c0 9.99-8.11 18.1-18.11 18.1zM511.18 959.56c-10 0-18.11-8.11-18.11-18.11V798.09c0-10 8.11-18.11 18.11-18.11s18.11 8.11 18.11 18.11v143.36c0 10-8.11 18.11-18.11 18.11z" fill="#333333" p-id="1575"></path><path d="M511.75 794.94c-63.96 0-116-52.04-116-116s52.04-116 116-116 116 52.04 116 116-52.04 116-116 116z m0-195.78c-43.99 0-79.78 35.79-79.78 79.78s35.79 79.78 79.78 79.78 79.78-35.79 79.78-79.78-35.79-79.78-79.78-79.78z" fill="#00AABC" p-id="1576"></path><path d="M842.77 205.58c-10 0-18.11-8.11-18.11-18.11V81.98c0-10 8.11-18.11 18.11-18.11s18.11 8.11 18.11 18.11v105.49c0 10-8.11 18.11-18.11 18.11zM842.77 959.56c-10 0-18.11-8.11-18.11-18.11V405.84c0-10 8.11-18.11 18.11-18.11s18.11 8.11 18.11 18.11v535.62c0 9.99-8.11 18.1-18.11 18.1z" fill="#333333" p-id="1577"></path><path d="M843.33 407.9c-63.96 0-116-52.04-116-116s52.04-116 116-116 116 52.04 116 116-52.03 116-116 116z m0-195.78c-43.99 0-79.78 35.79-79.78 79.78s35.79 79.78 79.78 79.78 79.78-35.79 79.78-79.78-35.78-79.78-79.78-79.78z" fill="#00AABC" p-id="1578"></path><path d="M179.6 205.58c-10 0-18.11-8.11-18.11-18.11V81.98c0-10 8.11-18.11 18.11-18.11s18.11 8.11 18.11 18.11v105.49c-0.01 10-8.11 18.11-18.11 18.11zM179.6 959.56c-10 0-18.11-8.11-18.11-18.11V405.84c0-10 8.11-18.11 18.11-18.11s18.11 8.11 18.11 18.11v535.62c-0.01 9.99-8.11 18.1-18.11 18.1z" fill="#333333" p-id="1579"></path><path d="M180.16 407.9c-63.96 0-116-52.04-116-116s52.04-116 116-116 116 52.04 116 116-52.04 116-116 116z m0-195.78c-43.99 0-79.78 35.79-79.78 79.78s35.79 79.78 79.78 79.78 79.78-35.79 79.78-79.78-35.78-79.78-79.78-79.78z" fill="#00AABC" p-id="1580"></path></svg>