<?xml version="1.0" standalone="no"?><!DOCTYPE svg PUBLIC "-//W3C//DTD SVG 1.1//EN" "http://www.w3.org/Graphics/SVG/1.1/DTD/svg11.dtd"><svg t="1630075843484" class="icon" viewBox="0 0 1152 1024" version="1.1" xmlns="http://www.w3.org/2000/svg" p-id="2087" xmlns:xlink="http://www.w3.org/1999/xlink" width="225" height="200"><defs><style type="text/css"></style></defs><path d="M160 704H96v-224a480 480 0 0 1 960 0v224h-64v-224a416 416 0 1 0-832 0v224z" fill="#303F5B" p-id="2088"></path><path d="M192 512m32 0l0 0q32 0 32 32l0 448q0 32-32 32l0 0q-32 0-32-32l0-448q0-32 32-32Z" fill="#303F5B" p-id="2089"></path><path d="M192 992h-32a160.192 160.192 0 0 1-160-160v-128a160.192 160.192 0 0 1 160-160h32v448z" fill="#D2DFFE" p-id="2090"></path><path d="M0 672m32 0l0 0q32 0 32 32l0 128q0 32-32 32l0 0q-32 0-32-32l0-128q0-32 32-32Z" fill="#303F5B" p-id="2091"></path><path d="M96 448m32 0l0 0q32 0 32 32l0 96q0 32-32 32l0 0q-32 0-32-32l0-96q0-32 32-32Z" fill="#D2DFFE" p-id="2092"></path><path d="M896 512m32 0l0 0q32 0 32 32l0 448q0 32-32 32l0 0q-32 0-32-32l0-448q0-32 32-32Z" fill="#303F5B" p-id="2093"></path><path d="M960 544h32a160.192 160.192 0 0 1 160 160v128a160.192 160.192 0 0 1-160 160H960V544z" fill="#D2DFFE" p-id="2094"></path><path d="M1088 672m32 0l0 0q32 0 32 32l0 128q0 32-32 32l0 0q-32 0-32-32l0-128q0-32 32-32Z" fill="#303F5B" p-id="2095"></path><path d="M992 448m32 0l0 0q32 0 32 32l0 96q0 32-32 32l0 0q-32 0-32-32l0-96q0-32 32-32Z" fill="#D2DFFE" p-id="2096"></path></svg>